<svg width="728" height="249" viewBox="0 0 728 249" fill="none" xmlns="http://www.w3.org/2000/svg">
<rect width="728" height="249" fill="white"/>
<rect x="19.5" y="79" width="50" height="50" rx="8" fill="#007FA3"/>
<path d="M114.5 36C114.5 31.5817 118.082 28 122.5 28H156.5C160.918 28 164.5 31.5817 164.5 36V78H114.5V36Z" fill="#007FA3"/>
<path d="M114 79H165V129H122C117.582 129 114 125.418 114 121V79Z" fill="#007FA3"/>
<path d="M166 79H207C211.418 79 215 82.5817 215 87V129H166V79Z" fill="#007FA3"/>
<path d="M166 130H215V172C215 176.418 211.418 180 207 180H174C169.582 180 166 176.418 166 172V130Z" fill="#007FA3"/>
<path d="M260 12C260 7.58172 263.582 4 268 4H310V54H260V12Z" fill="#007FA3"/>
<path fill-rule="evenodd" clip-rule="evenodd" d="M413 4H363V53H413V103V153H463V103V53V12C463 7.58172 459.418 4 455 4H413Z" fill="#007FA3"/>
<path fill-rule="evenodd" clip-rule="evenodd" d="M310 55H260V105V153V196C260 200.418 263.582 204 268 204H310V153H361V105H310V55Z" fill="#007FA3"/>
<path d="M311 154H463V196C463 200.418 459.418 204 455 204H311V154Z" fill="#007FA3"/>
<path fill-rule="evenodd" clip-rule="evenodd" d="M311 4H362V54H412V104V153H362V104H361.5H311V54V4Z" fill="#007FA3"/>
<path d="M506.757 12C506.757 7.58172 510.339 4 514.757 4H531.015V28.2773H506.757V12Z" fill="#007FA3"/>
<path fill-rule="evenodd" clip-rule="evenodd" d="M580.985 4H556.728V27.7917H580.985V52.069V76.3463H605.243V52.069V27.7917V12C605.243 7.58172 601.661 4 597.243 4H580.985Z" fill="#007FA3"/>
<path fill-rule="evenodd" clip-rule="evenodd" d="M531.015 28.7628H506.757V53.0401V76.3463V93.1091C506.757 97.5274 510.339 101.109 514.757 101.109H531.015V76.3463H555.757V53.0401H531.015V28.7628Z" fill="#007FA3"/>
<path d="M531.5 76.8318H605.243V93.1091C605.243 97.5274 601.661 101.109 597.243 101.109H531.5V76.8318Z" fill="#007FA3"/>
<path fill-rule="evenodd" clip-rule="evenodd" d="M531.5 4H556.243V28.2773H580.5V52.5545V76.3463H556.243V52.5545H556H531.5V28.2773V4Z" fill="#007FA3"/>
<path d="M610.757 12C610.757 7.58172 614.339 4 618.757 4H635.015V28.2773H610.757V12Z" fill="#1BC491"/>
<path fill-rule="evenodd" clip-rule="evenodd" d="M684.985 4H660.728V27.7917H684.985V52.069V76.3463H709.243V52.069V27.7917V12C709.243 7.58172 705.661 4 701.243 4H684.985Z" fill="#1BC491"/>
<path fill-rule="evenodd" clip-rule="evenodd" d="M635.015 28.7628H610.757V53.0401V76.3463V93.1091C610.757 97.5274 614.339 101.109 618.757 101.109H635.015V76.3463H659.757V53.0401H635.015V28.7628Z" fill="#1BC491"/>
<path d="M635.5 76.8318H709.243V93.1091C709.243 97.5274 705.661 101.109 701.243 101.109H635.5V76.8318Z" fill="#1BC491"/>
<path fill-rule="evenodd" clip-rule="evenodd" d="M635.5 4H660.243V28.2773H684.5V52.5545V76.3463H660.243V52.5545H660H635.5V28.2773V4Z" fill="#1BC491"/>
<path d="M506.757 115C506.757 110.582 510.339 107 514.757 107H531.015V131.277H506.757V115Z" fill="#1BB0C4"/>
<path fill-rule="evenodd" clip-rule="evenodd" d="M580.985 107H556.728V130.792H580.985V155.069V179.346H605.243V155.069V130.792V115C605.243 110.582 601.661 107 597.243 107H580.985Z" fill="#1BB0C4"/>
<path fill-rule="evenodd" clip-rule="evenodd" d="M531.015 131.763H506.757V156.04V179.346V196.109C506.757 200.527 510.339 204.109 514.757 204.109H531.015V179.346H555.757V156.04H531.015V131.763Z" fill="#1BB0C4"/>
<path d="M531.5 179.832H605.243V196.109C605.243 200.527 601.661 204.109 597.243 204.109H531.5V179.832Z" fill="#1BB0C4"/>
<path fill-rule="evenodd" clip-rule="evenodd" d="M531.5 107H556.243V131.277H580.5V155.555V179.346H556.243V155.555H556H531.5V131.277V107Z" fill="#1BB0C4"/>
<path d="M610.757 115C610.757 110.582 614.339 107 618.757 107H635.015V131.277H610.757V115Z" fill="#C41B36"/>
<path fill-rule="evenodd" clip-rule="evenodd" d="M684.985 107H660.728V130.792H684.985V155.069V179.346H709.243V155.069V130.792V115C709.243 110.582 705.661 107 701.243 107H684.985Z" fill="#C41B36"/>
<path fill-rule="evenodd" clip-rule="evenodd" d="M635.015 131.763H610.757V156.04V179.346V196.109C610.757 200.527 614.339 204.109 618.757 204.109H635.015V179.346H659.757V156.04H635.015V131.763Z" fill="#C41B36"/>
<path d="M635.5 179.832H709.243V196.109C709.243 200.527 705.661 204.109 701.243 204.109H635.5V179.832Z" fill="#C41B36"/>
<path fill-rule="evenodd" clip-rule="evenodd" d="M635.5 107H660.243V131.277H684.5V155.555V179.346H660.243V155.555H660H635.5V131.277V107Z" fill="#C41B36"/>
<path d="M22.528 232V230.4H17.184V227.136H22.032V225.536H17.184V222.432H22.528V220.832H15.376V232H22.528ZM27.6284 232V230.576H26.4764V220.16H24.7324V230.272C24.7324 231.344 25.3244 232 26.5084 232H27.6284ZM32.5589 232.192C34.1109 232.192 35.3269 231.52 35.9509 230.512L34.9269 229.504C34.4469 230.272 33.7589 230.752 32.7349 230.752C31.3269 230.752 30.5429 229.84 30.5429 228.56V228.288H36.2549V227.632C36.2549 225.328 35.0069 223.488 32.5589 223.488C30.1909 223.488 28.7349 225.184 28.7349 227.84C28.7349 230.496 30.1909 232.192 32.5589 232.192ZM32.5589 224.848C33.7109 224.848 34.4149 225.696 34.4149 226.976V227.136H30.5429V227.024C30.5429 225.744 31.3589 224.848 32.5589 224.848ZM39.9295 232V226.416C39.9295 225.456 40.7775 224.992 41.6415 224.992C42.6655 224.992 43.1615 225.632 43.1615 226.928V232H44.9055V226.416C44.9055 225.456 45.7215 224.992 46.6015 224.992C47.6575 224.992 48.1375 225.648 48.1375 226.928V232H49.8815V226.72C49.8815 224.672 48.9055 223.488 47.2575 223.488C45.9135 223.488 45.0495 224.256 44.7455 225.184H44.6975C44.2975 224.032 43.3535 223.488 42.2335 223.488C40.9695 223.488 40.3455 224.192 40.0095 225.056H39.9295V223.68H38.1855V232H39.9295ZM55.5589 232.192C57.1109 232.192 58.3269 231.52 58.9509 230.512L57.9269 229.504C57.4469 230.272 56.7589 230.752 55.7349 230.752C54.3269 230.752 53.5429 229.84 53.5429 228.56V228.288H59.2549V227.632C59.2549 225.328 58.0069 223.488 55.5589 223.488C53.1909 223.488 51.7349 225.184 51.7349 227.84C51.7349 230.496 53.1909 232.192 55.5589 232.192ZM55.5589 224.848C56.7109 224.848 57.4149 225.696 57.4149 226.976V227.136H53.5429V227.024C53.5429 225.744 54.3589 224.848 55.5589 224.848ZM62.9295 232V226.432C62.9295 225.456 63.8255 224.992 64.7375 224.992C65.8095 224.992 66.3055 225.648 66.3055 226.944V232H68.0495V226.72C68.0495 224.672 67.0415 223.488 65.3455 223.488C64.0655 223.488 63.3615 224.16 63.0095 225.056H62.9295V223.68H61.1855V232H62.9295ZM74.2908 232V230.576H72.6748V225.104H74.4188V223.68H72.6748V221.408H71.1068V222.864C71.1068 223.44 70.9148 223.68 70.3388 223.68H69.6348V225.104H70.9308V230.192C70.9308 231.328 71.5707 232 72.7708 232H74.2908Z" fill="#807B7B"/>
<path d="M125.151 232H127.327L123.023 225.536L127.007 220.832H124.895L121.887 224.464L120.287 226.496H120.223V220.832H118.415V232H120.223V228.544L121.759 226.784L125.151 232ZM131.707 232.192C134.027 232.192 135.531 230.496 135.531 227.84C135.531 225.184 134.027 223.488 131.707 223.488C129.387 223.488 127.883 225.184 127.883 227.84C127.883 230.496 129.387 232.192 131.707 232.192ZM131.707 230.752C130.523 230.752 129.723 230.016 129.723 228.544V227.136C129.723 225.664 130.523 224.928 131.707 224.928C132.891 224.928 133.691 225.664 133.691 227.136V228.544C133.691 230.016 132.891 230.752 131.707 230.752ZM139.219 232V226.416C139.219 225.456 140.067 224.992 140.931 224.992C141.955 224.992 142.451 225.632 142.451 226.928V232H144.195V226.416C144.195 225.456 145.011 224.992 145.891 224.992C146.947 224.992 147.427 225.648 147.427 226.928V232H149.171V226.72C149.171 224.672 148.195 223.488 146.547 223.488C145.203 223.488 144.339 224.256 144.035 225.184H143.987C143.587 224.032 142.643 223.488 141.523 223.488C140.259 223.488 139.635 224.192 139.299 225.056H139.219V223.68H137.475V232H139.219ZM151.584 235.2H153.328V230.624H153.408C153.76 231.6 154.64 232.192 155.744 232.192C157.84 232.192 159.056 230.576 159.056 227.84C159.056 225.104 157.84 223.488 155.744 223.488C154.64 223.488 153.76 224.064 153.408 225.056H153.328V223.68H151.584V235.2ZM155.216 230.688C154.16 230.688 153.328 230.112 153.328 229.264V226.416C153.328 225.568 154.16 224.992 155.216 224.992C156.416 224.992 157.216 225.84 157.216 227.12V228.56C157.216 229.84 156.416 230.688 155.216 230.688ZM164.317 232.192C166.637 232.192 168.141 230.496 168.141 227.84C168.141 225.184 166.637 223.488 164.317 223.488C161.997 223.488 160.493 225.184 160.493 227.84C160.493 230.496 161.997 232.192 164.317 232.192ZM164.317 230.752C163.133 230.752 162.333 230.016 162.333 228.544V227.136C162.333 225.664 163.133 224.928 164.317 224.928C165.501 224.928 166.301 225.664 166.301 227.136V228.544C166.301 230.016 165.501 230.752 164.317 230.752ZM171.828 232V226.432C171.828 225.456 172.724 224.992 173.636 224.992C174.708 224.992 175.204 225.648 175.204 226.944V232H176.948V226.72C176.948 224.672 175.94 223.488 174.244 223.488C172.964 223.488 172.26 224.16 171.908 225.056H171.828V223.68H170.084V232H171.828ZM182.629 232.192C184.181 232.192 185.397 231.52 186.021 230.512L184.997 229.504C184.517 230.272 183.829 230.752 182.805 230.752C181.397 230.752 180.613 229.84 180.613 228.56V228.288H186.325V227.632C186.325 225.328 185.077 223.488 182.629 223.488C180.261 223.488 178.805 225.184 178.805 227.84C178.805 230.496 180.261 232.192 182.629 232.192ZM182.629 224.848C183.781 224.848 184.485 225.696 184.485 226.976V227.136H180.613V227.024C180.613 225.744 181.429 224.848 182.629 224.848ZM190 232V226.432C190 225.456 190.896 224.992 191.808 224.992C192.88 224.992 193.376 225.648 193.376 226.944V232H195.12V226.72C195.12 224.672 194.112 223.488 192.416 223.488C191.136 223.488 190.432 224.16 190.08 225.056H190V223.68H188.256V232H190ZM201.361 232V230.576H199.745V225.104H201.489V223.68H199.745V221.408H198.177V222.864C198.177 223.44 197.985 223.68 197.409 223.68H196.705V225.104H198.001V230.192C198.001 231.328 198.641 232 199.841 232H201.361ZM206.582 232.192C208.134 232.192 209.35 231.52 209.974 230.512L208.95 229.504C208.47 230.272 207.782 230.752 206.758 230.752C205.35 230.752 204.566 229.84 204.566 228.56V228.288H210.278V227.632C210.278 225.328 209.03 223.488 206.582 223.488C204.214 223.488 202.758 225.184 202.758 227.84C202.758 230.496 204.214 232.192 206.582 232.192ZM206.582 224.848C207.734 224.848 208.438 225.696 208.438 226.976V227.136H204.566V227.024C204.566 225.744 205.382 224.848 206.582 224.848Z" fill="#807B7B"/>
<path d="M340.806 232.192C343.366 232.192 344.854 230.8 344.854 228.72C344.854 226.944 343.846 225.952 341.622 225.52L340.63 225.312C339.43 225.072 338.854 224.672 338.854 223.744C338.854 222.768 339.59 222.24 340.87 222.24C342.102 222.24 342.902 222.72 343.478 223.472L344.742 222.352C343.878 221.248 342.646 220.64 340.966 220.64C338.598 220.64 337.062 221.856 337.062 223.84C337.062 225.616 338.166 226.624 340.326 227.024L341.318 227.2C342.614 227.456 343.062 227.952 343.062 228.816C343.062 229.888 342.326 230.592 340.902 230.592C339.686 230.592 338.758 230.096 337.974 229.136L336.726 230.304C337.654 231.456 338.934 232.192 340.806 232.192ZM350.112 232.192C351.712 232.192 352.848 231.44 353.392 230.08L352.064 229.376C351.712 230.208 351.12 230.752 350.112 230.752C348.832 230.752 348.176 229.872 348.176 228.592V227.104C348.176 225.824 348.832 224.944 350.112 224.944C351.056 224.944 351.648 225.44 351.888 226.208L353.328 225.536C352.832 224.304 351.776 223.488 350.112 223.488C347.712 223.488 346.336 225.184 346.336 227.84C346.336 230.496 347.712 232.192 350.112 232.192ZM356.797 232V226.688C356.797 225.824 357.565 225.36 358.941 225.36H359.629V223.68H359.165C357.837 223.68 357.117 224.432 356.877 225.28H356.797V223.68H355.053V232H356.797ZM364.364 232.192C365.916 232.192 367.132 231.52 367.756 230.512L366.732 229.504C366.252 230.272 365.564 230.752 364.54 230.752C363.132 230.752 362.348 229.84 362.348 228.56V228.288H368.06V227.632C368.06 225.328 366.812 223.488 364.364 223.488C361.996 223.488 360.54 225.184 360.54 227.84C360.54 230.496 361.996 232.192 364.364 232.192ZM364.364 224.848C365.516 224.848 366.22 225.696 366.22 226.976V227.136H362.348V227.024C362.348 225.744 363.164 224.848 364.364 224.848ZM373.254 232.192C374.806 232.192 376.022 231.52 376.646 230.512L375.622 229.504C375.142 230.272 374.454 230.752 373.43 230.752C372.022 230.752 371.238 229.84 371.238 228.56V228.288H376.95V227.632C376.95 225.328 375.702 223.488 373.254 223.488C370.886 223.488 369.43 225.184 369.43 227.84C369.43 230.496 370.886 232.192 373.254 232.192ZM373.254 224.848C374.406 224.848 375.11 225.696 375.11 226.976V227.136H371.238V227.024C371.238 225.744 372.054 224.848 373.254 224.848ZM380.625 232V226.432C380.625 225.456 381.521 224.992 382.433 224.992C383.505 224.992 384.001 225.648 384.001 226.944V232H385.745V226.72C385.745 224.672 384.737 223.488 383.041 223.488C381.761 223.488 381.057 224.16 380.705 225.056H380.625V223.68H378.881V232H380.625Z" fill="#807B7B"/>
<path d="M582.614 232V227.552H585.606C587.654 227.552 588.854 226.224 588.854 224.192C588.854 222.16 587.654 220.832 585.606 220.832H580.806V232H582.614ZM582.614 222.416H585.494C586.406 222.416 586.95 222.912 586.95 223.808V224.576C586.95 225.472 586.406 225.968 585.494 225.968H582.614V222.416ZM592.297 232V226.688C592.297 225.824 593.065 225.36 594.441 225.36H595.129V223.68H594.665C593.337 223.68 592.617 224.432 592.377 225.28H592.297V223.68H590.553V232H592.297ZM599.864 232.192C602.184 232.192 603.688 230.496 603.688 227.84C603.688 225.184 602.184 223.488 599.864 223.488C597.544 223.488 596.04 225.184 596.04 227.84C596.04 230.496 597.544 232.192 599.864 232.192ZM599.864 230.752C598.68 230.752 597.88 230.016 597.88 228.544V227.136C597.88 225.664 598.68 224.928 599.864 224.928C601.048 224.928 601.848 225.664 601.848 227.136V228.544C601.848 230.016 601.048 230.752 599.864 230.752ZM610.863 232H612.607V220.16H610.863V225.056H610.783C610.431 224.064 609.551 223.488 608.447 223.488C606.351 223.488 605.135 225.104 605.135 227.84C605.135 230.576 606.351 232.192 608.447 232.192C609.551 232.192 610.431 231.6 610.783 230.624H610.863V232ZM608.975 230.688C607.775 230.688 606.975 229.84 606.975 228.56V227.12C606.975 225.84 607.775 224.992 608.975 224.992C610.031 224.992 610.863 225.568 610.863 226.416V229.264C610.863 230.112 610.031 230.688 608.975 230.688ZM620.14 232H621.884V223.68H620.14V229.248C620.14 230.224 619.26 230.688 618.364 230.688C617.292 230.688 616.764 230.016 616.764 228.752V223.68H615.02V228.976C615.02 231.024 616.028 232.192 617.74 232.192C619.116 232.192 619.772 231.44 620.076 230.624H620.14V232ZM624.381 232H626.125V229.28L627.277 228.032L629.661 232H631.741L628.477 226.896L631.389 223.68H629.357L627.357 225.936L626.205 227.424H626.125V220.16H624.381V232ZM636.799 232V230.576H635.183V225.104H636.927V223.68H635.183V221.408H633.615V222.864C633.615 223.44 633.423 223.68 632.847 223.68H632.143V225.104H633.439V230.192C633.439 231.328 634.079 232 635.279 232H636.799Z" fill="#807B7B"/>
</svg>
