<svg id="Layer_1" data-name="Layer 1" xmlns="http://www.w3.org/2000/svg" viewBox="0 0 880 623.8"><defs><style>.cls-1{fill:#007fa3;}.cls-2{fill:#e5f2f6;}.cls-3{fill:#9e9e9e;}.cls-4{fill:#fff;}.cls-5{fill:#c41b36;}.cls-6{fill:#fde0e5;}.cls-7{fill:#333;}.cls-8{fill:#c00;}.cls-9{fill:#f9e0e0;}.cls-10{fill:#444;}.cls-11{fill:#d7d5d5;}.cls-12{fill:#e5e5e5;}.cls-13{fill:#f2f2f2;}</style></defs><title>colors</title><path d="M7,21.2a5.37,5.37,0,0,1-4.3-1.8A8.28,8.28,0,0,1,1.1,14a9.72,9.72,0,0,1,.4-3.1A8.36,8.36,0,0,1,2.7,8.6,4,4,0,0,1,4.5,7.2,9.35,9.35,0,0,1,7,6.8a5.57,5.57,0,0,1,3,.8A4.67,4.67,0,0,1,11.9,10L10,11A3.09,3.09,0,0,0,8.9,9.4,2.88,2.88,0,0,0,7,8.8,3.31,3.31,0,0,0,4.4,9.9a4.48,4.48,0,0,0-.9,3V15a4.48,4.48,0,0,0,.9,3A2.85,2.85,0,0,0,7,19.2a3.17,3.17,0,0,0,2-.6,4.34,4.34,0,0,0,1.2-1.7L12,18a5.88,5.88,0,0,1-2,2.4A4.82,4.82,0,0,1,7,21.2Zm11.3,0a4.48,4.48,0,0,1-2-.4,4.18,4.18,0,0,1-1.5-1.1,9.5,9.5,0,0,1-1-1.7,8,8,0,0,1-.3-2.3,7.32,7.32,0,0,1,.3-2.2,3.23,3.23,0,0,1,1-1.7,4.18,4.18,0,0,1,1.5-1.1,4.48,4.48,0,0,1,2-.4,4.48,4.48,0,0,1,2,.4,4.18,4.18,0,0,1,1.5,1.1,6.93,6.93,0,0,1,1,1.7,7.8,7.8,0,0,1,.3,2.2,8.52,8.52,0,0,1-.3,2.3,3.67,3.67,0,0,1-1,1.7,4.18,4.18,0,0,1-1.5,1.1A4.48,4.48,0,0,1,18.3,21.2Zm0-1.8a2.41,2.41,0,0,0,1.8-.7,2.82,2.82,0,0,0,.7-2.1V14.8a2.82,2.82,0,0,0-.7-2.1,2.41,2.41,0,0,0-1.8-.7,2.41,2.41,0,0,0-1.8.7,2.67,2.67,0,0,0-.7,2.1v1.8a2.82,2.82,0,0,0,.7,2.1A2.41,2.41,0,0,0,18.3,19.4ZM27.7,21a2.35,2.35,0,0,1-1.7-.6,2.07,2.07,0,0,1-.5-1.6V6.2h2.2v13h1.4V21Zm7.6.2a4.48,4.48,0,0,1-2-.4,4.18,4.18,0,0,1-1.5-1.1,9.5,9.5,0,0,1-1-1.7,8,8,0,0,1-.3-2.3,7.32,7.32,0,0,1,.3-2.2,3.23,3.23,0,0,1,1-1.7,4.18,4.18,0,0,1,1.5-1.1,5.2,5.2,0,0,1,4,0,4.18,4.18,0,0,1,1.5,1.1,6.93,6.93,0,0,1,1,1.7,7.8,7.8,0,0,1,.3,2.2,8.52,8.52,0,0,1-.3,2.3,3.67,3.67,0,0,1-1,1.7,4.18,4.18,0,0,1-1.5,1.1A4.48,4.48,0,0,1,35.3,21.2Zm0-1.8a2.41,2.41,0,0,0,1.8-.7,2.82,2.82,0,0,0,.7-2.1V14.8a2.82,2.82,0,0,0-.7-2.1,2.66,2.66,0,0,0-3.6,0,2.67,2.67,0,0,0-.7,2.1v1.8a2.82,2.82,0,0,0,.7,2.1A2.41,2.41,0,0,0,35.3,19.4ZM42.5,21V10.6h2.2v2h.1a3.07,3.07,0,0,1,.9-1.4,2.88,2.88,0,0,1,1.9-.6h.6v2.1h-.9a3.74,3.74,0,0,0-2,.4,1.31,1.31,0,0,0-.7,1.2V21Zm11,.2a6.18,6.18,0,0,1-2.5-.5,4.57,4.57,0,0,1-1.7-1.4L50.7,18A4.49,4.49,0,0,0,52,19.1a3.06,3.06,0,0,0,1.7.4,2,2,0,0,0,1.4-.4,1.39,1.39,0,0,0,.5-1,1.14,1.14,0,0,0-.3-.8,2.26,2.26,0,0,0-1.1-.5l-1-.1a4.38,4.38,0,0,1-2.5-.9,2.66,2.66,0,0,1-.9-2.2,2.5,2.5,0,0,1,.3-1.3,2.54,2.54,0,0,1,.8-1,2.73,2.73,0,0,1,1.2-.6,7.77,7.77,0,0,1,1.6-.2,5.27,5.27,0,0,1,2.3.4,6.1,6.1,0,0,1,1.6,1.2L56,13.3a3.13,3.13,0,0,0-1.1-.8,3.31,3.31,0,0,0-1.5-.4,1.7,1.7,0,0,0-1.3.4,1.09,1.09,0,0,0-.4.9,1,1,0,0,0,.4.9,3.37,3.37,0,0,0,1.2.4l1,.1a4.84,4.84,0,0,1,2.5,1,2.79,2.79,0,0,1,.8,2,3.19,3.19,0,0,1-.3,1.4,3.92,3.92,0,0,1-.8,1,4,4,0,0,1-1.3.7A3.23,3.23,0,0,1,53.5,21.2Z" transform="translate(0 -6.2)"/><path class="cls-1" d="M2,98H76a2,2,0,0,1,2,2v75a2,2,0,0,1-2,2H2a2,2,0,0,1-2-2V100A2,2,0,0,1,2,98Z" transform="translate(0 -6.2)"/><path class="cls-2" d="M84,98h74a2,2,0,0,1,2,2v75a2,2,0,0,1-2,2H84a2,2,0,0,1-2-2V100A2,2,0,0,1,84,98Z" transform="translate(0 -6.2)"/><path class="cls-3" d="M2.7,61.3V65H1V55H4.8a3.57,3.57,0,0,1,2.6.9,3.15,3.15,0,0,1,0,4.6,3.84,3.84,0,0,1-2.6.8Zm0-1.4H4.8a2,2,0,0,0,1.4-.4,1.73,1.73,0,0,0,.5-1.3,1.9,1.9,0,0,0-.5-1.3,2,2,0,0,0-1.4-.5H2.7Zm11.1-.8c-.2,0-.4-.1-.7-.1a1.39,1.39,0,0,0-1.5.9V65H9.9V57.6h1.6v.8a2.06,2.06,0,0,1,1.7-1,1.27,1.27,0,0,1,.6.1ZM16.7,65H15V57.6h1.7Zm-1.8-9.3a.85.85,0,0,1,.2-.6,1,1,0,0,1,1.4,0,.73.73,0,0,1,.2.6.73.73,0,0,1-.9.8,1.45,1.45,0,0,1-.7-.2A1.42,1.42,0,0,1,14.9,55.7Zm5.3,1.9v.8a2.58,2.58,0,0,1,2.1-.9,2,2,0,0,1,2,1.1,2.49,2.49,0,0,1,2.3-1.1,2.14,2.14,0,0,1,1.8.7,3,3,0,0,1,.6,2V65H27.3V60.2A1.1,1.1,0,0,0,26,58.9a1.22,1.22,0,0,0-.9.3,2.18,2.18,0,0,0-.5.8v5.1H23V60.2a1.16,1.16,0,0,0-1.3-1.3,1.49,1.49,0,0,0-1.4.8V65H18.6V57.6ZM35.3,65c-.1-.1-.1-.4-.2-.7a2.36,2.36,0,0,1-1.9.8,2.79,2.79,0,0,1-1.8-.6,1.86,1.86,0,0,1-.7-1.6,2,2,0,0,1,.9-1.8,4.4,4.4,0,0,1,2.5-.6h1V60a1.22,1.22,0,0,0-.3-.9,1.33,1.33,0,0,0-1-.3,1.22,1.22,0,0,0-.9.3,1,1,0,0,0-.4.7H30.8a1.5,1.5,0,0,1,.4-1.1,2.26,2.26,0,0,1,1.1-.8,4.15,4.15,0,0,1,1.6-.3,2.82,2.82,0,0,1,2.1.7,2.2,2.2,0,0,1,.8,1.8v3.3a3.51,3.51,0,0,0,.3,1.6H35.3Zm-1.8-1.2a2.92,2.92,0,0,0,.9-.2,4.35,4.35,0,0,0,.7-.6V61.6h-.9a2.65,2.65,0,0,0-1.4.3,1.05,1.05,0,0,0-.5.9,1.14,1.14,0,0,0,.3.8A2,2,0,0,0,33.5,63.8Zm8.9-4.7c-.2,0-.4-.1-.7-.1a1.39,1.39,0,0,0-1.5.9V65H38.5V57.6h1.6v.8a2.06,2.06,0,0,1,1.7-1,1.27,1.27,0,0,1,.6.1Zm3.9,3.5,1.5-5h1.8l-2.9,8.5c-.5,1.2-1.2,1.9-2.3,1.9a2.49,2.49,0,0,1-.8-.1V66.6h.3a2,2,0,0,0,.9-.2,1.58,1.58,0,0,0,.5-.8l.2-.6-2.6-7.4h1.8Z" transform="translate(0 -6.2)"/><path class="cls-4" d="M18.2,143.2c2.4,0,3.5-1.9,3.5-5.1s-1.1-5.1-3.5-5.1-3.5,1.9-3.5,5.1S15.8,143.2,18.2,143.2Zm0-1.4c-1.4,0-1.9-1.1-1.9-2.9v-1.7c0-1.7.5-2.9,1.9-2.9s1.9,1.1,1.9,2.9v1.7C20.1,140.7,19.6,141.8,18.2,141.8Zm8.4,1.4c2.4,0,3.5-1.9,3.5-5.1S29,133,26.6,133s-3.5,1.9-3.5,5.1S24.2,143.2,26.6,143.2Zm0-1.4c-1.4,0-1.9-1.1-1.9-2.9v-1.7c0-1.7.5-2.9,1.9-2.9s1.9,1.1,1.9,2.9v1.7C28.5,140.7,28,141.8,26.6,141.8Zm8.3,1.2,3.4-8.4v-1.4H31.7v3.1H33v-1.8h3.7L33.2,143Zm7.1,0v-4.3h4v-1.4H42v-2.7h4.5v-1.4H40.4V143Zm13.3,0L52,133.2H50L46.7,143h1.6l.9-2.6h3.7l.9,2.6Zm-2.9-4H49.5l1.4-4.3H51Zm5.9-1.8v1.3h1c1.2,0,1.9.5,1.9,1.5v.1a1.58,1.58,0,0,1-1.8,1.6,2.37,2.37,0,0,1-2.2-1.3l-1.2.9a3.66,3.66,0,0,0,3.3,1.8c2.1,0,3.5-1.1,3.5-2.9a2.32,2.32,0,0,0-2-2.4v-.1a2.26,2.26,0,0,0,1.9-2.2c0-1.6-1.3-2.5-3.2-2.5a3.65,3.65,0,0,0-3.1,1.6l1,.9a2.27,2.27,0,0,1,2-1.2,1.42,1.42,0,0,1,1.6,1.4v.1c0,.8-.6,1.4-1.8,1.4Z" transform="translate(0 -6.2)"/><path d="M104.7,143v-1.4H100v-2.9h4.2v-1.4H100v-2.7h4.7v-1.4H98.4V143Zm8-9.8h-5.5l-.4,5.4,1.3.2a2,2,0,0,1,1.7-.8,1.68,1.68,0,0,1,1.8,1.8v.2a1.68,1.68,0,0,1-1.8,1.8,2.4,2.4,0,0,1-2.1-1.3l-1.1.9a3.61,3.61,0,0,0,3.2,1.8,3.21,3.21,0,0,0,3.5-3.3,2.91,2.91,0,0,0-3-3.1,2,2,0,0,0-2,1.3h-.1l.3-3.5h4.3v-1.4Zm4.1,9.8v-4.3h4v-1.4h-4v-2.7h4.5v-1.4h-6.1V143Zm12.7-1.3h-4.9l2.3-2c1.3-1.1,2.3-2.1,2.3-3.7a2.79,2.79,0,0,0-3.1-2.9,3.14,3.14,0,0,0-3.3,2.4l1.4.5a1.75,1.75,0,0,1,1.8-1.5,1.45,1.45,0,0,1,1.6,1.5v.2a4,4,0,0,1-1.5,2.6l-3.1,2.8v1.5h6.6v-1.4Zm3.6,1.3v-4.3h4v-1.4h-4v-2.7h4.5v-1.4h-6.1V143Zm9.5.2a3.18,3.18,0,0,0,3.4-3.3,2.81,2.81,0,0,0-2.9-3,2.56,2.56,0,0,0-2.3,1.4h-.1c.5-2.1,1.8-3.4,4-5h-2.1a7.76,7.76,0,0,0-3.5,6.1C139.1,141.7,140.4,143.2,142.6,143.2Zm0-1.3a1.63,1.63,0,0,1-1.8-1.8v-.2a1.8,1.8,0,0,1,3.6,0v.2A1.68,1.68,0,0,1,142.6,141.9Z" transform="translate(0 -6.2)"/><path class="cls-5" d="M243,101h74a2,2,0,0,1,2,2v72a2,2,0,0,1-2,2H243a2,2,0,0,1-2-2V103A2,2,0,0,1,243,101Z" transform="translate(0 -6.2)"/><path class="cls-6" d="M325,101h74a2,2,0,0,1,2,2v72a2,2,0,0,1-2,2H325a2,2,0,0,1-2-2V103A2,2,0,0,1,325,101Z" transform="translate(0 -6.2)"/><path class="cls-3" d="M248.3,66l-.9-2.6h-3.7l-.9,2.6h-1.6l3.3-9.8h2L250,66Zm-2.7-8.3h0L244.1,62H247Zm8.7,8.5a3.19,3.19,0,0,1-1.4-.3,2,2,0,0,1-1-.8,2.28,2.28,0,0,1-.6-1.2,6.5,6.5,0,0,1,0-3.2,3.37,3.37,0,0,1,.6-1.2,3.92,3.92,0,0,1,1-.8,3.19,3.19,0,0,1,1.4-.3,3.45,3.45,0,0,1,1.8.5,2.56,2.56,0,0,1,1,1.3l-1.3.6a2.18,2.18,0,0,0-.5-.8,1.69,1.69,0,0,0-1-.3,1.73,1.73,0,0,0-1.3.5,2,2,0,0,0-.4,1.4V63a2.12,2.12,0,0,0,.4,1.4,1.73,1.73,0,0,0,1.3.5,2,2,0,0,0,1.1-.3,1.46,1.46,0,0,0,.6-.9l1.2.6a2.59,2.59,0,0,1-1.1,1.4A3.45,3.45,0,0,1,254.3,66.2Zm7.1,0a3.19,3.19,0,0,1-1.4-.3,2,2,0,0,1-1-.8,2.28,2.28,0,0,1-.6-1.2,6.5,6.5,0,0,1,0-3.2,3.37,3.37,0,0,1,.6-1.2,3.92,3.92,0,0,1,1-.8,3.19,3.19,0,0,1,1.4-.3,3.45,3.45,0,0,1,1.8.5,2.56,2.56,0,0,1,1,1.3l-1.3.6a2.18,2.18,0,0,0-.5-.8,1.69,1.69,0,0,0-1-.3,1.73,1.73,0,0,0-1.3.5,2,2,0,0,0-.4,1.4V63a2.12,2.12,0,0,0,.4,1.4,1.73,1.73,0,0,0,1.3.5,2,2,0,0,0,1.1-.3,1.46,1.46,0,0,0,.6-.9l1.2.6a2.59,2.59,0,0,1-1.1,1.4A3.45,3.45,0,0,1,261.4,66.2Zm7.2,0a3.19,3.19,0,0,1-1.4-.3,2,2,0,0,1-1-.8,3.46,3.46,0,0,1-.7-1.2,6.5,6.5,0,0,1,0-3.2,3.46,3.46,0,0,1,.7-1.2,3.92,3.92,0,0,1,1-.8,3.42,3.42,0,0,1,2.8,0,2,2,0,0,1,1,.8,2.38,2.38,0,0,1,.6,1.1,5.9,5.9,0,0,1,.2,1.4v.6h-5V63a2.17,2.17,0,0,0,.5,1.4,1.62,1.62,0,0,0,1.4.5,2,2,0,0,0,1.1-.3,3,3,0,0,0,.8-.8l.9.9a4.26,4.26,0,0,1-1.2,1.1A3.87,3.87,0,0,1,268.6,66.2Zm0-6.5a1.48,1.48,0,0,0-.7.1,2.09,2.09,0,0,0-.6.4c-.1.2-.3.4-.3.6a2,2,0,0,0-.1.8v.1h3.4v-.1a1.7,1.7,0,0,0-.4-1.3A1.76,1.76,0,0,0,268.6,59.7Zm5,6.3V58.7h1.5v1.2h.1a3.59,3.59,0,0,1,.7-1,1.84,1.84,0,0,1,1.3-.4,2.06,2.06,0,0,1,1.7.7,3.28,3.28,0,0,1,.6,2.1V66H278V61.6c0-1.1-.5-1.7-1.4-1.7a1.27,1.27,0,0,0-.6.1.76.76,0,0,0-.5.2c-.1.1-.3.2-.4.4a1.08,1.08,0,0,0-.1.6V66Zm10.3,0a1.41,1.41,0,0,1-1.6-1.6V60h-1.1V58.8h.6a.59.59,0,0,0,.5-.2.76.76,0,0,0,.2-.5V56.8h1.4v2h1.5V60h-1.5v4.8h1.4V66Z" transform="translate(0 -6.2)"/><path class="cls-4" d="M255.9,144.2a4.84,4.84,0,0,1-1.8-.3,4.19,4.19,0,0,1-1.4-.9,3.54,3.54,0,0,1-.9-1.6,7.32,7.32,0,0,1-.3-2.2,7.8,7.8,0,0,1,.3-2.2,4.17,4.17,0,0,1,.9-1.6,3.59,3.59,0,0,1,1.4-1,5.23,5.23,0,0,1,1.8-.3,3.59,3.59,0,0,1,2.2.6,3.41,3.41,0,0,1,1.4,1.7l-1.8,1a2.07,2.07,0,0,0-.6-1,1.59,1.59,0,0,0-1.2-.4,2,2,0,0,0-1.5.6,2.44,2.44,0,0,0-.6,1.8V140a2.44,2.44,0,0,0,.6,1.8,2,2,0,0,0,1.5.6,1.59,1.59,0,0,0,1.2-.4,2.29,2.29,0,0,0,.7-1l1.7,1a3.45,3.45,0,0,1-3.6,2.2Zm10-.2v-1.9h-4.3v-1.8l3.8-6.1h2.5v6.3h1.2v1.6h-1.2V144Zm-2.6-3.5h2.6v-4.1h-.1Zm8.9,3.5v-1.7h2.6v-6.6h-.1l-2,2.6-1.3-1.1,2.3-3.1h3.2v8.1H279v1.7h-6.8Zm9.4-9.7h4.7a2.49,2.49,0,0,1,1.9.7,2.41,2.41,0,0,1,.7,1.8,3,3,0,0,1-.2,1,.92.92,0,0,1-.4.6,2.09,2.09,0,0,1-.6.4,1.48,1.48,0,0,1-.7.1v.1a1.7,1.7,0,0,1,.7.1,1.61,1.61,0,0,1,.7.4,1.79,1.79,0,0,1,.5.7,3.09,3.09,0,0,1,.2,1.1,4.25,4.25,0,0,1-.2,1.1,4.05,4.05,0,0,1-.5.9,1.56,1.56,0,0,1-.8.6,3,3,0,0,1-1,.2h-5.2v-9.8Zm2.1,7.9h2.5a1.45,1.45,0,0,0,.7-.2.91.91,0,0,0,.3-.7v-.5a.6.6,0,0,0-.3-.6.84.84,0,0,0-.7-.2h-2.5Zm0-3.9h2.1a1.45,1.45,0,0,0,.7-.2.84.84,0,0,0,.2-.7V137a1.45,1.45,0,0,0-.2-.7.84.84,0,0,0-.7-.2h-2.1Zm11.1-.2a1.61,1.61,0,0,0,1.1-.3,1.23,1.23,0,0,0,.4-.8h0a1.4,1.4,0,0,0-.3-.9,1.33,1.33,0,0,0-1-.3,2,2,0,0,0-1.1.3,3.82,3.82,0,0,0-.9.9l-1.3-1.2c.2-.2.4-.5.6-.7a3,3,0,0,1,.7-.5,3.18,3.18,0,0,1,.9-.3,3.75,3.75,0,0,1,1.1-.1,5.9,5.9,0,0,1,1.4.2,3.7,3.7,0,0,1,1.1.5,2.7,2.7,0,0,1,.7.8,2,2,0,0,1,.3,1.1,1.88,1.88,0,0,1-.2.8,1.61,1.61,0,0,1-.4.7c-.2.2-.4.3-.6.5a1.85,1.85,0,0,1-.7.2v.1c.3.1.6.1.8.3a1,1,0,0,1,.6.5,1.61,1.61,0,0,1,.4.7,2.92,2.92,0,0,1,.2.9,2.66,2.66,0,0,1-.3,1.2,1.76,1.76,0,0,1-.8.9,3.37,3.37,0,0,1-1.2.6,7.72,7.72,0,0,1-1.5.2,5.07,5.07,0,0,1-1.3-.2,3,3,0,0,1-1-.4,4.35,4.35,0,0,1-.7-.6,3,3,0,0,1-.5-.7l1.6-1.2a3.92,3.92,0,0,0,.8,1,1.7,1.7,0,0,0,1.3.4,1.37,1.37,0,0,0,1.1-.4,1.16,1.16,0,0,0,.4-1v-.1a1.05,1.05,0,0,0-.5-.9,2.13,2.13,0,0,0-1.2-.3h-.9v-1.8h.9Zm10.2,6.1a4.15,4.15,0,0,1-1.6-.3,3.17,3.17,0,0,1-1.2-.8,4.73,4.73,0,0,1-.7-1.2,4.14,4.14,0,0,1-.2-1.6,5.82,5.82,0,0,1,.3-1.9,8.86,8.86,0,0,1,.8-1.7,7.55,7.55,0,0,1,1.1-1.4,4.12,4.12,0,0,1,1.3-1h2.9c-.6.4-1.1.8-1.6,1.2a6.79,6.79,0,0,0-1.2,1.2l-.9,1.2a5,5,0,0,0-.5,1.3h.1a2.19,2.19,0,0,1,.3-.5c.1-.2.3-.3.4-.5s.4-.3.6-.3.5-.1.8-.1a3.59,3.59,0,0,1,1.1.2,1.46,1.46,0,0,1,.9.6,2.07,2.07,0,0,1,.6,1,5,5,0,0,1,.2,1.2,3.19,3.19,0,0,1-.3,1.4,3,3,0,0,1-1.8,1.8A3,3,0,0,1,305,144.2Zm0-1.6a1.38,1.38,0,0,0,1.5-1.5v-.3a1.5,1.5,0,1,0-3,0v.3a1.37,1.37,0,0,0,.4,1.1A1.82,1.82,0,0,0,305,142.6Z" transform="translate(0 -6.2)"/><path class="cls-7" d="M334.1,144v-9.8h6.5v1.9h-4.4v2h3.7V140h-3.7v4Zm9.4-9.7h3.7a5.66,5.66,0,0,1,1.8.3,4.19,4.19,0,0,1,1.4.9,3.77,3.77,0,0,1,.9,1.5,7.5,7.5,0,0,1,0,4.2,3.77,3.77,0,0,1-.9,1.5,3.39,3.39,0,0,1-1.4.9,4.84,4.84,0,0,1-1.8.3h-3.7Zm3.7,7.8a2.46,2.46,0,0,0,1.5-.5,2.18,2.18,0,0,0,.5-1.7v-1.5a2.46,2.46,0,0,0-.5-1.7,2,2,0,0,0-1.5-.5h-1.6v6h1.6Zm7.3,1.9v-9.8h6.6v1.9h-4.5v2h3.9V140h-3.9v2.1h4.5V144Zm12.9.2a3.06,3.06,0,0,1-2.8-1.3,8.06,8.06,0,0,1,0-7.4,3.67,3.67,0,0,1,5.6,0,8.06,8.06,0,0,1,0,7.4A3.06,3.06,0,0,1,367.4,144.2Zm0-1.8a1.31,1.31,0,0,0,1.2-.6,4,4,0,0,0,.3-1.7v-1.8a4,4,0,0,0-.3-1.7,1.21,1.21,0,0,0-1.2-.6,1.31,1.31,0,0,0-1.2.6,4,4,0,0,0-.3,1.7v1.8a4,4,0,0,0,.3,1.7A1.31,1.31,0,0,0,367.4,142.4Zm6.5,1.6v-9.8h6.7v1.9h-4.5v2H380V140h-3.9v2.1h4.5V144Zm16-7.9h-4.4l-.2,3.1h.1l.3-.6a2.18,2.18,0,0,1,.4-.5l.6-.3a2,2,0,0,1,.8-.1,5,5,0,0,1,1.2.2,2.4,2.4,0,0,1,1.6,1.6,2.74,2.74,0,0,1,.2,1.3,3.19,3.19,0,0,1-.3,1.4,4.13,4.13,0,0,1-.7,1.1,2.4,2.4,0,0,1-1.2.7,4.15,4.15,0,0,1-1.6.3,5.07,5.07,0,0,1-1.3-.2,3,3,0,0,1-1-.4,4.35,4.35,0,0,1-.7-.6,3,3,0,0,1-.5-.7l1.5-1.2a3.92,3.92,0,0,0,.8,1,1.59,1.59,0,0,0,1.2.4,1.25,1.25,0,0,0,1.1-.4,1.5,1.5,0,0,0,.4-1.1V141a1.5,1.5,0,0,0-.4-1.1,1.37,1.37,0,0,0-1.1-.4,3,3,0,0,0-1,.2c-.2.1-.4.3-.6.4l-1.7-.2.4-5.5h6v1.7Z" transform="translate(0 -6.2)"/><path class="cls-8" d="M483,101h74a2,2,0,0,1,2,2v72a2,2,0,0,1-2,2H483a2,2,0,0,1-2-2V103A2,2,0,0,1,483,101Z" transform="translate(0 -6.2)"/><path class="cls-9" d="M565,101h74a2,2,0,0,1,2,2v72a2,2,0,0,1-2,2H565a2,2,0,0,1-2-2V103A2,2,0,0,1,565,101Z" transform="translate(0 -6.2)"/><path class="cls-3" d="M482.2,66V56.2h6.3v1.4h-4.7v2.7H488v1.4h-4.2v2.9h4.7V66Zm8.3,0V58.7H492v1.4h.1a2.07,2.07,0,0,1,.6-1,2,2,0,0,1,1.4-.4h.4v1.5h-.6a2.65,2.65,0,0,0-1.4.3,1.05,1.05,0,0,0-.5.9V66Zm5.5,0V58.7h1.5v1.4h.1a2.07,2.07,0,0,1,.6-1,2,2,0,0,1,1.4-.4h.4v1.5h-.6a2.65,2.65,0,0,0-1.4.3,1.05,1.05,0,0,0-.5.9V66Zm8.2.2a3.19,3.19,0,0,1-1.4-.3,2.84,2.84,0,0,1-1.1-.8,3.46,3.46,0,0,1-.7-1.2,4.14,4.14,0,0,1-.2-1.6,7.77,7.77,0,0,1,.2-1.6,3.46,3.46,0,0,1,.7-1.2,3.13,3.13,0,0,1,1.1-.8,3.42,3.42,0,0,1,2.8,0,2.84,2.84,0,0,1,1.1.8,3.46,3.46,0,0,1,.7,1.2,4.14,4.14,0,0,1,.2,1.6,7.77,7.77,0,0,1-.2,1.6,3.46,3.46,0,0,1-.7,1.2,3.13,3.13,0,0,1-1.1.8A3.19,3.19,0,0,1,504.2,66.2Zm0-1.3a2.11,2.11,0,0,0,1.3-.5,2.07,2.07,0,0,0,.5-1.5V61.7a2,2,0,0,0-.5-1.4,1.73,1.73,0,0,0-1.3-.5,2.11,2.11,0,0,0-1.3.5,2,2,0,0,0-.5,1.4V63a2.46,2.46,0,0,0,.5,1.5A2.84,2.84,0,0,0,504.2,64.9Zm5.1,1.1V58.7h1.5v1.4h.1a2.07,2.07,0,0,1,.6-1,2,2,0,0,1,1.4-.4h.4v1.5h-.6a2.65,2.65,0,0,0-1.4.3,1.05,1.05,0,0,0-.5.9V66Z" transform="translate(0 -6.2)"/><path class="cls-4" d="M496.1,144.2a3.9,3.9,0,0,0,3.7-2.3l-1.7-1a2,2,0,0,1-1.9,1.5c-1.2,0-2.1-.8-2.1-2.4v-1.6c0-1.5.8-2.4,2.1-2.4a1.67,1.67,0,0,1,1.8,1.4l1.8-1a3.62,3.62,0,0,0-3.7-2.3c-2.6,0-4.3,1.8-4.3,5.1S493.5,144.2,496.1,144.2Zm10.2,0a3.9,3.9,0,0,0,3.7-2.3l-1.7-1a2,2,0,0,1-1.9,1.5c-1.2,0-2.1-.8-2.1-2.4v-1.6c0-1.5.8-2.4,2.1-2.4a1.67,1.67,0,0,1,1.8,1.4l1.8-1a3.62,3.62,0,0,0-3.7-2.3c-2.6,0-4.3,1.8-4.3,5.1S503.6,144.2,506.3,144.2Zm9.5,0c2.6,0,3.8-1.9,3.8-5.1s-1.2-5.1-3.8-5.1-3.8,1.9-3.8,5.1S513.3,144.2,515.8,144.2Zm0-1.8c-1.1,0-1.5-.9-1.5-2.4v-1.8c0-1.5.4-2.4,1.5-2.4s1.5.9,1.5,2.4V140C517.3,141.6,516.9,142.4,515.8,142.4Zm9.7,1.8c2.6,0,3.8-1.9,3.8-5.1s-1.2-5.1-3.8-5.1-3.8,1.9-3.8,5.1S522.9,144.2,525.5,144.2Zm0-1.8c-1.1,0-1.5-.9-1.5-2.4v-1.8c0-1.5.4-2.4,1.5-2.4s1.5.9,1.5,2.4V140C526.9,141.6,526.6,142.4,525.5,142.4Zm9.6,1.8c2.6,0,3.8-1.9,3.8-5.1s-1.2-5.1-3.8-5.1-3.8,1.9-3.8,5.1S532.5,144.2,535.1,144.2Zm0-1.8c-1.1,0-1.5-.9-1.5-2.4v-1.8c0-1.5.4-2.4,1.5-2.4s1.5.9,1.5,2.4V140C536.6,141.6,536.2,142.4,535.1,142.4Zm9.7,1.8c2.6,0,3.8-1.9,3.8-5.1s-1.2-5.1-3.8-5.1-3.8,1.9-3.8,5.1S542.2,144.2,544.8,144.2Zm0-1.8c-1.1,0-1.5-.9-1.5-2.4v-1.8c0-1.5.4-2.4,1.5-2.4s1.5.9,1.5,2.4V140C546.2,141.6,545.9,142.4,544.8,142.4Z" transform="translate(0 -6.2)"/><path class="cls-7" d="M574.8,144v-9.8h6.5v1.9h-4.4v2h3.7V140h-3.7v4Zm16.1-6a5.82,5.82,0,0,1-.3,1.9,8.86,8.86,0,0,1-.8,1.7,7.55,7.55,0,0,1-1.1,1.4,5.3,5.3,0,0,1-1.2,1h-2.9c.6-.4,1.1-.8,1.6-1.2a6.79,6.79,0,0,0,1.2-1.2,9.38,9.38,0,0,0,.9-1.2,5,5,0,0,0,.5-1.3h-.1a2.19,2.19,0,0,1-.3.5c-.1.2-.3.3-.4.5l-.6.3a2,2,0,0,1-.8.1,3.59,3.59,0,0,1-1.1-.2,4.7,4.7,0,0,1-.9-.6,2.07,2.07,0,0,1-.6-1,5.07,5.07,0,0,1-.2-1.3,3.19,3.19,0,0,1,.3-1.4,4.13,4.13,0,0,1,.7-1.1,3.46,3.46,0,0,1,1.2-.7,4,4,0,0,1,1.5-.3,4.15,4.15,0,0,1,1.6.3,2.26,2.26,0,0,1,1.1.8,2.4,2.4,0,0,1,.7,1.2Zm-3.6,1a1.38,1.38,0,0,0,1.5-1.5v-.3a1.5,1.5,0,1,0-3,0v.3a1.37,1.37,0,0,0,.4,1.1A1.6,1.6,0,0,0,587.3,139Zm6.5,5v-9.8h6.7v1.9H596v2h3.9V140H596v2.1h4.5V144Zm12.9.2a3.06,3.06,0,0,1-2.8-1.3,8.06,8.06,0,0,1,0-7.4,3.17,3.17,0,0,1,2.8-1.3,3.06,3.06,0,0,1,2.8,1.3,8.06,8.06,0,0,1,0,7.4A3.06,3.06,0,0,1,606.7,144.2Zm0-1.8a1.31,1.31,0,0,0,1.2-.6,4,4,0,0,0,.3-1.7v-1.8a4,4,0,0,0-.3-1.7,1.21,1.21,0,0,0-1.2-.6,1.31,1.31,0,0,0-1.2.6,4,4,0,0,0-.3,1.7v1.8a4,4,0,0,0,.3,1.7A1.43,1.43,0,0,0,606.7,142.4Zm6.5,1.6v-9.8h6.7v1.9h-4.5v2h3.9V140h-3.9v2.1h4.5V144Zm12.9.2a3.06,3.06,0,0,1-2.8-1.3,8.06,8.06,0,0,1,0-7.4,3.17,3.17,0,0,1,2.8-1.3,3.06,3.06,0,0,1,2.8,1.3,8.06,8.06,0,0,1,0,7.4A3.06,3.06,0,0,1,626.1,144.2Zm0-1.8a1.31,1.31,0,0,0,1.2-.6,4,4,0,0,0,.3-1.7v-1.8a4,4,0,0,0-.3-1.7,1.21,1.21,0,0,0-1.2-.6,1.31,1.31,0,0,0-1.2.6,4,4,0,0,0-.3,1.7v1.8a4,4,0,0,0,.3,1.7A1.43,1.43,0,0,0,626.1,142.4Z" transform="translate(0 -6.2)"/><path class="cls-1" d="M723,98h74a2,2,0,0,1,2,2v75a2,2,0,0,1-2,2H723a2,2,0,0,1-2-2V100A2,2,0,0,1,723,98Z" transform="translate(0 -6.2)"/><path class="cls-3" d="M729.9,65h-1.7V60.6h-4.4V65H722V55h1.7v4.1h4.4V55h1.7V65Zm5.3.1a3.39,3.39,0,0,1-2.6-1,3.47,3.47,0,0,1-1-2.7v-.2a4.48,4.48,0,0,1,.4-2,4.07,4.07,0,0,1,1.2-1.4,3.37,3.37,0,0,1,1.7-.5,2.64,2.64,0,0,1,2.3,1A3.8,3.8,0,0,1,738,61v.7h-4.8a2,2,0,0,0,.6,1.4,1.74,1.74,0,0,0,1.4.5,2.32,2.32,0,0,0,1.9-.9l.9.9a2.94,2.94,0,0,1-1.2,1A2.35,2.35,0,0,1,735.2,65.1Zm-.2-6.3a1.43,1.43,0,0,0-1.1.5,1.9,1.9,0,0,0-.5,1.3h3.2v-.1a2.23,2.23,0,0,0-.4-1.3A1.92,1.92,0,0,0,735,58.8Zm8.9,6.2c-.1-.1-.1-.4-.2-.7a2.36,2.36,0,0,1-1.9.8,2.79,2.79,0,0,1-1.8-.6,1.86,1.86,0,0,1-.7-1.6,2,2,0,0,1,.9-1.8,4.4,4.4,0,0,1,2.5-.6h1V60a1.22,1.22,0,0,0-.3-.9,1.33,1.33,0,0,0-1-.3,1.22,1.22,0,0,0-.9.3,1,1,0,0,0-.4.7h-1.7a1.5,1.5,0,0,1,.4-1.1,2.26,2.26,0,0,1,1.1-.8,4.15,4.15,0,0,1,1.6-.3,2.82,2.82,0,0,1,2.1.7,2.2,2.2,0,0,1,.8,1.8v3.3a3.51,3.51,0,0,0,.3,1.6h-1.8Zm-1.8-1.2a2.92,2.92,0,0,0,.9-.2,4.35,4.35,0,0,0,.7-.6V61.6h-.9a2.65,2.65,0,0,0-1.4.3,1.05,1.05,0,0,0-.5.9,1.14,1.14,0,0,0,.3.8A2.92,2.92,0,0,0,742.1,63.8Zm4.8-2.6a4.34,4.34,0,0,1,.8-2.7,2.39,2.39,0,0,1,2.1-1,2.56,2.56,0,0,1,1.9.8V54.5h1.7V65h-1.5l-.1-.8a2.52,2.52,0,0,1-2,.9,2.39,2.39,0,0,1-2.1-1A5,5,0,0,1,746.9,61.2Zm1.6.2a3.21,3.21,0,0,0,.4,1.8,1.43,1.43,0,0,0,1.2.6,1.55,1.55,0,0,0,1.5-.9V59.7a1.55,1.55,0,0,0-1.5-.9,1.31,1.31,0,0,0-1.2.6A5,5,0,0,0,748.5,61.4Zm10,3.7a3.39,3.39,0,0,1-2.6-1,3.47,3.47,0,0,1-1-2.7v-.2a4.48,4.48,0,0,1,.4-2,4.07,4.07,0,0,1,1.2-1.4,3.37,3.37,0,0,1,1.7-.5,2.64,2.64,0,0,1,2.3,1,3.8,3.8,0,0,1,.8,2.7v.7h-4.8a2.59,2.59,0,0,0,.6,1.4,1.74,1.74,0,0,0,1.4.5,2.32,2.32,0,0,0,1.9-.9l.9.9a2.94,2.94,0,0,1-1.2,1A2.35,2.35,0,0,1,758.5,65.1Zm-.2-6.3a1.43,1.43,0,0,0-1.1.5,1.9,1.9,0,0,0-.5,1.3h3.2v-.1a2.23,2.23,0,0,0-.4-1.3A1.92,1.92,0,0,0,758.3,58.8Zm8.4.3c-.2,0-.4-.1-.7-.1a1.39,1.39,0,0,0-1.5.9V65h-1.7V57.6h1.6v.8a2.06,2.06,0,0,1,1.7-1,1.27,1.27,0,0,1,.6.1Z" transform="translate(0 -6.2)"/><path class="cls-4" d="M739.2,143.2c2.4,0,3.5-1.9,3.5-5.1s-1.1-5.1-3.5-5.1-3.5,1.9-3.5,5.1S736.8,143.2,739.2,143.2Zm0-1.4c-1.4,0-1.9-1.1-1.9-2.9v-1.7c0-1.7.5-2.9,1.9-2.9s1.9,1.1,1.9,2.9v1.7C741.1,140.7,740.6,141.8,739.2,141.8Zm8.4,1.4c2.4,0,3.5-1.9,3.5-5.1s-1.1-5.1-3.5-5.1-3.5,1.9-3.5,5.1S745.2,143.2,747.6,143.2Zm0-1.4c-1.4,0-1.9-1.1-1.9-2.9v-1.7c0-1.7.5-2.9,1.9-2.9s1.9,1.1,1.9,2.9v1.7C749.5,140.7,749,141.8,747.6,141.8Zm8.3,1.2,3.4-8.4v-1.4h-6.6v3.1h1.4v-1.8h3.7l-3.5,8.5Zm7.1,0v-4.3h4v-1.4h-4v-2.7h4.5v-1.4h-6.1V143Zm13.3,0-3.3-9.8h-2l-3.3,9.8h1.6l.9-2.6h3.7l.9,2.6Zm-2.9-4h-2.9l1.4-4.3h.1Zm5.9-1.8v1.3h1c1.2,0,1.9.5,1.9,1.5v.1a1.58,1.58,0,0,1-1.8,1.6,2.37,2.37,0,0,1-2.2-1.3l-1.2.9a3.66,3.66,0,0,0,3.3,1.8c2.1,0,3.5-1.1,3.5-2.9a2.32,2.32,0,0,0-2-2.4v-.1a2.26,2.26,0,0,0,1.9-2.2c0-1.6-1.3-2.5-3.2-2.5a3.65,3.65,0,0,0-3.1,1.6l1,.9a2.27,2.27,0,0,1,2-1.2,1.42,1.42,0,0,1,1.6,1.4v.1c0,.8-.6,1.4-1.8,1.4Z" transform="translate(0 -6.2)"/><path class="cls-10" d="M2,252H158a2,2,0,0,1,2,2v72a2,2,0,0,1-2,2H2a2,2,0,0,1-2-2V254A2,2,0,0,1,2,252Z" transform="translate(0 -6.2)"/><path class="cls-3" d="M1.2,207.2H5.5a2.49,2.49,0,0,1,1.9.7,2.41,2.41,0,0,1,.7,1.8,2,2,0,0,1-.2.9.92.92,0,0,1-.4.6,1.76,1.76,0,0,1-.5.4,1.27,1.27,0,0,1-.6.1v.1c.2,0,.4.1.6.1a2.51,2.51,0,0,1,.7.4,1.79,1.79,0,0,1,.5.7,3,3,0,0,1,.2,1,3.59,3.59,0,0,1-.2,1.1,4.05,4.05,0,0,1-.5.9,1.56,1.56,0,0,1-.8.6,3,3,0,0,1-1,.2H1.2Zm1.6,8.4H5.5a1.69,1.69,0,0,0,1-.3,1.22,1.22,0,0,0,.3-.9v-.5a1.22,1.22,0,0,0-.3-.9,1.49,1.49,0,0,0-1-.3H2.8Zm0-4.2H5.3a1.22,1.22,0,0,0,.9-.3,1.22,1.22,0,0,0,.3-.9v-.4a1.22,1.22,0,0,0-.3-.9,1.22,1.22,0,0,0-.9-.3H2.8Zm13,5.6a1.22,1.22,0,0,1-.9-.3,1.88,1.88,0,0,1-.4-.9h-.1a1.37,1.37,0,0,1-.8,1,2.89,2.89,0,0,1-1.4.4,2.61,2.61,0,0,1-1.8-.6,2.11,2.11,0,0,1-.6-1.6,1.82,1.82,0,0,1,.8-1.6,3.75,3.75,0,0,1,2.3-.5h1.3v-.6a1.16,1.16,0,0,0-.4-1,1.6,1.6,0,0,0-1.1-.4,2,2,0,0,0-1.1.3,2.34,2.34,0,0,0-.7.7l-.9-.8a3.18,3.18,0,0,1,1-1,2.86,2.86,0,0,1,1.7-.4,3.07,3.07,0,0,1,2.2.7,2.41,2.41,0,0,1,.8,1.9V216h.8v1.2h-.7Zm-3.1-1a2.13,2.13,0,0,0,1.2-.3,1.05,1.05,0,0,0,.5-.9v-1H13c-1.1,0-1.6.3-1.6,1v.3a.78.78,0,0,0,.3.7A3,3,0,0,0,12.7,216Zm8.3,1.2a3.19,3.19,0,0,1-1.4-.3,2,2,0,0,1-1-.8,2.28,2.28,0,0,1-.6-1.2,6.5,6.5,0,0,1,0-3.2,3.37,3.37,0,0,1,.6-1.2,3.92,3.92,0,0,1,1-.8,3.19,3.19,0,0,1,1.4-.3,3.45,3.45,0,0,1,1.8.5,2.56,2.56,0,0,1,1,1.3l-1.3.6a2.18,2.18,0,0,0-.5-.8,1.69,1.69,0,0,0-1-.3,1.73,1.73,0,0,0-1.3.5,2,2,0,0,0-.4,1.4v1.3a2.12,2.12,0,0,0,.4,1.4,1.73,1.73,0,0,0,1.3.5,2,2,0,0,0,1.1-.3,1.46,1.46,0,0,0,.6-.9l1.2.6a2.59,2.59,0,0,1-1.1,1.4A3.51,3.51,0,0,1,21,217.2Zm4.4-10.6H27V213h0l1-1.3,1.8-2h1.8l-2.5,2.8L32,217H30.2l-2.1-3.5-1,1.1V217H25.6V206.6Zm14.1,11.1a1.85,1.85,0,0,1-.9,1.7,5.06,5.06,0,0,1-2.8.6,6.62,6.62,0,0,1-1.5-.1,6.21,6.21,0,0,1-1-.3,1,1,0,0,1-.6-.5,1.85,1.85,0,0,1-.2-.7,1.22,1.22,0,0,1,.3-.9,1.93,1.93,0,0,1,.9-.5v-.2a1.05,1.05,0,0,1-.8-1.1,1,1,0,0,1,.4-.9,1.8,1.8,0,0,1,.9-.4v-.1a2.19,2.19,0,0,1-1-.9,2.77,2.77,0,0,1-.3-1.3,2.41,2.41,0,0,1,.7-1.8,2.92,2.92,0,0,1,2.2-.7,4.44,4.44,0,0,1,1.3.2v-.2a1.88,1.88,0,0,1,.2-.8.91.91,0,0,1,.7-.3h1.1v1.2H37.6v.3a3,3,0,0,1,.8.8,2,2,0,0,1,.3,1.1,2.5,2.5,0,0,1-.8,1.8,3.39,3.39,0,0,1-2.2.7,3.08,3.08,0,0,1-1-.1,2.19,2.19,0,0,0-.5.3.76.76,0,0,0-.2.4c0,.2.1.3.3.4a1.72,1.72,0,0,0,.8.1H37a3.09,3.09,0,0,1,1.9.5A2.93,2.93,0,0,1,39.5,217.7Zm-1.4.2a.6.6,0,0,0-.3-.6,2.15,2.15,0,0,0-1-.2H34.3a1,1,0,0,0-.5.8.75.75,0,0,0,.4.7,1.74,1.74,0,0,0,1.2.3h1C37.5,218.9,38.1,218.5,38.1,217.9Zm-2.3-4.5a1.49,1.49,0,0,0,1-.3,1,1,0,0,0,.4-.9v-.3a1,1,0,0,0-.4-.9,1.49,1.49,0,0,0-1-.3,2,2,0,0,0-1.1.3,1.27,1.27,0,0,0-.4.9v.3a1,1,0,0,0,.4.9A1.8,1.8,0,0,0,35.8,213.4Zm4.9,3.6v-7.3h1.5v1.4h.1a2.07,2.07,0,0,1,.6-1,2,2,0,0,1,1.4-.4h.4v1.5h-.6a2.65,2.65,0,0,0-1.4.3,1.05,1.05,0,0,0-.5.9V217Zm8.3.2a3.19,3.19,0,0,1-1.4-.3,2,2,0,0,1-1-.8,3.46,3.46,0,0,1-.7-1.2,4.14,4.14,0,0,1-.2-1.6,7.77,7.77,0,0,1,.2-1.6,3.46,3.46,0,0,1,.7-1.2,3.92,3.92,0,0,1,1-.8,3.42,3.42,0,0,1,2.8,0,2.84,2.84,0,0,1,1.1.8,3.46,3.46,0,0,1,.7,1.2,4.14,4.14,0,0,1,.2,1.6,7.77,7.77,0,0,1-.2,1.6,3.46,3.46,0,0,1-.7,1.2,3.13,3.13,0,0,1-1.1.8A3.53,3.53,0,0,1,49,217.2Zm0-1.3a2.11,2.11,0,0,0,1.3-.5,2.07,2.07,0,0,0,.5-1.5v-1.2a2,2,0,0,0-.5-1.4,1.73,1.73,0,0,0-1.3-.5,2.11,2.11,0,0,0-1.3.5,2,2,0,0,0-.5,1.4v1.2a2.46,2.46,0,0,0,.5,1.5A1.9,1.9,0,0,0,49,215.9Zm9.5-.1h0c-.1.2-.2.3-.3.5a.78.78,0,0,1-.4.4l-.6.3a2,2,0,0,1-.8.1,2.27,2.27,0,0,1-1.8-.7,3.28,3.28,0,0,1-.6-2.1v-4.6h1.5v4.4c0,1.1.5,1.7,1.4,1.7a1.27,1.27,0,0,0,.6-.1c.2-.1.4-.1.5-.2s.3-.2.3-.4a1.08,1.08,0,0,0,.1-.6v-4.9h1.5v7.3H58.4v-1.1Zm3.8,1.2v-7.3h1.5v1.2h.1a3.59,3.59,0,0,1,.7-1,1.84,1.84,0,0,1,1.3-.4,2.06,2.06,0,0,1,1.7.7,3.28,3.28,0,0,1,.6,2.1v4.6H66.7v-4.4c0-1.1-.5-1.7-1.4-1.7a1.27,1.27,0,0,0-.6.1.76.76,0,0,0-.5.2c-.1.1-.3.2-.4.4a1.08,1.08,0,0,0-.1.6V217Zm12.8-1.2h0a2.19,2.19,0,0,1-.9,1,2.84,2.84,0,0,1-1.3.4,2.39,2.39,0,0,1-2.1-1,5.3,5.3,0,0,1,0-5.6,2.39,2.39,0,0,1,2.1-1A2.24,2.24,0,0,1,75,211h.1v-4.3h1.5V217H75.1Zm-1.6.1a2.13,2.13,0,0,0,1.2-.3,1.05,1.05,0,0,0,.5-.9v-2.5a1.05,1.05,0,0,0-.5-.9,2.14,2.14,0,0,0-1.2-.4,1.71,1.71,0,0,0-1.8,1.8V214a2.17,2.17,0,0,0,.5,1.4A1.9,1.9,0,0,0,73.5,215.9Zm8.6,1.1v-1.3h1.3v-7.2H82.1v-1.3h4.3v1.3H85v7.2h1.3V217Zm6.2,0v-7.3h1.5v1.2h.1a3.59,3.59,0,0,1,.7-1,1.84,1.84,0,0,1,1.3-.4,2.06,2.06,0,0,1,1.7.7,3.28,3.28,0,0,1,.6,2.1v4.6H92.7v-4.4c0-1.1-.5-1.7-1.4-1.7a1.27,1.27,0,0,0-.6.1.76.76,0,0,0-.5.2c-.1.1-.3.2-.4.4a1.08,1.08,0,0,0-.1.6V217Zm8.6-6H95.8v-1.2h1.1v-1.2a2.17,2.17,0,0,1,.5-1.4,2,2,0,0,1,1.4-.5H100v1.2H98.5v1.8H100v1.2H98.5v6H97V211Zm7.3,6.2a3.19,3.19,0,0,1-1.4-.3,2,2,0,0,1-1-.8,3.46,3.46,0,0,1-.7-1.2,4.14,4.14,0,0,1-.2-1.6,7.77,7.77,0,0,1,.2-1.6,3.46,3.46,0,0,1,.7-1.2,3.92,3.92,0,0,1,1-.8,3.42,3.42,0,0,1,2.8,0,2.84,2.84,0,0,1,1.1.8,3.46,3.46,0,0,1,.7,1.2,4.14,4.14,0,0,1,.2,1.6,7.77,7.77,0,0,1-.2,1.6,3.46,3.46,0,0,1-.7,1.2,3.13,3.13,0,0,1-1.1.8A3.53,3.53,0,0,1,104.2,217.2Zm0-1.3a2.11,2.11,0,0,0,1.3-.5,2.07,2.07,0,0,0,.5-1.5v-1.2a2,2,0,0,0-.5-1.4,1.73,1.73,0,0,0-1.3-.5,2.11,2.11,0,0,0-1.3.5,2,2,0,0,0-.5,1.4v1.2a2.46,2.46,0,0,0,.5,1.5A1.73,1.73,0,0,0,104.2,215.9Z" transform="translate(0 -6.2)"/><path class="cls-4" d="M56.4,295v-1.9H52.1v-1.8l3.8-6.1h2.5v6.3h1.2v1.6H58.4V295Zm-2.6-3.5h2.6v-4.1h-.1ZM66.1,295v-1.9H61.8v-1.8l3.8-6.1h2.5v6.3h1.2v1.6H68.1V295Zm-2.7-3.5H66v-4.1h-.1ZM75.7,295v-1.9H71.4v-1.8l3.8-6.1h2.5v6.3h1.2v1.6H77.7V295Zm-2.6-3.5h2.6v-4.1h-.1ZM85.3,295v-1.9H81v-1.8l3.8-6.1h2.5v6.3h1.2v1.6H87.3V295Zm-2.6-3.5h2.6v-4.1h-.1ZM95,295v-1.9H90.7v-1.8l3.8-6.1H97v6.3h1.2v1.6H97V295Zm-2.6-3.5H95v-4.1h-.1Zm12.2,3.5v-1.9h-4.3v-1.8l3.8-6.1h2.5v6.3h1.2v1.6h-1.2V295Zm-2.6-3.5h2.6v-4.1h-.1Z" transform="translate(0 -6.2)"/><path d="M2,400H158a2,2,0,0,1,2,2v75a2,2,0,0,1-2,2H2a2,2,0,0,1-2-2V402A2,2,0,0,1,2,400Z" transform="translate(0 -6.2)"/><path class="cls-3" d="M8.2,358.4H5.1V367H3.4v-8.6H.3V357H8.2Zm3.9,8.7a3.39,3.39,0,0,1-2.6-1,3.47,3.47,0,0,1-1-2.7v-.2a4.48,4.48,0,0,1,.4-2,4.07,4.07,0,0,1,1.2-1.4,3.37,3.37,0,0,1,1.7-.5,2.64,2.64,0,0,1,2.3,1,3.8,3.8,0,0,1,.8,2.7v.7H10.1a2.59,2.59,0,0,0,.6,1.4,1.74,1.74,0,0,0,1.4.5,2.32,2.32,0,0,0,1.9-.9l.9.9a2.94,2.94,0,0,1-1.2,1A2.2,2.2,0,0,1,12.1,367.1Zm-.2-6.3a1.43,1.43,0,0,0-1.1.5,1.9,1.9,0,0,0-.5,1.3h3.2v-.1a2.23,2.23,0,0,0-.4-1.3A1.75,1.75,0,0,0,11.9,360.8Zm7.2,1.2,1.4-2.4h1.8L20,363.2l2.3,3.8H20.5L19,364.5,17.5,367H15.7l2.3-3.8-2.3-3.6h1.8Zm6.6-4.2v1.8H27v1.2H25.7v4.1a.71.71,0,0,0,.8.8,1.27,1.27,0,0,0,.6-.1v1.3a4.25,4.25,0,0,1-1.1.2c-1.3,0-1.9-.7-1.9-2.1v-4.2H22.9v-1.2H24v-1.8Z" transform="translate(0 -6.2)"/><path class="cls-4" d="M59,445.2a4.15,4.15,0,0,1-1.6-.3,3.46,3.46,0,0,1-1.1-1,3.82,3.82,0,0,1-.6-1.6,11.13,11.13,0,0,1,0-4.2,5.94,5.94,0,0,1,.6-1.6,3.46,3.46,0,0,1,1.1-1,3.77,3.77,0,0,1,1.6-.4,3,3,0,0,1,2.7,1.3,8.06,8.06,0,0,1,0,7.4A3.07,3.07,0,0,1,59,445.2Zm0-1.4a2.92,2.92,0,0,0,.9-.2,1.7,1.7,0,0,0,.6-.6,3.18,3.18,0,0,0,.3-.9,4.48,4.48,0,0,0,.1-1.2v-1.7a4.87,4.87,0,0,0-.1-1.2,4.65,4.65,0,0,0-.3-.9c-.1-.3-.3-.4-.6-.6a2,2,0,0,0-.9-.2,2.92,2.92,0,0,0-.9.2,1.7,1.7,0,0,0-.6.6,3.18,3.18,0,0,0-.3.9,4.12,4.12,0,0,0-.1,1.2v1.7a4.87,4.87,0,0,0,.1,1.2l.3.9c.1.3.3.4.6.6A1.49,1.49,0,0,0,59,443.8Zm8.4,1.4a4.15,4.15,0,0,1-1.6-.3,3.46,3.46,0,0,1-1.1-1,3.82,3.82,0,0,1-.6-1.6,11.13,11.13,0,0,1,0-4.2,5.94,5.94,0,0,1,.6-1.6,3.46,3.46,0,0,1,1.1-1,3.77,3.77,0,0,1,1.6-.4,3,3,0,0,1,2.7,1.3,8.06,8.06,0,0,1,0,7.4A3.07,3.07,0,0,1,67.4,445.2Zm0-1.4a2.92,2.92,0,0,0,.9-.2,1.7,1.7,0,0,0,.6-.6,3.18,3.18,0,0,0,.3-.9,4.48,4.48,0,0,0,.1-1.2v-1.7a4.87,4.87,0,0,0-.1-1.2,4.65,4.65,0,0,0-.3-.9c-.1-.3-.3-.4-.6-.6a2,2,0,0,0-.9-.2,2.92,2.92,0,0,0-.9.2,1.7,1.7,0,0,0-.6.6,3.18,3.18,0,0,0-.3.9,4.12,4.12,0,0,0-.1,1.2v1.7a4.87,4.87,0,0,0,.1,1.2l.3.9c.1.3.3.4.6.6A1.49,1.49,0,0,0,67.4,443.8Zm8.4,1.4a4.15,4.15,0,0,1-1.6-.3,3.46,3.46,0,0,1-1.1-1,3.82,3.82,0,0,1-.6-1.6,11.13,11.13,0,0,1,0-4.2,5.94,5.94,0,0,1,.6-1.6,3.46,3.46,0,0,1,1.1-1,3.77,3.77,0,0,1,1.6-.4,3,3,0,0,1,2.7,1.3,8.06,8.06,0,0,1,0,7.4A3.07,3.07,0,0,1,75.8,445.2Zm0-1.4a2.92,2.92,0,0,0,.9-.2,1.7,1.7,0,0,0,.6-.6,3.18,3.18,0,0,0,.3-.9,4.48,4.48,0,0,0,.1-1.2v-1.7a4.87,4.87,0,0,0-.1-1.2,4.65,4.65,0,0,0-.3-.9c-.1-.3-.3-.4-.6-.6a2,2,0,0,0-.9-.2,2.92,2.92,0,0,0-.9.2,1.7,1.7,0,0,0-.6.6,3.18,3.18,0,0,0-.3.9,4.12,4.12,0,0,0-.1,1.2v1.7a4.87,4.87,0,0,0,.1,1.2l.3.9c.1.3.3.4.6.6A1.49,1.49,0,0,0,75.8,443.8Zm8.4,1.4a4.15,4.15,0,0,1-1.6-.3,3.46,3.46,0,0,1-1.1-1,3.82,3.82,0,0,1-.6-1.6,11.13,11.13,0,0,1,0-4.2,5.94,5.94,0,0,1,.6-1.6,3.46,3.46,0,0,1,1.1-1,3.77,3.77,0,0,1,1.6-.4,3,3,0,0,1,2.7,1.3,8.06,8.06,0,0,1,0,7.4A3.07,3.07,0,0,1,84.2,445.2Zm0-1.4a2.92,2.92,0,0,0,.9-.2,1.7,1.7,0,0,0,.6-.6,3.18,3.18,0,0,0,.3-.9,4.48,4.48,0,0,0,.1-1.2v-1.7A4.87,4.87,0,0,0,86,438a4.65,4.65,0,0,0-.3-.9c-.1-.3-.3-.4-.6-.6a2,2,0,0,0-.9-.2,2.92,2.92,0,0,0-.9.2,1.7,1.7,0,0,0-.6.6,3.18,3.18,0,0,0-.3.9,4.12,4.12,0,0,0-.1,1.2v1.7a4.87,4.87,0,0,0,.1,1.2l.3.9c.1.3.3.4.6.6A1.49,1.49,0,0,0,84.2,443.8Zm8.4,1.4a4.15,4.15,0,0,1-1.6-.3,3.46,3.46,0,0,1-1.1-1,3.82,3.82,0,0,1-.6-1.6,11.13,11.13,0,0,1,0-4.2,5.94,5.94,0,0,1,.6-1.6,3.46,3.46,0,0,1,1.1-1,3.77,3.77,0,0,1,1.6-.4,3,3,0,0,1,2.7,1.3,8.06,8.06,0,0,1,0,7.4A3.07,3.07,0,0,1,92.6,445.2Zm0-1.4a2.92,2.92,0,0,0,.9-.2,1.7,1.7,0,0,0,.6-.6,3.18,3.18,0,0,0,.3-.9,4.48,4.48,0,0,0,.1-1.2v-1.7a4.87,4.87,0,0,0-.1-1.2,4.65,4.65,0,0,0-.3-.9c-.1-.3-.3-.4-.6-.6a2,2,0,0,0-.9-.2,2.39,2.39,0,0,0-.9.2,1.7,1.7,0,0,0-.6.6,3.18,3.18,0,0,0-.3.9,4.12,4.12,0,0,0-.1,1.2v1.7a4.87,4.87,0,0,0,.1,1.2l.3.9c.1.3.3.4.6.6A1.49,1.49,0,0,0,92.6,443.8Zm8.4,1.4a4.15,4.15,0,0,1-1.6-.3,3.46,3.46,0,0,1-1.1-1,3.82,3.82,0,0,1-.6-1.6,11.13,11.13,0,0,1,0-4.2,5.94,5.94,0,0,1,.6-1.6,3.46,3.46,0,0,1,1.1-1,3.77,3.77,0,0,1,1.6-.4,3,3,0,0,1,2.7,1.3,8.06,8.06,0,0,1,0,7.4A3.07,3.07,0,0,1,101,445.2Zm0-1.4a2.92,2.92,0,0,0,.9-.2,1.7,1.7,0,0,0,.6-.6,3.18,3.18,0,0,0,.3-.9,4.48,4.48,0,0,0,.1-1.2v-1.7a4.87,4.87,0,0,0-.1-1.2,4.65,4.65,0,0,0-.3-.9c-.1-.3-.3-.4-.6-.6a2,2,0,0,0-.9-.2,2.39,2.39,0,0,0-.9.2,1.7,1.7,0,0,0-.6.6,3.18,3.18,0,0,0-.3.9,4.12,4.12,0,0,0-.1,1.2v1.7a4.87,4.87,0,0,0,.1,1.2l.3.9c.1.3.3.4.6.6A1.49,1.49,0,0,0,101,443.8Z" transform="translate(0 -6.2)"/><path class="cls-4" d="M242,400H398a2,2,0,0,1,2,2v75a2,2,0,0,1-2,2H242a2,2,0,0,1-2-2V402A2,2,0,0,1,242,400Z" transform="translate(0 -6.2)"/><path class="cls-3" d="M248.2,358.4h-3.1V367h-1.7v-8.6h-3.1V357h7.9v1.4Zm3.9,8.7a3.39,3.39,0,0,1-2.6-1,3.47,3.47,0,0,1-1-2.7v-.2a4.48,4.48,0,0,1,.4-2,4.07,4.07,0,0,1,1.2-1.4,3.37,3.37,0,0,1,1.7-.5,2.64,2.64,0,0,1,2.3,1,3.8,3.8,0,0,1,.8,2.7v.7h-4.8a2.59,2.59,0,0,0,.6,1.4,1.74,1.74,0,0,0,1.4.5,2.32,2.32,0,0,0,1.9-.9l.9.9a2.94,2.94,0,0,1-1.2,1A2.2,2.2,0,0,1,252.1,367.1Zm-.2-6.3a1.43,1.43,0,0,0-1.1.5,1.9,1.9,0,0,0-.5,1.3h3.2v-.1a2.23,2.23,0,0,0-.4-1.3A1.75,1.75,0,0,0,251.9,360.8Zm7.2,1.2,1.4-2.4h1.8l-2.3,3.6,2.3,3.8h-1.8l-1.5-2.5-1.5,2.5h-1.8l2.3-3.8-2.3-3.6h1.8Zm6.6-4.2v1.8H267v1.2h-1.3v4.1a.71.71,0,0,0,.8.8,1.27,1.27,0,0,0,.6-.1v1.3a4.25,4.25,0,0,1-1.1.2c-1.3,0-1.9-.7-1.9-2.1v-4.2h-1.2v-1.2h1.2v-1.8Z" transform="translate(0 -6.2)"/><path d="M297.3,445v-9.8h6.1v1.4h-4.5v2.7h4v1.4h-4V445Zm7.9,0v-9.8h6.1v1.4h-4.5v2.7h4v1.4h-4V445Zm8,0v-9.8h6.1v1.4h-4.5v2.7h4v1.4h-4V445Zm8,0v-9.8h6.1v1.4h-4.5v2.7h4v1.4h-4V445Zm8,0v-9.8h6.1v1.4h-4.5v2.7h4v1.4h-4V445Zm8,0v-9.8h6.1v1.4h-4.5v2.7h4v1.4h-4V445Z" transform="translate(0 -6.2)"/><path class="cls-11" d="M482,400H638a2,2,0,0,1,2,2v75a2,2,0,0,1-2,2H482a2,2,0,0,1-2-2V402A2,2,0,0,1,482,400Z" transform="translate(0 -6.2)"/><path class="cls-3" d="M481,367V357h2.9a4.14,4.14,0,0,1,2.3.6,3.78,3.78,0,0,1,1.6,1.7,5.14,5.14,0,0,1,.6,2.5v.5a5.14,5.14,0,0,1-.6,2.5,4.36,4.36,0,0,1-1.6,1.7,4.75,4.75,0,0,1-2.4.6H481Zm1.7-8.6v7.2h1.1a2.86,2.86,0,0,0,2.1-.8,3.61,3.61,0,0,0,.7-2.4v-.6a3.73,3.73,0,0,0-.7-2.5,2.52,2.52,0,0,0-2-.9Zm9.2,8.6h-1.7v-7.4h1.7Zm-1.8-9.3a.85.85,0,0,1,.2-.6,1,1,0,0,1,1.4,0,.73.73,0,0,1,.2.6,1.07,1.07,0,0,1-.2.6.84.84,0,0,1-.7.2,1.45,1.45,0,0,1-.7-.2A1.42,1.42,0,0,1,490.1,357.7Zm7.8,7.3a.75.75,0,0,0-.4-.7,2.35,2.35,0,0,0-1.2-.4,4.57,4.57,0,0,1-1.4-.5,1.89,1.89,0,0,1-1.2-1.7,2.09,2.09,0,0,1,.8-1.6,3.28,3.28,0,0,1,2.1-.6,2.82,2.82,0,0,1,2.1.7,2.14,2.14,0,0,1,.8,1.7h-1.7a.91.91,0,0,0-.4-.8,1.4,1.4,0,0,0-.9-.3,1.22,1.22,0,0,0-.9.3.91.91,0,0,0-.3.7.6.6,0,0,0,.3.6,3.93,3.93,0,0,0,1.3.4,3.71,3.71,0,0,1,1.5.5,1.85,1.85,0,0,1,.8.7,1.69,1.69,0,0,1,.3,1,1.94,1.94,0,0,1-.8,1.6,3.8,3.8,0,0,1-2.2.6,4.15,4.15,0,0,1-1.6-.3,2.44,2.44,0,0,1-1.1-.9,1.92,1.92,0,0,1-.4-1.2H495a1.27,1.27,0,0,0,.4.9,1.8,1.8,0,0,0,1.1.3,2.51,2.51,0,0,0,1-.2A1,1,0,0,0,497.9,365Zm7.6,2c-.1-.1-.1-.4-.2-.7a2.36,2.36,0,0,1-1.9.8,2.79,2.79,0,0,1-1.8-.6,1.86,1.86,0,0,1-.7-1.6,2,2,0,0,1,.9-1.8,4.4,4.4,0,0,1,2.5-.6h1V362a1.22,1.22,0,0,0-.3-.9,1.33,1.33,0,0,0-1-.3,1.22,1.22,0,0,0-.9.3,1,1,0,0,0-.4.7H501a1.5,1.5,0,0,1,.4-1.1,2.26,2.26,0,0,1,1.1-.8,4.15,4.15,0,0,1,1.6-.3,2.82,2.82,0,0,1,2.1.7,2.2,2.2,0,0,1,.8,1.8v3.3a3.51,3.51,0,0,0,.3,1.6v.1h-1.8Zm-1.8-1.2a2.92,2.92,0,0,0,.9-.2,4.35,4.35,0,0,0,.7-.6v-1.4h-.9a2.65,2.65,0,0,0-1.4.3,1.05,1.05,0,0,0-.5.9,1.14,1.14,0,0,0,.3.8A2.92,2.92,0,0,0,503.7,365.8Zm11.6-2.4a4.34,4.34,0,0,1-.8,2.7,2.69,2.69,0,0,1-4.1.1l-.1.8h-1.5V356.5h1.7v3.8a2.24,2.24,0,0,1,1.9-.8,2.39,2.39,0,0,1,2.1,1,4.56,4.56,0,0,1,.8,2.9Zm-1.7-.2a3,3,0,0,0-.4-1.8,1.43,1.43,0,0,0-1.2-.6,1.55,1.55,0,0,0-1.5.9v3a1.64,1.64,0,0,0,1.5,1,1.43,1.43,0,0,0,1.2-.6,3,3,0,0,0,.4-1.8Zm4.9,3.8h-1.7V356.5h1.7Zm5.2.1a3.39,3.39,0,0,1-2.6-1,3.47,3.47,0,0,1-1-2.7v-.2a4.48,4.48,0,0,1,.4-2,4.07,4.07,0,0,1,1.2-1.4,3.37,3.37,0,0,1,1.7-.5,2.64,2.64,0,0,1,2.3,1,3.8,3.8,0,0,1,.8,2.7v.7h-4.8a2,2,0,0,0,.6,1.4,1.74,1.74,0,0,0,1.4.5,2.32,2.32,0,0,0,1.9-.9l.9.9a2.94,2.94,0,0,1-1.2,1A2.2,2.2,0,0,1,523.7,367.1Zm-.2-6.3a1.43,1.43,0,0,0-1.1.5,1.9,1.9,0,0,0-.5,1.3h3.2v-.1a2.23,2.23,0,0,0-.4-1.3A1.75,1.75,0,0,0,523.5,360.8Zm4.3,2.4a4.34,4.34,0,0,1,.8-2.7,2.39,2.39,0,0,1,2.1-1,2.56,2.56,0,0,1,1.9.8v-3.8h1.7V367h-1.5l-.1-.8a2.52,2.52,0,0,1-2,.9,2.39,2.39,0,0,1-2.1-1A4.35,4.35,0,0,1,527.8,363.2Zm1.6.2a3.21,3.21,0,0,0,.4,1.8,1.43,1.43,0,0,0,1.2.6,1.55,1.55,0,0,0,1.5-.9v-3.2a1.55,1.55,0,0,0-1.5-.9,1.31,1.31,0,0,0-1.2.6A5,5,0,0,0,529.4,363.4Z" transform="translate(0 -6.2)"/><path class="cls-4" d="M534.3,445h3.5c2.5,0,4.1-1.6,4.1-4.9s-1.6-4.9-4.1-4.9h-3.5Zm1.6-1.4v-7h1.9c1.5,0,2.4.9,2.4,2.7v1.6c0,1.8-1,2.7-2.4,2.7Zm10.8,1.4,3.4-8.4v-1.4h-6.6v3.1h1.4v-1.8h3.7L545,445Zm5.5,0h3.5c2.5,0,4.1-1.6,4.1-4.9s-1.6-4.9-4.1-4.9h-3.5Zm1.6-1.4v-7h1.9c1.5,0,2.4.9,2.4,2.7v1.6c0,1.8-1,2.7-2.4,2.7Zm13.9-8.4h-5.5l-.4,5.4,1.3.2a2.13,2.13,0,0,1,1.7-.8,1.68,1.68,0,0,1,1.8,1.8v.2a1.68,1.68,0,0,1-1.8,1.8,2.4,2.4,0,0,1-2.1-1.3l-1.1.9a3.61,3.61,0,0,0,3.2,1.8,3.21,3.21,0,0,0,3.5-3.3,2.91,2.91,0,0,0-3-3.1,2,2,0,0,0-2,1.3h-.1l.3-3.5h4.3v-1.4Zm2.5,9.8h3.5c2.5,0,4.1-1.6,4.1-4.9s-1.6-4.9-4.1-4.9h-3.5Zm1.6-1.4v-7h1.9c1.5,0,2.4.9,2.4,2.7v1.6c0,1.8-1,2.7-2.4,2.7Zm13.8-8.4h-5.5l-.4,5.4,1.3.2a2,2,0,0,1,1.7-.8,1.68,1.68,0,0,1,1.8,1.8v.2a1.68,1.68,0,0,1-1.8,1.8,2.4,2.4,0,0,1-2.1-1.3l-1.1.9a3.61,3.61,0,0,0,3.2,1.8,3.21,3.21,0,0,0,3.5-3.3,2.91,2.91,0,0,0-3-3.1,2,2,0,0,0-2,1.3h-.1l.3-3.5h4.3v-1.4Z" transform="translate(0 -6.2)"/><path class="cls-3" d="M722,400H878a2,2,0,0,1,2,2v75a2,2,0,0,1-2,2H722a2,2,0,0,1-2-2V402A2,2,0,0,1,722,400Z" transform="translate(0 -6.2)"/><path class="cls-3" d="M722.8,367h-1.7V357h1.7Zm3.6-7.4v.9a2.57,2.57,0,0,1,2.2-1c1.5,0,2.3.9,2.4,2.6V367h-1.7v-4.8a1.1,1.1,0,0,0-1.3-1.3,1.55,1.55,0,0,0-1.5.9v5.3h-1.7v-7.4h1.6Zm10.8,7.4c-.1-.1-.1-.4-.2-.7a2.36,2.36,0,0,1-1.9.8,2.79,2.79,0,0,1-1.8-.6,1.86,1.86,0,0,1-.7-1.6,2,2,0,0,1,.9-1.8,4.4,4.4,0,0,1,2.5-.6h1V362a1.22,1.22,0,0,0-.3-.9,1.33,1.33,0,0,0-1-.3,1.22,1.22,0,0,0-.9.3,1,1,0,0,0-.4.7h-1.7a1.5,1.5,0,0,1,.4-1.1,2.26,2.26,0,0,1,1.1-.8,4.15,4.15,0,0,1,1.6-.3,2.82,2.82,0,0,1,2.1.7,2.2,2.2,0,0,1,.8,1.8v3.3a3.51,3.51,0,0,0,.3,1.6v.1h-1.8Zm-1.8-1.2a2.92,2.92,0,0,0,.9-.2,4.35,4.35,0,0,0,.7-.6v-1.4h-.9a2.65,2.65,0,0,0-1.4.3,1.05,1.05,0,0,0-.5.9,1.14,1.14,0,0,0,.3.8A2,2,0,0,0,735.4,365.8Zm8.1,0a1.16,1.16,0,0,0,1-.4,1,1,0,0,0,.4-.9h1.6a2.84,2.84,0,0,1-.4,1.3,2.44,2.44,0,0,1-1.1.9,4,4,0,0,1-1.5.3,3.17,3.17,0,0,1-2.5-1,4.1,4.1,0,0,1-.9-2.8V363a4,4,0,0,1,.9-2.7,3,3,0,0,1,2.5-1,2.91,2.91,0,0,1,3,2.8H745a1.53,1.53,0,0,0-.4-1,1.28,1.28,0,0,0-1-.4,1.31,1.31,0,0,0-1.2.6,3,3,0,0,0-.4,1.8v.3a3,3,0,0,0,.4,1.8C742.5,365.6,743,365.8,743.5,365.8Zm6.5-8v1.8h1.3v1.2H750v4.1a.71.71,0,0,0,.8.8,1.27,1.27,0,0,0,.6-.1v1.3a4.25,4.25,0,0,1-1.1.2c-1.3,0-1.9-.7-1.9-2.1v-4.2h-1.2v-1.2h1.2v-1.8Zm4.4,9.2h-1.7v-7.4h1.7Zm-1.7-9.3a.85.85,0,0,1,.2-.6,1,1,0,0,1,1.4,0,.73.73,0,0,1,.2.6,1.07,1.07,0,0,1-.2.6.84.84,0,0,1-.7.2,1.45,1.45,0,0,1-.7-.2A.73.73,0,0,1,752.7,357.7Zm6.3,7.2,1.6-5.3h1.7l-2.6,7.4h-1.4l-2.6-7.4h1.7Zm7.5,2.2a3.39,3.39,0,0,1-2.6-1,3.47,3.47,0,0,1-1-2.7v-.2a4.48,4.48,0,0,1,.4-2,4.07,4.07,0,0,1,1.2-1.4,3.37,3.37,0,0,1,1.7-.5,2.64,2.64,0,0,1,2.3,1,3.8,3.8,0,0,1,.8,2.7v.7h-4.8a2,2,0,0,0,.6,1.4,1.74,1.74,0,0,0,1.4.5,2.32,2.32,0,0,0,1.9-.9l.9.9a2.94,2.94,0,0,1-1.2,1A2.07,2.07,0,0,1,766.5,367.1Zm-.2-6.3a1.43,1.43,0,0,0-1.1.5,1.9,1.9,0,0,0-.5,1.3h3.2v-.1a2.23,2.23,0,0,0-.4-1.3A1.59,1.59,0,0,0,766.3,360.8Z" transform="translate(0 -6.2)"/><path class="cls-4" d="M782.6,438.9c0-2.3-1.3-3.8-3.4-3.8a3.18,3.18,0,0,0-3.4,3.3,2.81,2.81,0,0,0,2.9,3A2.56,2.56,0,0,0,781,440h.1c-.5,2.1-1.8,3.4-4,5h2.1A8,8,0,0,0,782.6,438.9Zm-3.5,1.2a1.63,1.63,0,0,1-1.8-1.8v-.2a1.8,1.8,0,1,1,3.6,0v.2A1.59,1.59,0,0,1,779.1,440.1Zm11.7,4.9v-1.4h-4.7v-2.9h4.2v-1.4h-4.2v-2.7h4.7v-1.4h-6.3V445Zm8.5-6.1c0-2.3-1.3-3.8-3.4-3.8a3.18,3.18,0,0,0-3.4,3.3,2.81,2.81,0,0,0,2.9,3,2.56,2.56,0,0,0,2.3-1.4h.1c-.5,2.1-1.8,3.4-4,5h2.1A8,8,0,0,0,799.3,438.9Zm-3.5,1.2a1.63,1.63,0,0,1-1.8-1.8v-.2a1.8,1.8,0,0,1,3.6,0v.2A1.59,1.59,0,0,1,795.8,440.1Zm11.7,4.9v-1.4h-4.7v-2.9H807v-1.4h-4.2v-2.7h4.7v-1.4h-6.3V445Zm8.5-6.1c0-2.3-1.3-3.8-3.4-3.8a3.18,3.18,0,0,0-3.4,3.3,2.81,2.81,0,0,0,2.9,3,2.56,2.56,0,0,0,2.3-1.4h.1c-.5,2.1-1.8,3.4-4,5h2.1A8,8,0,0,0,816,438.9Zm-3.5,1.2a1.63,1.63,0,0,1-1.8-1.8v-.2a1.8,1.8,0,1,1,3.6,0v.2A1.59,1.59,0,0,1,812.5,440.1Zm11.7,4.9v-1.4h-4.7v-2.9h4.2v-1.4h-4.2v-2.7h4.7v-1.4h-6.3V445Z" transform="translate(0 -6.2)"/><path class="cls-12" d="M2,551H158a2,2,0,0,1,2,2v75a2,2,0,0,1-2,2H2a2,2,0,0,1-2-2V553A2,2,0,0,1,2,551Z" transform="translate(0 -6.2)"/><path class="cls-3" d="M1,518V508H4.4a4,4,0,0,1,2.6.7,2.38,2.38,0,0,1,.9,2,1.59,1.59,0,0,1-.4,1.2,1.88,1.88,0,0,1-1.1.8,1.74,1.74,0,0,1,1.2.8,2.3,2.3,0,0,1,.4,1.4,2.79,2.79,0,0,1-.9,2.2,4,4,0,0,1-2.6.8H1Zm1.7-4.5v3.1H4.6a1.84,1.84,0,0,0,1.3-.4,1.56,1.56,0,0,0-1.1-2.7Zm0-1.3H4.4a1.84,1.84,0,0,0,1.3-.4,1.23,1.23,0,0,0,.5-1,1.37,1.37,0,0,0-.4-1.1,2.27,2.27,0,0,0-1.3-.3H2.7ZM14.2,518c-.1-.1-.1-.4-.2-.7a2.36,2.36,0,0,1-1.9.8,2.79,2.79,0,0,1-1.8-.6,1.86,1.86,0,0,1-.7-1.6,2,2,0,0,1,.9-1.8,4.4,4.4,0,0,1,2.5-.6h1V513a1.22,1.22,0,0,0-.3-.9,1.33,1.33,0,0,0-1-.3,1.22,1.22,0,0,0-.9.3,1,1,0,0,0-.4.7H9.7a1.5,1.5,0,0,1,.4-1.1,2.26,2.26,0,0,1,1.1-.8,4.15,4.15,0,0,1,1.6-.3,2.82,2.82,0,0,1,2.1.7,2.2,2.2,0,0,1,.8,1.8v3.3A3.51,3.51,0,0,0,16,518v.1H14.2Zm-1.8-1.2a2.92,2.92,0,0,0,.9-.2,4.35,4.35,0,0,0,.7-.6v-1.4h-.9a2.65,2.65,0,0,0-1.4.3,1.05,1.05,0,0,0-.5.9,1.14,1.14,0,0,0,.3.8A2,2,0,0,0,12.4,516.8Zm8.1,0a1.16,1.16,0,0,0,1-.4,1,1,0,0,0,.4-.9h1.6a2.84,2.84,0,0,1-.4,1.3,2.44,2.44,0,0,1-1.1.9,4,4,0,0,1-1.5.3,3.17,3.17,0,0,1-2.5-1,4.1,4.1,0,0,1-.9-2.8V514a4,4,0,0,1,.9-2.7,3,3,0,0,1,2.5-1,2.91,2.91,0,0,1,3,2.8H22a1.53,1.53,0,0,0-.4-1,1.28,1.28,0,0,0-1-.4,1.31,1.31,0,0,0-1.2.6,3,3,0,0,0-.4,1.8v.3a3,3,0,0,0,.4,1.8C19.5,516.6,19.9,516.8,20.5,516.8Zm6.8-2-.7.8V518H24.9V507.5h1.7v6.1l.5-.7,2-2.3h2l-2.7,3.1,3,4.3H29.5Zm4.6-.6a4.34,4.34,0,0,1,.8-2.7,2.57,2.57,0,0,1,2.2-1,2.52,2.52,0,0,1,2,.9l.1-.7h1.5v7.2a3,3,0,0,1-.9,2.3,3.19,3.19,0,0,1-2.4.8,4.53,4.53,0,0,1-1.6-.3,2.73,2.73,0,0,1-1.2-.9l.8-1a2.32,2.32,0,0,0,1.9.9,1.71,1.71,0,0,0,1.8-1.8v-.5a2.56,2.56,0,0,1-1.9.8,2.39,2.39,0,0,1-2.1-1A3.8,3.8,0,0,1,31.9,514.2Zm1.6.2a3.45,3.45,0,0,0,.5,1.8,1.49,1.49,0,0,0,1.3.6,1.55,1.55,0,0,0,1.5-.9v-3.3a1.48,1.48,0,0,0-1.5-.8,1.61,1.61,0,0,0-1.3.6A3.68,3.68,0,0,0,33.5,514.4Zm10.6-2.3c-.2,0-.4-.1-.7-.1a1.39,1.39,0,0,0-1.5.9V518H40.2v-7.4h1.6v.8a2.06,2.06,0,0,1,1.7-1,1.27,1.27,0,0,1,.6.1Zm.6,2.1a4.48,4.48,0,0,1,.4-2,3,3,0,0,1,1.2-1.3,3.45,3.45,0,0,1,1.8-.5,3,3,0,0,1,2.4,1,3.62,3.62,0,0,1,1,2.6v.4a4.48,4.48,0,0,1-.4,2,3,3,0,0,1-1.2,1.3,3.45,3.45,0,0,1-1.8.5,3.17,3.17,0,0,1-2.5-1,4.66,4.66,0,0,1-.9-3Zm1.6.2a3,3,0,0,0,.5,1.8,1.61,1.61,0,0,0,1.3.6,1.46,1.46,0,0,0,1.3-.7,3.31,3.31,0,0,0,.5-1.9,3.45,3.45,0,0,0-.5-1.8,1.71,1.71,0,0,0-1.3-.7,1.61,1.61,0,0,0-1.3.6A4.34,4.34,0,0,0,46.3,514.4Zm11.2,2.9a2.58,2.58,0,0,1-2.1.9,2.14,2.14,0,0,1-1.8-.7,3,3,0,0,1-.6-2v-4.8h1.7v4.8c0,.9.4,1.4,1.2,1.4a1.52,1.52,0,0,0,1.6-.9v-5.3h1.7v7.4H57.6Zm5-6.7v.9a2.57,2.57,0,0,1,2.2-1c1.5,0,2.3.9,2.4,2.6V518H65.4v-4.8a1.1,1.1,0,0,0-1.3-1.3,1.55,1.55,0,0,0-1.5.9v5.3H60.9v-7.4h1.6Zm6,3.6a4.34,4.34,0,0,1,.8-2.7,2.39,2.39,0,0,1,2.1-1,2.56,2.56,0,0,1,1.9.8v-3.8H75V518H73.5l-.1-.8a2.52,2.52,0,0,1-2,.9,2.39,2.39,0,0,1-2.1-1A5,5,0,0,1,68.5,514.2Zm1.7.2a3.21,3.21,0,0,0,.4,1.8,1.43,1.43,0,0,0,1.2.6,1.55,1.55,0,0,0,1.5-.9v-3.2a1.55,1.55,0,0,0-1.5-.9,1.31,1.31,0,0,0-1.2.6A3.74,3.74,0,0,0,70.2,514.4Zm9.9-.2a4.34,4.34,0,0,1,.8-2.7,2.39,2.39,0,0,1,2.1-1,2.56,2.56,0,0,1,1.9.8v-3.8h1.7V518H85.1l-.1-.8a2.52,2.52,0,0,1-2,.9,2.39,2.39,0,0,1-2.1-1A5,5,0,0,1,80.1,514.2Zm1.7.2a3.21,3.21,0,0,0,.4,1.8,1.43,1.43,0,0,0,1.2.6,1.55,1.55,0,0,0,1.5-.9v-3.2a1.55,1.55,0,0,0-1.5-.9,1.31,1.31,0,0,0-1.2.6A3.74,3.74,0,0,0,81.8,514.4Zm11,3.6c-.1-.1-.1-.4-.2-.7a2.36,2.36,0,0,1-1.9.8,2.79,2.79,0,0,1-1.8-.6,1.86,1.86,0,0,1-.7-1.6,2,2,0,0,1,.9-1.8,4.4,4.4,0,0,1,2.5-.6h1V513a1.22,1.22,0,0,0-.3-.9,1.33,1.33,0,0,0-1-.3,1.22,1.22,0,0,0-.9.3,1,1,0,0,0-.4.7H88.3a1.5,1.5,0,0,1,.4-1.1,2.26,2.26,0,0,1,1.1-.8,4.15,4.15,0,0,1,1.6-.3,2.82,2.82,0,0,1,2.1.7,2.2,2.2,0,0,1,.8,1.8v3.3a3.51,3.51,0,0,0,.3,1.6v.1H92.8ZM91,516.8a2.92,2.92,0,0,0,.9-.2,4.35,4.35,0,0,0,.7-.6v-1.4h-.9a2.65,2.65,0,0,0-1.4.3,1.05,1.05,0,0,0-.5.9,1.14,1.14,0,0,0,.3.8A2.92,2.92,0,0,0,91,516.8Zm9-4.7c-.2,0-.4-.1-.7-.1a1.39,1.39,0,0,0-1.5.9V518H96.1v-7.4h1.6v.8a2.06,2.06,0,0,1,1.7-1,1.27,1.27,0,0,1,.6.1Zm3.5,2.7-.7.8V518h-1.7V507.5h1.7v6.1l.5-.7,2-2.3h2l-2.7,3.1,3,4.3h-1.9Z" transform="translate(0 -6.2)"/><path class="cls-7" d="M62.4,596v-1.4H57.7v-2.9H62v-1.4H57.8v-2.7h4.7v-1.4H56.2V596Zm8-9.8H64.9l-.4,5.4,1.3.2a2,2,0,0,1,1.7-.8,1.68,1.68,0,0,1,1.8,1.8v.2a1.68,1.68,0,0,1-1.8,1.8,2.4,2.4,0,0,1-2.1-1.3l-1.1.9a3.61,3.61,0,0,0,3.2,1.8,3.21,3.21,0,0,0,3.5-3.3,2.91,2.91,0,0,0-3-3.1,2,2,0,0,0-2,1.3h-.1l.3-3.5h4.3v-1.4Zm8.7,9.8v-1.4H74.4v-2.9h4.2v-1.4H74.4v-2.7h4.7v-1.4H72.8V596Zm8-9.8H81.6l-.4,5.4,1.3.2a2,2,0,0,1,1.7-.8,1.68,1.68,0,0,1,1.8,1.8v.2a1.68,1.68,0,0,1-1.8,1.8,2.4,2.4,0,0,1-2.1-1.3l-1.1.9a3.61,3.61,0,0,0,3.2,1.8,3.21,3.21,0,0,0,3.5-3.3,2.91,2.91,0,0,0-3-3.1,2,2,0,0,0-2,1.3h-.1l.3-3.5h4.3v-1.4Zm8.7,9.8v-1.4H91.1v-2.9h4.2v-1.4H91.1v-2.7h4.7v-1.4H89.5V596Zm8-9.8H98.3l-.4,5.4,1.3.2a2.13,2.13,0,0,1,1.7-.8,1.68,1.68,0,0,1,1.8,1.8v.2a1.68,1.68,0,0,1-1.8,1.8,2.4,2.4,0,0,1-2.1-1.3l-1.1.9a3.61,3.61,0,0,0,3.2,1.8,3.21,3.21,0,0,0,3.5-3.3,2.91,2.91,0,0,0-3-3.1,2,2,0,0,0-2,1.3h-.1l.3-3.5h4.3v-1.4Z" transform="translate(0 -6.2)"/><path class="cls-13" d="M242,551H398a2,2,0,0,1,2,2v75a2,2,0,0,1-2,2H242a2,2,0,0,1-2-2V553A2,2,0,0,1,242,551Z" transform="translate(0 -6.2)"/><path class="cls-3" d="M241,518V508h3.4a4,4,0,0,1,2.6.7,2.38,2.38,0,0,1,.9,2,1.59,1.59,0,0,1-.4,1.2,1.88,1.88,0,0,1-1.1.8,1.74,1.74,0,0,1,1.2.8,2.3,2.3,0,0,1,.4,1.4,2.79,2.79,0,0,1-.9,2.2,4,4,0,0,1-2.6.8H241Zm1.7-4.5v3.1h1.9a1.84,1.84,0,0,0,1.3-.4,1.56,1.56,0,0,0-1.1-2.7Zm0-1.3h1.7a1.84,1.84,0,0,0,1.3-.4,1.23,1.23,0,0,0,.5-1,1.37,1.37,0,0,0-.4-1.1,2.27,2.27,0,0,0-1.3-.3h-1.7v2.8Zm11.5,5.8c-.1-.1-.1-.4-.2-.7a2.36,2.36,0,0,1-1.9.8,2.79,2.79,0,0,1-1.8-.6,1.86,1.86,0,0,1-.7-1.6,2,2,0,0,1,.9-1.8,4.4,4.4,0,0,1,2.5-.6h1V513a1.22,1.22,0,0,0-.3-.9,1.33,1.33,0,0,0-1-.3,1.22,1.22,0,0,0-.9.3,1,1,0,0,0-.4.7h-1.7a1.5,1.5,0,0,1,.4-1.1,2.26,2.26,0,0,1,1.1-.8,4.15,4.15,0,0,1,1.6-.3,2.82,2.82,0,0,1,2.1.7,2.2,2.2,0,0,1,.8,1.8v3.3a3.51,3.51,0,0,0,.3,1.6v.1h-1.8Zm-1.8-1.2a2.92,2.92,0,0,0,.9-.2,4.35,4.35,0,0,0,.7-.6v-1.4h-.9a2.65,2.65,0,0,0-1.4.3,1.05,1.05,0,0,0-.5.9,1.14,1.14,0,0,0,.3.8A2,2,0,0,0,252.4,516.8Zm8.1,0a1.16,1.16,0,0,0,1-.4,1,1,0,0,0,.4-.9h1.6a2.84,2.84,0,0,1-.4,1.3,2.44,2.44,0,0,1-1.1.9,4,4,0,0,1-1.5.3,3.17,3.17,0,0,1-2.5-1,4.1,4.1,0,0,1-.9-2.8V514a4,4,0,0,1,.9-2.7,3,3,0,0,1,2.5-1,2.91,2.91,0,0,1,3,2.8H262a1.53,1.53,0,0,0-.4-1,1.28,1.28,0,0,0-1-.4,1.31,1.31,0,0,0-1.2.6,3,3,0,0,0-.4,1.8v.3a3,3,0,0,0,.4,1.8C259.5,516.6,259.9,516.8,260.5,516.8Zm6.8-2-.7.8V518h-1.7V507.5h1.7v6.1l.5-.7,2-2.3h2l-2.7,3.1,3,4.3h-1.9Zm4.6-.6a4.34,4.34,0,0,1,.8-2.7,2.57,2.57,0,0,1,2.2-1,2.52,2.52,0,0,1,2,.9l.1-.7h1.5v7.2a3,3,0,0,1-.9,2.3,3.19,3.19,0,0,1-2.4.8,4.53,4.53,0,0,1-1.6-.3,2.73,2.73,0,0,1-1.2-.9l.8-1a2.32,2.32,0,0,0,1.9.9,1.71,1.71,0,0,0,1.8-1.8v-.5a2.56,2.56,0,0,1-1.9.8,2.39,2.39,0,0,1-2.1-1A3.8,3.8,0,0,1,271.9,514.2Zm1.6.2a2.73,2.73,0,0,0,.5,1.8,1.49,1.49,0,0,0,1.3.6,1.55,1.55,0,0,0,1.5-.9v-3.3a1.48,1.48,0,0,0-1.5-.8,1.61,1.61,0,0,0-1.3.6A3.68,3.68,0,0,0,273.5,514.4Zm10.6-2.3c-.2,0-.4-.1-.7-.1a1.39,1.39,0,0,0-1.5.9V518h-1.7v-7.4h1.6v.8a2.06,2.06,0,0,1,1.7-1,1.27,1.27,0,0,1,.6.1Zm.6,2.1a4.48,4.48,0,0,1,.4-2,3,3,0,0,1,1.2-1.3,3.45,3.45,0,0,1,1.8-.5,3,3,0,0,1,2.4,1,3.62,3.62,0,0,1,1,2.6v.4a4.48,4.48,0,0,1-.4,2,3,3,0,0,1-1.2,1.3,3.45,3.45,0,0,1-1.8.5,3.17,3.17,0,0,1-2.5-1,4.66,4.66,0,0,1-.9-3Zm1.6.2a3,3,0,0,0,.5,1.8,1.61,1.61,0,0,0,1.3.6,1.36,1.36,0,0,0,1.3-.7,3.31,3.31,0,0,0,.5-1.9,3.45,3.45,0,0,0-.5-1.8,1.71,1.71,0,0,0-1.3-.7,1.61,1.61,0,0,0-1.3.6A4.34,4.34,0,0,0,286.3,514.4Zm11.2,2.9a2.58,2.58,0,0,1-2.1.9,2.14,2.14,0,0,1-1.8-.7,3,3,0,0,1-.6-2v-4.8h1.7v4.8c0,.9.4,1.4,1.2,1.4a1.52,1.52,0,0,0,1.6-.9v-5.3h1.7v7.4h-1.6Zm5-6.7v.9a2.57,2.57,0,0,1,2.2-1c1.5,0,2.3.9,2.4,2.6V518h-1.7v-4.8a1.1,1.1,0,0,0-1.3-1.3,1.55,1.55,0,0,0-1.5.9v5.3h-1.7v-7.4h1.6Zm6,3.6a4.34,4.34,0,0,1,.8-2.7,2.39,2.39,0,0,1,2.1-1,2.56,2.56,0,0,1,1.9.8v-3.8H315V518h-1.5l-.1-.8a2.52,2.52,0,0,1-2,.9,2.39,2.39,0,0,1-2.1-1A5,5,0,0,1,308.5,514.2Zm1.7.2a3.21,3.21,0,0,0,.4,1.8,1.43,1.43,0,0,0,1.2.6,1.55,1.55,0,0,0,1.5-.9v-3.2a1.55,1.55,0,0,0-1.5-.9,1.31,1.31,0,0,0-1.2.6A3.74,3.74,0,0,0,310.2,514.4Zm12,3.6h-1.7V507.5h1.7Zm3.7,0h-1.7v-7.4h1.7Zm-1.8-9.3a.85.85,0,0,1,.2-.6,1,1,0,0,1,1.4,0,.73.73,0,0,1,.2.6,1.07,1.07,0,0,1-.2.6.84.84,0,0,1-.7.2,1.45,1.45,0,0,1-.7-.2A1.42,1.42,0,0,1,324.1,508.7Zm3.4,5.5a4.34,4.34,0,0,1,.8-2.7,2.57,2.57,0,0,1,2.2-1,2.52,2.52,0,0,1,2,.9l.1-.7h1.5v7.2a3,3,0,0,1-.9,2.3,3.19,3.19,0,0,1-2.4.8,4.53,4.53,0,0,1-1.6-.3,2.73,2.73,0,0,1-1.2-.9l.8-1a2.32,2.32,0,0,0,1.9.9,1.71,1.71,0,0,0,1.8-1.8v-.5a2.56,2.56,0,0,1-1.9.8,2.39,2.39,0,0,1-2.1-1A4.19,4.19,0,0,1,327.5,514.2Zm1.6.2a2.73,2.73,0,0,0,.5,1.8,1.49,1.49,0,0,0,1.3.6,1.55,1.55,0,0,0,1.5-.9v-3.3a1.48,1.48,0,0,0-1.5-.8,1.61,1.61,0,0,0-1.3.6A3.68,3.68,0,0,0,329.1,514.4Zm8.4-3a2.58,2.58,0,0,1,2.1-.9q2.4,0,2.4,2.7V518h-1.7v-4.8a1.61,1.61,0,0,0-.3-1.1,1.33,1.33,0,0,0-1-.3,1.55,1.55,0,0,0-1.5.9V518h-1.7V507.5h1.7Zm8.3-2.6v1.8h1.3v1.2h-1.3v4.1a.71.71,0,0,0,.8.8,1.27,1.27,0,0,0,.6-.1v1.3a4.25,4.25,0,0,1-1.1.2c-1.3,0-1.9-.7-1.9-2.1v-4.2H343v-1.2h1.2v-1.8Z" transform="translate(0 -6.2)"/><path class="cls-7" d="M298.2,596v-4.3h4v-1.4h-4v-2.7h4.5v-1.4h-6.1V596Zm12.8-1.3h-4.9l2.3-2c1.3-1.1,2.3-2.1,2.3-3.7a2.79,2.79,0,0,0-3.1-2.9,3.14,3.14,0,0,0-3.3,2.4l1.4.5a1.75,1.75,0,0,1,1.8-1.5,1.45,1.45,0,0,1,1.6,1.5v.2a4,4,0,0,1-1.5,2.6l-3.1,2.8v1.5h6.6v-1.4Zm3.6,1.3v-4.3h4v-1.4h-4v-2.7h4.5v-1.4H313V596Zm12.8-1.3h-4.9l2.3-2c1.3-1.1,2.3-2.1,2.3-3.7a2.79,2.79,0,0,0-3.1-2.9,3.14,3.14,0,0,0-3.3,2.4l1.4.5a1.75,1.75,0,0,1,1.8-1.5,1.45,1.45,0,0,1,1.6,1.5v.2a4,4,0,0,1-1.5,2.6l-3.1,2.8v1.5h6.6v-1.4ZM331,596v-4.3h4v-1.4h-4v-2.7h4.5v-1.4h-6.1V596Zm12.7-1.3h-4.9l2.3-2c1.3-1.1,2.3-2.1,2.3-3.7a2.79,2.79,0,0,0-3.1-2.9,3.14,3.14,0,0,0-3.3,2.4l1.4.5a1.75,1.75,0,0,1,1.8-1.5,1.45,1.45,0,0,1,1.6,1.5v.2a4,4,0,0,1-1.5,2.6l-3.1,2.8v1.5h6.6v-1.4Z" transform="translate(0 -6.2)"/><path class="cls-4" d="M482,551H638a2,2,0,0,1,2,2v75a2,2,0,0,1-2,2H482a2,2,0,0,1-2-2V553A2,2,0,0,1,482,551Z" transform="translate(0 -6.2)"/><path class="cls-3" d="M481,518V508h3.4a4,4,0,0,1,2.6.7,2.38,2.38,0,0,1,.9,2,1.59,1.59,0,0,1-.4,1.2,1.88,1.88,0,0,1-1.1.8,1.74,1.74,0,0,1,1.2.8,2.3,2.3,0,0,1,.4,1.4,2.79,2.79,0,0,1-.9,2.2,4,4,0,0,1-2.6.8H481Zm1.7-4.5v3.1h1.9a1.84,1.84,0,0,0,1.3-.4,1.56,1.56,0,0,0-1.1-2.7Zm0-1.3h1.7a1.84,1.84,0,0,0,1.3-.4,1.23,1.23,0,0,0,.5-1,1.37,1.37,0,0,0-.4-1.1,2.27,2.27,0,0,0-1.3-.3h-1.7v2.8Zm11.5,5.8c-.1-.1-.1-.4-.2-.7a2.36,2.36,0,0,1-1.9.8,2.79,2.79,0,0,1-1.8-.6,1.86,1.86,0,0,1-.7-1.6,2,2,0,0,1,.9-1.8,4.4,4.4,0,0,1,2.5-.6h1V513a1.22,1.22,0,0,0-.3-.9,1.33,1.33,0,0,0-1-.3,1.22,1.22,0,0,0-.9.3,1,1,0,0,0-.4.7h-1.7a1.5,1.5,0,0,1,.4-1.1,2.26,2.26,0,0,1,1.1-.8,4.15,4.15,0,0,1,1.6-.3,2.82,2.82,0,0,1,2.1.7,2.2,2.2,0,0,1,.8,1.8v3.3a3.51,3.51,0,0,0,.3,1.6v.1h-1.8Zm-1.8-1.2a2.92,2.92,0,0,0,.9-.2,4.35,4.35,0,0,0,.7-.6v-1.4h-.9a2.65,2.65,0,0,0-1.4.3,1.05,1.05,0,0,0-.5.9,1.14,1.14,0,0,0,.3.8A2,2,0,0,0,492.4,516.8Zm8.1,0a1.16,1.16,0,0,0,1-.4,1,1,0,0,0,.4-.9h1.6a2.84,2.84,0,0,1-.4,1.3,2.44,2.44,0,0,1-1.1.9,4,4,0,0,1-1.5.3,3.17,3.17,0,0,1-2.5-1,4.1,4.1,0,0,1-.9-2.8V514a4,4,0,0,1,.9-2.7,3,3,0,0,1,2.5-1,2.91,2.91,0,0,1,3,2.8H502a1.53,1.53,0,0,0-.4-1,1.28,1.28,0,0,0-1-.4,1.31,1.31,0,0,0-1.2.6,3,3,0,0,0-.4,1.8v.3a3,3,0,0,0,.4,1.8C499.5,516.6,499.9,516.8,500.5,516.8Zm6.8-2-.7.8V518h-1.7V507.5h1.7v6.1l.5-.7,2-2.3h2l-2.7,3.1,3,4.3h-1.9Zm4.6-.6a4.34,4.34,0,0,1,.8-2.7,2.57,2.57,0,0,1,2.2-1,2.52,2.52,0,0,1,2,.9l.1-.7h1.5v7.2a3,3,0,0,1-.9,2.3,3.19,3.19,0,0,1-2.4.8,4.53,4.53,0,0,1-1.6-.3,2.73,2.73,0,0,1-1.2-.9l.8-1a2.32,2.32,0,0,0,1.9.9,1.71,1.71,0,0,0,1.8-1.8v-.5a2.56,2.56,0,0,1-1.9.8,2.39,2.39,0,0,1-2.1-1A3.8,3.8,0,0,1,511.9,514.2Zm1.6.2a3.45,3.45,0,0,0,.5,1.8,1.49,1.49,0,0,0,1.3.6,1.55,1.55,0,0,0,1.5-.9v-3.3a1.48,1.48,0,0,0-1.5-.8,1.61,1.61,0,0,0-1.3.6A3.68,3.68,0,0,0,513.5,514.4Zm10.6-2.3c-.2,0-.4-.1-.7-.1a1.39,1.39,0,0,0-1.5.9V518h-1.7v-7.4h1.6v.8a2.06,2.06,0,0,1,1.7-1,1.27,1.27,0,0,1,.6.1Zm.6,2.1a4.48,4.48,0,0,1,.4-2,3,3,0,0,1,1.2-1.3,3.45,3.45,0,0,1,1.8-.5,3,3,0,0,1,2.4,1,3.62,3.62,0,0,1,1,2.6v.4a4.48,4.48,0,0,1-.4,2,3,3,0,0,1-1.2,1.3,3.45,3.45,0,0,1-1.8.5,3.17,3.17,0,0,1-2.5-1,4.66,4.66,0,0,1-.9-3Zm1.6.2a3,3,0,0,0,.5,1.8,1.61,1.61,0,0,0,1.3.6,1.36,1.36,0,0,0,1.3-.7,3.31,3.31,0,0,0,.5-1.9,3.45,3.45,0,0,0-.5-1.8,1.71,1.71,0,0,0-1.3-.7,1.61,1.61,0,0,0-1.3.6A4.34,4.34,0,0,0,526.3,514.4Zm11.2,2.9a2.58,2.58,0,0,1-2.1.9,2.14,2.14,0,0,1-1.8-.7,3,3,0,0,1-.6-2v-4.8h1.7v4.8c0,.9.4,1.4,1.2,1.4a1.52,1.52,0,0,0,1.6-.9v-5.3h1.7v7.4h-1.6Zm5-6.7v.9a2.57,2.57,0,0,1,2.2-1c1.5,0,2.3.9,2.4,2.6V518h-1.7v-4.8a1.1,1.1,0,0,0-1.3-1.3,1.55,1.55,0,0,0-1.5.9v5.3h-1.7v-7.4h1.6Zm6,3.6a4.34,4.34,0,0,1,.8-2.7,2.39,2.39,0,0,1,2.1-1,2.56,2.56,0,0,1,1.9.8v-3.8H555V518h-1.5l-.1-.8a2.52,2.52,0,0,1-2,.9,2.39,2.39,0,0,1-2.1-1A5,5,0,0,1,548.5,514.2Zm1.7.2a3.21,3.21,0,0,0,.4,1.8,1.43,1.43,0,0,0,1.2.6,1.55,1.55,0,0,0,1.5-.9v-3.2a1.55,1.55,0,0,0-1.5-.9,1.31,1.31,0,0,0-1.2.6A3.74,3.74,0,0,0,550.2,514.4Zm16.7,1.3,1.2-5.1h1.6l-2,7.4h-1.4l-1.6-5.1-1.6,5.1h-1.4l-2-7.4h1.6l1.2,5.1,1.5-5.1h1.3Zm5.7-4.3a2.58,2.58,0,0,1,2.1-.9q2.4,0,2.4,2.7V518h-1.7v-4.8a1.61,1.61,0,0,0-.3-1.1,1.33,1.33,0,0,0-1-.3,1.55,1.55,0,0,0-1.5.9V518h-1.7V507.5h1.7Zm8,6.6h-1.7v-7.4h1.7Zm-1.8-9.3a.85.85,0,0,1,.2-.6,1,1,0,0,1,1.4,0,.73.73,0,0,1,.2.6,1.07,1.07,0,0,1-.2.6.84.84,0,0,1-.7.2,1.45,1.45,0,0,1-.7-.2A1.42,1.42,0,0,1,578.8,508.7Zm5.8.1v1.8h1.3v1.2h-1.3v4.1a.71.71,0,0,0,.8.8,1.27,1.27,0,0,0,.6-.1v1.3a4.25,4.25,0,0,1-1.1.2c-1.3,0-1.9-.7-1.9-2.1v-4.2h-1.2v-1.2H583v-1.8Zm5.9,9.3a3.39,3.39,0,0,1-2.6-1,3.47,3.47,0,0,1-1-2.7v-.2a4.48,4.48,0,0,1,.4-2,4.07,4.07,0,0,1,1.2-1.4,3.37,3.37,0,0,1,1.7-.5,2.64,2.64,0,0,1,2.3,1,3.8,3.8,0,0,1,.8,2.7v.7h-4.8a2,2,0,0,0,.6,1.4,1.74,1.74,0,0,0,1.4.5,2.32,2.32,0,0,0,1.9-.9l.9.9a2.94,2.94,0,0,1-1.2,1A2.2,2.2,0,0,1,590.5,518.1Zm-.2-6.3a1.43,1.43,0,0,0-1.1.5,1.9,1.9,0,0,0-.5,1.3h3.2v-.1a2.23,2.23,0,0,0-.4-1.3A1.75,1.75,0,0,0,590.3,511.8Z" transform="translate(0 -6.2)"/><path class="cls-7" d="M537.3,596v-9.8h6.1v1.4h-4.5v2.7h4v1.4h-4V596Zm7.9,0v-9.8h6.1v1.4h-4.5v2.7h4v1.4h-4V596Zm8,0v-9.8h6.1v1.4h-4.5v2.7h4v1.4h-4V596Zm8,0v-9.8h6.1v1.4h-4.5v2.7h4v1.4h-4V596Zm8,0v-9.8h6.1v1.4h-4.5v2.7h4v1.4h-4V596Zm8,0v-9.8h6.1v1.4h-4.5v2.7h4v1.4h-4V596Z" transform="translate(0 -6.2)"/></svg>