<?xml version="1.0" encoding="utf-8"?>
<!-- Generator: Adobe Illustrator 24.0.3, SVG Export Plug-In . SVG Version: 6.00 Build 0)  -->
<svg version="1.1" id="Layer_1" xmlns="http://www.w3.org/2000/svg" xmlns:xlink="http://www.w3.org/1999/xlink" x="0px" y="0px"
	 viewBox="0 0 880 781" style="enable-background:new 0 0 880 781;" xml:space="preserve">
<style type="text/css">
	.st0{fill:#007FA3;}
	.st1{fill:#E5F2F6;}
	.st2{fill:#9E9E9E;}
	.st3{fill:#FFFFFF;}
	.st4{fill:#C41B36;}
	.st5{fill:#FDE0E5;}
	.st6{fill:#333333;}
	.st7{fill:#CC0000;}
	.st8{fill:#F9E0E0;}
	.st9{fill:#444444;}
	.st10{fill:#D7D5D5;}
	.st11{fill:#E5E5E5;}
	.st12{fill:#F2F2F2;}
</style>
<path d="M7,21.2c-1.8,0-3.3-0.6-4.3-1.8c-1-1.2-1.6-3-1.6-5.4c0-1.2,0.1-2.2,0.4-3.1s0.7-1.6,1.2-2.3s1.1-1.1,1.8-1.4
	C5.2,7,6.1,6.8,7,6.8c1.2,0,2.2,0.3,3,0.8c0.8,0.5,1.5,1.3,1.9,2.4L10,11c-0.2-0.7-0.6-1.2-1.1-1.6C8.4,9,7.8,8.8,7,8.8
	C5.9,8.8,5,9.2,4.4,9.9c-0.6,0.7-0.9,1.7-0.9,3v2.1c0,1.3,0.3,2.3,0.9,3C5,18.9,5.9,19.2,7,19.2c0.8,0,1.5-0.2,2-0.6
	c0.5-0.4,0.9-1,1.2-1.7L12,18c-0.5,1-1.1,1.8-2,2.4C9.2,21,8.2,21.2,7,21.2z M18.3,21.2c-0.7,0-1.4-0.1-2-0.4
	c-0.6-0.3-1.1-0.6-1.5-1.1c-0.4-0.5-0.7-1.1-1-1.7c-0.2-0.7-0.3-1.4-0.3-2.3c0-0.8,0.1-1.6,0.3-2.2c0.2-0.7,0.5-1.3,1-1.7
	c0.4-0.5,0.9-0.8,1.5-1.1c0.6-0.3,1.3-0.4,2-0.4c0.7,0,1.4,0.1,2,0.4c0.6,0.3,1.1,0.6,1.5,1.1c0.4,0.5,0.7,1,1,1.7
	c0.2,0.7,0.3,1.4,0.3,2.2c0,0.8-0.1,1.6-0.3,2.3c-0.2,0.7-0.5,1.2-1,1.7c-0.4,0.5-0.9,0.8-1.5,1.1C19.7,21.1,19,21.2,18.3,21.2z
	 M18.3,19.4c0.7,0,1.3-0.2,1.8-0.7c0.5-0.5,0.7-1.2,0.7-2.1v-1.8c0-0.9-0.2-1.6-0.7-2.1c-0.5-0.5-1.1-0.7-1.8-0.7
	c-0.7,0-1.3,0.2-1.8,0.7c-0.5,0.5-0.7,1.1-0.7,2.1v1.8c0,0.9,0.2,1.6,0.7,2.1C17,19.2,17.6,19.4,18.3,19.4z M27.7,21
	c-0.7,0-1.3-0.2-1.7-0.6c-0.4-0.4-0.5-0.9-0.5-1.6V6.2h2.2v13h1.4V21H27.7z M35.3,21.2c-0.7,0-1.4-0.1-2-0.4
	c-0.6-0.3-1.1-0.6-1.5-1.1c-0.4-0.5-0.7-1.1-1-1.7c-0.2-0.7-0.3-1.4-0.3-2.3c0-0.8,0.1-1.6,0.3-2.2c0.2-0.7,0.5-1.3,1-1.7
	c0.4-0.5,0.9-0.8,1.5-1.1c0.6-0.3,1.3-0.4,2-0.4c0.7,0,1.4,0.1,2,0.4c0.6,0.3,1.1,0.6,1.5,1.1c0.4,0.5,0.7,1,1,1.7
	c0.2,0.7,0.3,1.4,0.3,2.2c0,0.8-0.1,1.6-0.3,2.3c-0.2,0.7-0.5,1.2-1,1.7c-0.4,0.5-0.9,0.8-1.5,1.1C36.7,21.1,36,21.2,35.3,21.2z
	 M35.3,19.4c0.7,0,1.3-0.2,1.8-0.7c0.5-0.5,0.7-1.2,0.7-2.1v-1.8c0-0.9-0.2-1.6-0.7-2.1c-0.5-0.5-1.1-0.7-1.8-0.7
	c-0.7,0-1.3,0.2-1.8,0.7c-0.5,0.5-0.7,1.1-0.7,2.1v1.8c0,0.9,0.2,1.6,0.7,2.1C34,19.2,34.6,19.4,35.3,19.4z M42.5,21V10.6h2.2v2h0.1
	c0.1-0.5,0.5-1,0.9-1.4c0.5-0.4,1.1-0.6,1.9-0.6h0.6v2.1h-0.9c-0.9,0-1.5,0.1-2,0.4c-0.5,0.3-0.7,0.7-0.7,1.2V21H42.5z M53.5,21.2
	c-1,0-1.8-0.2-2.5-0.5c-0.7-0.3-1.2-0.8-1.7-1.4l1.4-1.3c0.4,0.5,0.8,0.8,1.3,1.1c0.5,0.3,1,0.4,1.7,0.4c0.6,0,1.1-0.1,1.4-0.4
	c0.3-0.3,0.5-0.6,0.5-1c0-0.3-0.1-0.6-0.3-0.8c-0.2-0.2-0.6-0.4-1.1-0.5l-1-0.1c-1.1-0.1-1.9-0.4-2.5-0.9c-0.6-0.5-0.9-1.2-0.9-2.2
	c0-0.5,0.1-1,0.3-1.3c0.2-0.4,0.4-0.7,0.8-1c0.3-0.3,0.8-0.5,1.2-0.6c0.5-0.1,1-0.2,1.6-0.2c0.9,0,1.7,0.1,2.3,0.4
	c0.6,0.3,1.1,0.7,1.6,1.2L56,13.3c-0.3-0.3-0.6-0.6-1.1-0.8c-0.4-0.2-0.9-0.4-1.5-0.4c-0.6,0-1,0.1-1.3,0.4
	c-0.3,0.2-0.4,0.6-0.4,0.9c0,0.4,0.1,0.7,0.4,0.9c0.3,0.2,0.7,0.3,1.2,0.4l1,0.1c1.1,0.2,2,0.5,2.5,1c0.5,0.5,0.8,1.2,0.8,2
	c0,0.5-0.1,1-0.3,1.4c-0.2,0.4-0.5,0.7-0.8,1s-0.8,0.5-1.3,0.7C54.7,21.2,54.1,21.2,53.5,21.2z"/>
<path class="st0" d="M2,98h74c1.1,0,2,0.9,2,2v75c0,1.1-0.9,2-2,2H2c-1.1,0-2-0.9-2-2v-75C0,98.9,0.9,98,2,98z"/>
<path class="st1" d="M84,98h74c1.1,0,2,0.9,2,2v75c0,1.1-0.9,2-2,2H84c-1.1,0-2-0.9-2-2v-75C82,98.9,82.9,98,84,98z"/>
<path class="st2" d="M2.7,61.3V65H1V55h3.8c1.1,0,2,0.3,2.6,0.9c0.7,0.6,1,1.3,1,2.3c0,1-0.3,1.7-1,2.3C6.8,61,6,61.3,4.8,61.3H2.7z
	 M2.7,59.9h2.1c0.6,0,1.1-0.1,1.4-0.4c0.3-0.3,0.5-0.7,0.5-1.3c0-0.5-0.2-1-0.5-1.3c-0.3-0.3-0.8-0.5-1.4-0.5H2.7V59.9z M13.8,59.1
	c-0.2,0-0.4-0.1-0.7-0.1c-0.8,0-1.3,0.3-1.5,0.9V65H9.9v-7.4h1.6l0,0.8c0.4-0.6,1-1,1.7-1c0.2,0,0.4,0,0.6,0.1L13.8,59.1z M16.7,65
	H15v-7.4h1.7V65z M14.9,55.7c0-0.3,0.1-0.5,0.2-0.6c0.2-0.2,0.4-0.3,0.7-0.3c0.3,0,0.5,0.1,0.7,0.3c0.2,0.2,0.2,0.4,0.2,0.6
	c0,0.3-0.1,0.5-0.2,0.6c-0.2,0.2-0.4,0.2-0.7,0.2c-0.3,0-0.5-0.1-0.7-0.2C15,56.1,14.9,55.9,14.9,55.7z M20.2,57.6l0,0.8
	c0.5-0.6,1.2-0.9,2.1-0.9c1,0,1.7,0.4,2,1.1c0.5-0.8,1.3-1.1,2.3-1.1c0.8,0,1.4,0.2,1.8,0.7c0.4,0.5,0.6,1.1,0.6,2V65h-1.7v-4.8
	c0-0.5-0.1-0.8-0.3-1c-0.2-0.2-0.5-0.3-1-0.3c-0.4,0-0.7,0.1-0.9,0.3c-0.2,0.2-0.4,0.5-0.5,0.8l0,5.1H23v-4.9c0-0.9-0.5-1.3-1.3-1.3
	c-0.7,0-1.1,0.3-1.4,0.8V65h-1.7v-7.4H20.2z M35.3,65c-0.1-0.1-0.1-0.4-0.2-0.7c-0.5,0.6-1.2,0.8-1.9,0.8c-0.7,0-1.3-0.2-1.8-0.6
	c-0.5-0.4-0.7-0.9-0.7-1.6c0-0.8,0.3-1.4,0.9-1.8c0.6-0.4,1.4-0.6,2.5-0.6h1V60c0-0.4-0.1-0.7-0.3-0.9c-0.2-0.2-0.5-0.3-1-0.3
	c-0.4,0-0.7,0.1-0.9,0.3c-0.2,0.2-0.4,0.4-0.4,0.7h-1.7c0-0.4,0.1-0.8,0.4-1.1c0.3-0.4,0.6-0.6,1.1-0.8c0.5-0.2,1-0.3,1.6-0.3
	c0.9,0,1.6,0.2,2.1,0.7c0.5,0.4,0.8,1,0.8,1.8v3.3c0,0.7,0.1,1.2,0.3,1.6V65H35.3z M33.5,63.8c0.3,0,0.6-0.1,0.9-0.2
	c0.3-0.2,0.5-0.4,0.7-0.6v-1.4h-0.9c-0.6,0-1.1,0.1-1.4,0.3c-0.3,0.2-0.5,0.5-0.5,0.9c0,0.3,0.1,0.6,0.3,0.8
	C32.8,63.7,33.1,63.8,33.5,63.8z M42.4,59.1c-0.2,0-0.4-0.1-0.7-0.1c-0.8,0-1.3,0.3-1.5,0.9V65h-1.7v-7.4h1.6l0,0.8
	c0.4-0.6,1-1,1.7-1c0.2,0,0.4,0,0.6,0.1L42.4,59.1z M46.3,62.6l1.5-5h1.8l-2.9,8.5c-0.5,1.2-1.2,1.9-2.3,1.9c-0.2,0-0.5,0-0.8-0.1
	v-1.3l0.3,0c0.4,0,0.7-0.1,0.9-0.2c0.2-0.2,0.4-0.4,0.5-0.8l0.2-0.6l-2.6-7.4h1.8L46.3,62.6z"/>
<path class="st3" d="M18.2,143.2c2.4,0,3.5-1.9,3.5-5.1s-1.1-5.1-3.5-5.1s-3.5,1.9-3.5,5.1S15.8,143.2,18.2,143.2z M18.2,141.8
	c-1.4,0-1.9-1.1-1.9-2.9v-1.7c0-1.7,0.5-2.9,1.9-2.9s1.9,1.1,1.9,2.9v1.7C20.1,140.7,19.6,141.8,18.2,141.8z M26.6,143.2
	c2.4,0,3.5-1.9,3.5-5.1s-1.1-5.1-3.5-5.1s-3.5,1.9-3.5,5.1S24.2,143.2,26.6,143.2z M26.6,141.8c-1.4,0-1.9-1.1-1.9-2.9v-1.7
	c0-1.7,0.5-2.9,1.9-2.9s1.9,1.1,1.9,2.9v1.7C28.5,140.7,28,141.8,26.6,141.8z M34.9,143l3.4-8.4v-1.4h-6.6v3.1H33v-1.8h3.7l-3.5,8.5
	H34.9z M42,143v-4.3h4v-1.4h-4v-2.7h4.5v-1.4h-6.1v9.8H42z M55.3,143l-3.3-9.8h-2l-3.3,9.8h1.6l0.9-2.6h3.7l0.9,2.6H55.3z M52.4,139
	h-2.9l1.4-4.3H51L52.4,139z M58.3,137.2v1.3h1c1.2,0,1.9,0.5,1.9,1.5v0.1c0,1-0.7,1.6-1.8,1.6c-1.1,0-1.7-0.5-2.2-1.3l-1.2,0.9
	c0.6,0.9,1.5,1.8,3.3,1.8c2.1,0,3.5-1.1,3.5-2.9c0-1.4-0.9-2.2-2-2.4v-0.1c1-0.2,1.9-1,1.9-2.2c0-1.6-1.3-2.5-3.2-2.5
	c-1.6,0-2.5,0.8-3.1,1.6l1,0.9c0.4-0.7,1.1-1.2,2-1.2c0.9,0,1.6,0.5,1.6,1.4v0.1c0,0.8-0.6,1.4-1.8,1.4H58.3z"/>
<path d="M104.7,143v-1.4h-4.7v-2.9h4.2v-1.4h-4.2v-2.7h4.7v-1.4h-6.3v9.8H104.7z M112.7,133.2h-5.5l-0.4,5.4l1.3,0.2
	c0.3-0.4,0.8-0.8,1.7-0.8c1.1,0,1.8,0.7,1.8,1.8v0.2c0,1.1-0.7,1.8-1.8,1.8c-1.1,0-1.6-0.6-2.1-1.3l-1.1,0.9
	c0.6,0.9,1.5,1.8,3.2,1.8c2.2,0,3.5-1.4,3.5-3.3c0-1.9-1.3-3.1-3-3.1c-1.1,0-1.6,0.5-2,1.3h-0.1l0.3-3.5h4.3V133.2z M116.8,143v-4.3
	h4v-1.4h-4v-2.7h4.5v-1.4h-6.1v9.8H116.8z M129.5,141.7h-4.9l2.3-2c1.3-1.1,2.3-2.1,2.3-3.7c0-1.7-1.1-2.9-3.1-2.9
	c-2,0-2.9,1.1-3.3,2.4l1.4,0.5c0.2-0.9,0.8-1.5,1.8-1.5c1,0,1.6,0.6,1.6,1.5v0.2c0,0.9-0.6,1.7-1.5,2.6l-3.1,2.8v1.5h6.6V141.7z
	 M133.1,143v-4.3h4v-1.4h-4v-2.7h4.5v-1.4h-6.1v9.8H133.1z M142.6,143.2c2.1,0,3.4-1.4,3.4-3.3c0-1.8-1.2-3-2.9-3
	c-1.2,0-1.9,0.7-2.3,1.4l-0.1,0c0.5-2.1,1.8-3.4,4-5h-2.1c-1.6,1.1-3.5,3.3-3.5,6.1C139.1,141.7,140.4,143.2,142.6,143.2z
	 M142.6,141.9c-1.1,0-1.8-0.6-1.8-1.8v-0.2c0-1.2,0.7-1.8,1.8-1.8c1.1,0,1.8,0.6,1.8,1.8v0.2C144.4,141.2,143.7,141.9,142.6,141.9z"
	/>
<path class="st4" d="M243,101h74c1.1,0,2,0.9,2,2v72c0,1.1-0.9,2-2,2h-74c-1.1,0-2-0.9-2-2v-72C241,101.9,241.9,101,243,101z"/>
<path class="st5" d="M325,101h74c1.1,0,2,0.9,2,2v72c0,1.1-0.9,2-2,2h-74c-1.1,0-2-0.9-2-2v-72C323,101.9,323.9,101,325,101z"/>
<path class="st2" d="M248.3,66l-0.9-2.6h-3.7l-0.9,2.6h-1.6l3.3-9.8h2L250,66H248.3z M245.6,57.7L245.6,57.7l-1.5,4.3h2.9
	L245.6,57.7z M254.3,66.2c-0.5,0-1-0.1-1.4-0.3c-0.4-0.2-0.8-0.4-1-0.8c-0.3-0.3-0.5-0.7-0.6-1.2c-0.1-0.5-0.2-1-0.2-1.6
	s0.1-1.1,0.2-1.6c0.1-0.5,0.4-0.9,0.6-1.2c0.3-0.3,0.6-0.6,1-0.8c0.4-0.2,0.9-0.3,1.4-0.3c0.7,0,1.3,0.2,1.8,0.5
	c0.5,0.3,0.8,0.8,1,1.3l-1.3,0.6c-0.1-0.3-0.3-0.6-0.5-0.8c-0.3-0.2-0.6-0.3-1-0.3c-0.6,0-1,0.2-1.3,0.5c-0.3,0.3-0.4,0.8-0.4,1.4
	V63c0,0.6,0.1,1,0.4,1.4c0.3,0.3,0.7,0.5,1.3,0.5c0.4,0,0.8-0.1,1.1-0.3c0.3-0.2,0.5-0.5,0.6-0.9l1.2,0.6c-0.2,0.6-0.6,1.1-1.1,1.4
	C255.6,66,255,66.2,254.3,66.2z M261.4,66.2c-0.5,0-1-0.1-1.4-0.3c-0.4-0.2-0.8-0.4-1-0.8c-0.3-0.3-0.5-0.7-0.6-1.2
	c-0.1-0.5-0.2-1-0.2-1.6s0.1-1.1,0.2-1.6c0.1-0.5,0.4-0.9,0.6-1.2c0.3-0.3,0.6-0.6,1-0.8c0.4-0.2,0.9-0.3,1.4-0.3
	c0.7,0,1.3,0.2,1.8,0.5c0.5,0.3,0.8,0.8,1,1.3l-1.3,0.6c-0.1-0.3-0.3-0.6-0.5-0.8c-0.3-0.2-0.6-0.3-1-0.3c-0.6,0-1,0.2-1.3,0.5
	c-0.3,0.3-0.4,0.8-0.4,1.4V63c0,0.6,0.1,1,0.4,1.4c0.3,0.3,0.7,0.5,1.3,0.5c0.4,0,0.8-0.1,1.1-0.3c0.3-0.2,0.5-0.5,0.6-0.9l1.2,0.6
	c-0.2,0.6-0.6,1.1-1.1,1.4C262.7,66,262.1,66.2,261.4,66.2z M268.6,66.2c-0.5,0-1-0.1-1.4-0.3c-0.4-0.2-0.8-0.4-1-0.8
	c-0.3-0.3-0.5-0.7-0.7-1.2c-0.1-0.5-0.2-1-0.2-1.6s0.1-1.1,0.2-1.6c0.2-0.5,0.4-0.9,0.7-1.2c0.3-0.3,0.6-0.6,1-0.8
	c0.4-0.2,0.9-0.3,1.4-0.3c0.5,0,1,0.1,1.4,0.3c0.4,0.2,0.8,0.4,1,0.8c0.3,0.3,0.5,0.7,0.6,1.1c0.1,0.4,0.2,0.9,0.2,1.4v0.6h-5V63
	c0,0.6,0.2,1,0.5,1.4c0.3,0.4,0.8,0.5,1.4,0.5c0.4,0,0.8-0.1,1.1-0.3c0.3-0.2,0.6-0.5,0.8-0.8l0.9,0.9c-0.3,0.4-0.7,0.8-1.2,1.1
	C269.9,66,269.3,66.2,268.6,66.2z M268.6,59.7c-0.3,0-0.5,0-0.7,0.1c-0.2,0.1-0.4,0.2-0.6,0.4c-0.1,0.2-0.3,0.4-0.3,0.6
	c-0.1,0.2-0.1,0.5-0.1,0.8v0.1h3.4v-0.1c0-0.6-0.1-1-0.4-1.3C269.5,59.9,269.1,59.7,268.6,59.7z M273.6,66v-7.3h1.5v1.2h0.1
	c0.2-0.4,0.4-0.7,0.7-1c0.3-0.3,0.8-0.4,1.3-0.4c0.7,0,1.3,0.2,1.7,0.7c0.4,0.5,0.6,1.2,0.6,2.1V66h-1.5v-4.4c0-1.1-0.5-1.7-1.4-1.7
	c-0.2,0-0.4,0-0.6,0.1c-0.2,0-0.4,0.1-0.5,0.2c-0.1,0.1-0.3,0.2-0.4,0.4c-0.1,0.2-0.1,0.3-0.1,0.6V66H273.6z M283.9,66
	c-0.5,0-0.9-0.1-1.2-0.4c-0.3-0.3-0.4-0.7-0.4-1.2V60h-1.1v-1.2h0.6c0.3,0,0.4-0.1,0.5-0.2c0.1-0.1,0.2-0.3,0.2-0.5v-1.3h1.4v2h1.5
	V60h-1.5v4.8h1.4V66H283.9z"/>
<path class="st3" d="M255.9,144.2c-0.7,0-1.3-0.1-1.8-0.3c-0.5-0.2-1-0.5-1.4-0.9c-0.4-0.4-0.7-0.9-0.9-1.6
	c-0.2-0.6-0.3-1.4-0.3-2.2c0-0.8,0.1-1.5,0.3-2.2c0.2-0.6,0.5-1.2,0.9-1.6c0.4-0.4,0.8-0.8,1.4-1s1.1-0.3,1.8-0.3
	c0.9,0,1.7,0.2,2.2,0.6c0.6,0.4,1.1,0.9,1.4,1.7l-1.8,1c-0.1-0.4-0.3-0.7-0.6-1c-0.3-0.3-0.7-0.4-1.2-0.4c-0.6,0-1.1,0.2-1.5,0.6
	c-0.4,0.4-0.6,1-0.6,1.8v1.6c0,0.8,0.2,1.4,0.6,1.8c0.4,0.4,0.9,0.6,1.5,0.6c0.5,0,0.9-0.1,1.2-0.4c0.3-0.3,0.6-0.6,0.7-1l1.7,1
	c-0.4,0.7-0.8,1.3-1.4,1.7C257.5,144,256.8,144.2,255.9,144.2z M265.9,144v-1.9h-4.3v-1.8l3.8-6.1h2.5v6.3h1.2v1.6h-1.2v1.9H265.9z
	 M263.3,140.5h2.6v-4.1h-0.1L263.3,140.5z M272.2,144v-1.7h2.6v-6.6h-0.1l-2,2.6l-1.3-1.1l2.3-3.1h3.2v8.1h2.1v1.7H272.2z
	 M281.6,134.3h4.7c0.8,0,1.4,0.2,1.9,0.7c0.5,0.5,0.7,1.1,0.7,1.8c0,0.4-0.1,0.7-0.2,1c-0.1,0.3-0.2,0.5-0.4,0.6
	c-0.2,0.2-0.4,0.3-0.6,0.4c-0.2,0.1-0.4,0.1-0.7,0.1v0.1c0.2,0,0.5,0,0.7,0.1c0.3,0.1,0.5,0.2,0.7,0.4c0.2,0.2,0.4,0.4,0.5,0.7
	c0.1,0.3,0.2,0.6,0.2,1.1c0,0.4-0.1,0.7-0.2,1.1c-0.1,0.3-0.3,0.6-0.5,0.9s-0.5,0.5-0.8,0.6c-0.3,0.1-0.6,0.2-1,0.2h-5.2V134.3z
	 M283.7,142.2h2.5c0.3,0,0.5-0.1,0.7-0.2c0.2-0.2,0.3-0.4,0.3-0.7v-0.5c0-0.3-0.1-0.5-0.3-0.6c-0.2-0.2-0.4-0.2-0.7-0.2h-2.5V142.2z
	 M283.7,138.3h2.1c0.3,0,0.5-0.1,0.7-0.2c0.2-0.2,0.2-0.4,0.2-0.7V137c0-0.3-0.1-0.5-0.2-0.7c-0.2-0.2-0.4-0.2-0.7-0.2h-2.1V138.3z
	 M294.8,138.1c0.5,0,0.9-0.1,1.1-0.3c0.2-0.2,0.4-0.5,0.4-0.8V137c0-0.4-0.1-0.6-0.3-0.9c-0.2-0.2-0.5-0.3-1-0.3
	c-0.4,0-0.8,0.1-1.1,0.3c-0.3,0.2-0.6,0.5-0.9,0.9l-1.3-1.2c0.2-0.2,0.4-0.5,0.6-0.7c0.2-0.2,0.5-0.4,0.7-0.5
	c0.3-0.1,0.6-0.3,0.9-0.3c0.3-0.1,0.7-0.1,1.1-0.1c0.5,0,1,0.1,1.4,0.2c0.4,0.1,0.8,0.3,1.1,0.5c0.3,0.2,0.5,0.5,0.7,0.8
	c0.2,0.3,0.3,0.7,0.3,1.1c0,0.3-0.1,0.6-0.2,0.8c-0.1,0.3-0.2,0.5-0.4,0.7c-0.2,0.2-0.4,0.3-0.6,0.5c-0.2,0.1-0.5,0.2-0.7,0.2v0.1
	c0.3,0.1,0.6,0.1,0.8,0.3c0.3,0.1,0.5,0.3,0.6,0.5c0.2,0.2,0.3,0.4,0.4,0.7c0.1,0.3,0.2,0.6,0.2,0.9c0,0.4-0.1,0.8-0.3,1.2
	c-0.2,0.4-0.4,0.7-0.8,0.9c-0.3,0.3-0.7,0.4-1.2,0.6c-0.5,0.1-1,0.2-1.5,0.2c-0.5,0-0.9-0.1-1.3-0.2c-0.4-0.1-0.7-0.2-1-0.4
	c-0.3-0.2-0.5-0.4-0.7-0.6c-0.2-0.2-0.4-0.5-0.5-0.7l1.6-1.2c0.2,0.4,0.5,0.7,0.8,1c0.3,0.3,0.7,0.4,1.3,0.4c0.5,0,0.8-0.1,1.1-0.4
	c0.3-0.2,0.4-0.6,0.4-1v-0.1c0-0.4-0.2-0.7-0.5-0.9c-0.3-0.2-0.7-0.3-1.2-0.3h-0.9v-1.8H294.8z M305,144.2c-0.6,0-1.1-0.1-1.6-0.3
	c-0.5-0.2-0.8-0.4-1.2-0.8c-0.3-0.3-0.5-0.8-0.7-1.2c-0.2-0.5-0.2-1-0.2-1.6c0-0.7,0.1-1.3,0.3-1.9c0.2-0.6,0.5-1.2,0.8-1.7
	c0.3-0.5,0.7-1,1.1-1.4c0.4-0.4,0.8-0.8,1.3-1h2.9c-0.6,0.4-1.1,0.8-1.6,1.2c-0.5,0.4-0.9,0.8-1.2,1.2c-0.3,0.4-0.6,0.8-0.9,1.2
	c-0.2,0.4-0.4,0.8-0.5,1.3l0.1,0c0.1-0.2,0.2-0.4,0.3-0.5c0.1-0.2,0.3-0.3,0.4-0.5c0.2-0.1,0.4-0.3,0.6-0.3s0.5-0.1,0.8-0.1
	c0.4,0,0.8,0.1,1.1,0.2c0.4,0.1,0.7,0.3,0.9,0.6c0.3,0.3,0.5,0.6,0.6,1c0.1,0.4,0.2,0.8,0.2,1.2c0,0.5-0.1,1-0.3,1.4
	c-0.2,0.4-0.4,0.8-0.7,1.1c-0.3,0.3-0.7,0.5-1.1,0.7S305.6,144.2,305,144.2z M305,142.6c0.5,0,0.8-0.1,1.1-0.4
	c0.3-0.3,0.4-0.6,0.4-1.1v-0.3c0-0.5-0.1-0.8-0.4-1.1c-0.3-0.3-0.6-0.4-1.1-0.4s-0.8,0.1-1.1,0.4c-0.3,0.3-0.4,0.6-0.4,1.1v0.3
	c0,0.5,0.1,0.8,0.4,1.1C304.2,142.4,304.5,142.6,305,142.6z"/>
<path class="st6" d="M334.1,144v-9.8h6.5v1.9h-4.4v2h3.7v1.9h-3.7v4H334.1z M343.5,134.3h3.7c0.6,0,1.2,0.1,1.8,0.3
	c0.5,0.2,1,0.5,1.4,0.9c0.4,0.4,0.7,0.9,0.9,1.5c0.2,0.6,0.3,1.3,0.3,2.1c0,0.8-0.1,1.5-0.3,2.1c-0.2,0.6-0.5,1.1-0.9,1.5
	c-0.4,0.4-0.8,0.7-1.4,0.9c-0.5,0.2-1.1,0.3-1.8,0.3h-3.7V134.3z M347.2,142.1c0.6,0,1.1-0.2,1.5-0.5c0.4-0.4,0.5-0.9,0.5-1.7v-1.5
	c0-0.8-0.2-1.4-0.5-1.7c-0.4-0.4-0.9-0.5-1.5-0.5h-1.6v6H347.2z M354.5,144v-9.8h6.6v1.9h-4.5v2h3.9v1.9h-3.9v2.1h4.5v1.9H354.5z
	 M367.4,144.2c-1.3,0-2.2-0.4-2.8-1.3c-0.6-0.9-0.9-2.1-0.9-3.7c0-1.6,0.3-2.8,0.9-3.7c0.6-0.9,1.6-1.3,2.8-1.3s2.2,0.4,2.8,1.3
	c0.6,0.9,0.9,2.1,0.9,3.7c0,1.6-0.3,2.8-0.9,3.7C369.6,143.8,368.7,144.2,367.4,144.2z M367.4,142.4c0.6,0,0.9-0.2,1.2-0.6
	c0.2-0.4,0.3-1,0.3-1.7v-1.8c0-0.7-0.1-1.3-0.3-1.7c-0.2-0.4-0.6-0.6-1.2-0.6s-0.9,0.2-1.2,0.6c-0.2,0.4-0.3,1-0.3,1.7v1.8
	c0,0.7,0.1,1.3,0.3,1.7C366.5,142.2,366.8,142.4,367.4,142.4z M373.9,144v-9.8h6.7v1.9h-4.5v2h3.9v1.9h-3.9v2.1h4.5v1.9H373.9z
	 M389.9,136.1h-4.4l-0.2,3.1h0.1c0.1-0.2,0.2-0.4,0.3-0.6c0.1-0.2,0.3-0.4,0.4-0.5c0.2-0.1,0.4-0.2,0.6-0.3c0.2-0.1,0.5-0.1,0.8-0.1
	c0.4,0,0.8,0.1,1.2,0.2c0.4,0.1,0.7,0.3,1,0.6c0.3,0.3,0.5,0.6,0.6,1c0.2,0.4,0.2,0.8,0.2,1.3c0,0.5-0.1,1-0.3,1.4
	c-0.2,0.4-0.4,0.8-0.7,1.1c-0.3,0.3-0.7,0.6-1.2,0.7c-0.5,0.2-1,0.3-1.6,0.3c-0.5,0-0.9-0.1-1.3-0.2c-0.4-0.1-0.7-0.2-1-0.4
	c-0.3-0.2-0.5-0.4-0.7-0.6c-0.2-0.2-0.4-0.5-0.5-0.7l1.5-1.2c0.2,0.4,0.5,0.7,0.8,1c0.3,0.3,0.7,0.4,1.2,0.4c0.5,0,0.9-0.1,1.1-0.4
	c0.3-0.3,0.4-0.7,0.4-1.1v-0.1c0-0.4-0.1-0.8-0.4-1.1c-0.3-0.3-0.6-0.4-1.1-0.4c-0.4,0-0.7,0.1-1,0.2c-0.2,0.1-0.4,0.3-0.6,0.4
	l-1.7-0.2l0.4-5.5h6V136.1z"/>
<path class="st7" d="M483,101h74c1.1,0,2,0.9,2,2v72c0,1.1-0.9,2-2,2h-74c-1.1,0-2-0.9-2-2v-72C481,101.9,481.9,101,483,101z"/>
<path class="st8" d="M565,101h74c1.1,0,2,0.9,2,2v72c0,1.1-0.9,2-2,2h-74c-1.1,0-2-0.9-2-2v-72C563,101.9,563.9,101,565,101z"/>
<path class="st2" d="M482.2,66v-9.8h6.3v1.4h-4.7v2.7h4.2v1.4h-4.2v2.9h4.7V66H482.2z M490.5,66v-7.3h1.5v1.4h0.1
	c0.1-0.4,0.3-0.7,0.6-1c0.3-0.3,0.8-0.4,1.4-0.4h0.4v1.5h-0.6c-0.6,0-1.1,0.1-1.4,0.3c-0.3,0.2-0.5,0.5-0.5,0.9V66H490.5z M496,66
	v-7.3h1.5v1.4h0.1c0.1-0.4,0.3-0.7,0.6-1c0.3-0.3,0.8-0.4,1.4-0.4h0.4v1.5h-0.6c-0.6,0-1.1,0.1-1.4,0.3c-0.3,0.2-0.5,0.5-0.5,0.9V66
	H496z M504.2,66.2c-0.5,0-1-0.1-1.4-0.3c-0.4-0.2-0.8-0.4-1.1-0.8c-0.3-0.3-0.5-0.7-0.7-1.2c-0.2-0.5-0.2-1-0.2-1.6s0.1-1.1,0.2-1.6
	c0.2-0.5,0.4-0.9,0.7-1.2c0.3-0.3,0.6-0.6,1.1-0.8c0.4-0.2,0.9-0.3,1.4-0.3s1,0.1,1.4,0.3c0.4,0.2,0.8,0.4,1.1,0.8
	c0.3,0.3,0.5,0.7,0.7,1.2c0.2,0.5,0.2,1,0.2,1.6s-0.1,1.1-0.2,1.6c-0.2,0.5-0.4,0.9-0.7,1.2c-0.3,0.3-0.6,0.6-1.1,0.8
	C505.2,66.1,504.7,66.2,504.2,66.2z M504.2,64.9c0.5,0,0.9-0.2,1.3-0.5c0.3-0.3,0.5-0.8,0.5-1.5v-1.2c0-0.6-0.2-1.1-0.5-1.4
	c-0.3-0.3-0.7-0.5-1.3-0.5c-0.5,0-0.9,0.2-1.3,0.5c-0.3,0.3-0.5,0.8-0.5,1.4V63c0,0.6,0.2,1.1,0.5,1.5
	C503.3,64.7,503.7,64.9,504.2,64.9z M509.3,66v-7.3h1.5v1.4h0.1c0.1-0.4,0.3-0.7,0.6-1c0.3-0.3,0.8-0.4,1.4-0.4h0.4v1.5h-0.6
	c-0.6,0-1.1,0.1-1.4,0.3c-0.3,0.2-0.5,0.5-0.5,0.9V66H509.3z"/>
<path class="st3" d="M496.1,144.2c1.8,0,3-0.9,3.7-2.3l-1.7-1c-0.3,0.8-0.9,1.5-1.9,1.5c-1.2,0-2.1-0.8-2.1-2.4v-1.6
	c0-1.5,0.8-2.4,2.1-2.4c1,0,1.6,0.5,1.8,1.4l1.8-1c-0.7-1.6-1.9-2.3-3.7-2.3c-2.6,0-4.3,1.8-4.3,5.1S493.5,144.2,496.1,144.2z
	 M506.3,144.2c1.8,0,3-0.9,3.7-2.3l-1.7-1c-0.3,0.8-0.9,1.5-1.9,1.5c-1.2,0-2.1-0.8-2.1-2.4v-1.6c0-1.5,0.8-2.4,2.1-2.4
	c1,0,1.6,0.5,1.8,1.4l1.8-1c-0.7-1.6-1.9-2.3-3.7-2.3c-2.6,0-4.3,1.8-4.3,5.1S503.6,144.2,506.3,144.2z M515.8,144.2
	c2.6,0,3.8-1.9,3.8-5.1c0-3.2-1.2-5.1-3.8-5.1c-2.6,0-3.8,1.9-3.8,5.1C512,142.3,513.3,144.2,515.8,144.2z M515.8,142.4
	c-1.1,0-1.5-0.9-1.5-2.4v-1.8c0-1.5,0.4-2.4,1.5-2.4s1.5,0.9,1.5,2.4v1.8C517.3,141.6,516.9,142.4,515.8,142.4z M525.5,144.2
	c2.6,0,3.8-1.9,3.8-5.1c0-3.2-1.2-5.1-3.8-5.1s-3.8,1.9-3.8,5.1C521.7,142.3,522.9,144.2,525.5,144.2z M525.5,142.4
	c-1.1,0-1.5-0.9-1.5-2.4v-1.8c0-1.5,0.4-2.4,1.5-2.4s1.5,0.9,1.5,2.4v1.8C526.9,141.6,526.6,142.4,525.5,142.4z M535.1,144.2
	c2.6,0,3.8-1.9,3.8-5.1c0-3.2-1.2-5.1-3.8-5.1c-2.6,0-3.8,1.9-3.8,5.1C531.3,142.3,532.5,144.2,535.1,144.2z M535.1,142.4
	c-1.1,0-1.5-0.9-1.5-2.4v-1.8c0-1.5,0.4-2.4,1.5-2.4s1.5,0.9,1.5,2.4v1.8C536.6,141.6,536.2,142.4,535.1,142.4z M544.8,144.2
	c2.6,0,3.8-1.9,3.8-5.1c0-3.2-1.2-5.1-3.8-5.1s-3.8,1.9-3.8,5.1C541,142.3,542.2,144.2,544.8,144.2z M544.8,142.4
	c-1.1,0-1.5-0.9-1.5-2.4v-1.8c0-1.5,0.4-2.4,1.5-2.4s1.5,0.9,1.5,2.4v1.8C546.2,141.6,545.9,142.4,544.8,142.4z"/>
<path class="st6" d="M574.8,144v-9.8h6.5v1.9h-4.4v2h3.7v1.9h-3.7v4H574.8z M590.9,138c0,0.7-0.1,1.3-0.3,1.9
	c-0.2,0.6-0.5,1.2-0.8,1.7c-0.3,0.5-0.7,1-1.1,1.4c-0.4,0.4-0.8,0.8-1.2,1h-2.9c0.6-0.4,1.1-0.8,1.6-1.2c0.5-0.4,0.9-0.8,1.2-1.2
	c0.4-0.4,0.6-0.8,0.9-1.2c0.2-0.4,0.4-0.8,0.5-1.3l-0.1,0c-0.1,0.2-0.2,0.4-0.3,0.5c-0.1,0.2-0.3,0.3-0.4,0.5
	c-0.2,0.1-0.4,0.2-0.6,0.3c-0.2,0.1-0.5,0.1-0.8,0.1c-0.4,0-0.8-0.1-1.1-0.2c-0.3-0.1-0.6-0.4-0.9-0.6c-0.3-0.3-0.5-0.6-0.6-1
	c-0.1-0.4-0.2-0.8-0.2-1.3c0-0.5,0.1-1,0.3-1.4c0.2-0.4,0.4-0.8,0.7-1.1c0.3-0.3,0.7-0.5,1.2-0.7s1-0.3,1.5-0.3
	c0.6,0,1.1,0.1,1.6,0.3c0.5,0.2,0.8,0.4,1.1,0.8c0.3,0.3,0.6,0.7,0.7,1.2C590.9,136.9,590.9,137.4,590.9,138z M587.3,139
	c0.5,0,0.8-0.1,1.1-0.4c0.3-0.3,0.4-0.6,0.4-1.1v-0.3c0-0.5-0.1-0.8-0.4-1.1c-0.3-0.3-0.6-0.4-1.1-0.4s-0.8,0.1-1.1,0.4
	c-0.3,0.3-0.4,0.6-0.4,1.1v0.3c0,0.5,0.1,0.8,0.4,1.1C586.4,138.8,586.8,139,587.3,139z M593.8,144v-9.8h6.7v1.9H596v2h3.9v1.9H596
	v2.1h4.5v1.9H593.8z M606.7,144.2c-1.3,0-2.2-0.4-2.8-1.3c-0.6-0.9-0.9-2.1-0.9-3.7c0-1.6,0.3-2.8,0.9-3.7c0.6-0.9,1.6-1.3,2.8-1.3
	c1.3,0,2.2,0.4,2.8,1.3c0.6,0.9,0.9,2.1,0.9,3.7c0,1.6-0.3,2.8-0.9,3.7C608.9,143.8,608,144.2,606.7,144.2z M606.7,142.4
	c0.6,0,0.9-0.2,1.2-0.6c0.2-0.4,0.3-1,0.3-1.7v-1.8c0-0.7-0.1-1.3-0.3-1.7c-0.2-0.4-0.6-0.6-1.2-0.6s-0.9,0.2-1.2,0.6
	c-0.2,0.4-0.3,1-0.3,1.7v1.8c0,0.7,0.1,1.3,0.3,1.7C605.8,142.2,606.2,142.4,606.7,142.4z M613.2,144v-9.8h6.7v1.9h-4.5v2h3.9v1.9
	h-3.9v2.1h4.5v1.9H613.2z M626.1,144.2c-1.3,0-2.2-0.4-2.8-1.3c-0.6-0.9-0.9-2.1-0.9-3.7c0-1.6,0.3-2.8,0.9-3.7
	c0.6-0.9,1.6-1.3,2.8-1.3c1.3,0,2.2,0.4,2.8,1.3c0.6,0.9,0.9,2.1,0.9,3.7c0,1.6-0.3,2.8-0.9,3.7
	C628.3,143.8,627.4,144.2,626.1,144.2z M626.1,142.4c0.6,0,0.9-0.2,1.2-0.6c0.2-0.4,0.3-1,0.3-1.7v-1.8c0-0.7-0.1-1.3-0.3-1.7
	c-0.2-0.4-0.6-0.6-1.2-0.6c-0.6,0-0.9,0.2-1.2,0.6c-0.2,0.4-0.3,1-0.3,1.7v1.8c0,0.7,0.1,1.3,0.3,1.7
	C625.2,142.2,625.6,142.4,626.1,142.4z"/>
<path class="st0" d="M723,98h74c1.1,0,2,0.9,2,2v75c0,1.1-0.9,2-2,2h-74c-1.1,0-2-0.9-2-2v-75C721,98.9,721.9,98,723,98z"/>
<path class="st2" d="M729.9,65h-1.7v-4.4h-4.4V65H722V55h1.7v4.1h4.4V55h1.7V65z M735.2,65.1c-1.1,0-1.9-0.3-2.6-1
	c-0.7-0.7-1-1.5-1-2.7v-0.2c0-0.7,0.1-1.4,0.4-2c0.3-0.6,0.7-1,1.2-1.4c0.5-0.3,1.1-0.5,1.7-0.5c1,0,1.8,0.3,2.3,1
	c0.6,0.6,0.8,1.6,0.8,2.7v0.7h-4.8c0,0.6,0.3,1.1,0.6,1.4c0.4,0.4,0.8,0.5,1.4,0.5c0.8,0,1.4-0.3,1.9-0.9l0.9,0.9
	c-0.3,0.4-0.7,0.8-1.2,1C736.3,65,735.8,65.1,735.2,65.1z M735,58.8c-0.5,0-0.8,0.2-1.1,0.5c-0.3,0.3-0.5,0.8-0.5,1.3h3.2v-0.1
	c0-0.6-0.2-1-0.4-1.3C735.8,58.9,735.4,58.8,735,58.8z M743.9,65c-0.1-0.1-0.1-0.4-0.2-0.7c-0.5,0.6-1.2,0.8-1.9,0.8
	c-0.7,0-1.3-0.2-1.8-0.6c-0.5-0.4-0.7-0.9-0.7-1.6c0-0.8,0.3-1.4,0.9-1.8c0.6-0.4,1.4-0.6,2.5-0.6h1V60c0-0.4-0.1-0.7-0.3-0.9
	c-0.2-0.2-0.5-0.3-1-0.3c-0.4,0-0.7,0.1-0.9,0.3c-0.2,0.2-0.4,0.4-0.4,0.7h-1.7c0-0.4,0.1-0.8,0.4-1.1c0.3-0.4,0.6-0.6,1.1-0.8
	c0.5-0.2,1-0.3,1.6-0.3c0.9,0,1.6,0.2,2.1,0.7c0.5,0.4,0.8,1,0.8,1.8v3.3c0,0.7,0.1,1.2,0.3,1.6V65H743.9z M742.1,63.8
	c0.3,0,0.6-0.1,0.9-0.2c0.3-0.2,0.5-0.4,0.7-0.6v-1.4h-0.9c-0.6,0-1.1,0.1-1.4,0.3c-0.3,0.2-0.5,0.5-0.5,0.9c0,0.3,0.1,0.6,0.3,0.8
	C741.5,63.7,741.8,63.8,742.1,63.8z M746.9,61.2c0-1.1,0.3-2.1,0.8-2.7c0.5-0.7,1.2-1,2.1-1c0.8,0,1.4,0.3,1.9,0.8v-3.8h1.7V65h-1.5
	l-0.1-0.8c-0.5,0.6-1.2,0.9-2,0.9c-0.9,0-1.6-0.3-2.1-1C747.2,63.4,746.9,62.4,746.9,61.2z M748.5,61.4c0,0.8,0.1,1.3,0.4,1.8
	c0.3,0.4,0.7,0.6,1.2,0.6c0.7,0,1.2-0.3,1.5-0.9v-3.2c-0.3-0.6-0.8-0.9-1.5-0.9c-0.5,0-1,0.2-1.2,0.6
	C748.7,59.9,748.5,60.5,748.5,61.4z M758.5,65.1c-1.1,0-1.9-0.3-2.6-1c-0.7-0.7-1-1.5-1-2.7v-0.2c0-0.7,0.1-1.4,0.4-2
	c0.3-0.6,0.7-1,1.2-1.4c0.5-0.3,1.1-0.5,1.7-0.5c1,0,1.8,0.3,2.3,1c0.6,0.6,0.8,1.6,0.8,2.7v0.7h-4.8c0.1,0.6,0.3,1.1,0.6,1.4
	c0.4,0.4,0.8,0.5,1.4,0.5c0.8,0,1.4-0.3,1.9-0.9l0.9,0.9c-0.3,0.4-0.7,0.8-1.2,1C759.6,65,759.1,65.1,758.5,65.1z M758.3,58.8
	c-0.5,0-0.8,0.2-1.1,0.5c-0.3,0.3-0.5,0.8-0.5,1.3h3.2v-0.1c0-0.6-0.2-1-0.4-1.3C759.1,58.9,758.7,58.8,758.3,58.8z M766.7,59.1
	c-0.2,0-0.4-0.1-0.7-0.1c-0.8,0-1.3,0.3-1.5,0.9V65h-1.7v-7.4h1.6l0,0.8c0.4-0.6,1-1,1.7-1c0.2,0,0.4,0,0.6,0.1L766.7,59.1z"/>
<path class="st3" d="M739.2,143.2c2.4,0,3.5-1.9,3.5-5.1s-1.1-5.1-3.5-5.1c-2.4,0-3.5,1.9-3.5,5.1S736.8,143.2,739.2,143.2z
	 M739.2,141.8c-1.4,0-1.9-1.1-1.9-2.9v-1.7c0-1.7,0.5-2.9,1.9-2.9c1.4,0,1.9,1.1,1.9,2.9v1.7C741.1,140.7,740.6,141.8,739.2,141.8z
	 M747.6,143.2c2.4,0,3.5-1.9,3.5-5.1s-1.1-5.1-3.5-5.1c-2.4,0-3.5,1.9-3.5,5.1S745.2,143.2,747.6,143.2z M747.6,141.8
	c-1.4,0-1.9-1.1-1.9-2.9v-1.7c0-1.7,0.5-2.9,1.9-2.9c1.4,0,1.9,1.1,1.9,2.9v1.7C749.5,140.7,749,141.8,747.6,141.8z M755.9,143
	l3.4-8.4v-1.4h-6.6v3.1h1.4v-1.8h3.7l-3.5,8.5H755.9z M763,143v-4.3h4v-1.4h-4v-2.7h4.5v-1.4h-6.1v9.8H763z M776.3,143l-3.3-9.8h-2
	l-3.3,9.8h1.6l0.9-2.6h3.7l0.9,2.6H776.3z M773.4,139h-2.9l1.4-4.3h0.1L773.4,139z M779.3,137.2v1.3h1c1.2,0,1.9,0.5,1.9,1.5v0.1
	c0,1-0.7,1.6-1.8,1.6c-1.1,0-1.7-0.5-2.2-1.3l-1.2,0.9c0.6,0.9,1.5,1.8,3.3,1.8c2.1,0,3.5-1.1,3.5-2.9c0-1.4-0.9-2.2-2-2.4v-0.1
	c1-0.2,1.9-1,1.9-2.2c0-1.6-1.3-2.5-3.2-2.5c-1.6,0-2.5,0.8-3.1,1.6l1,0.9c0.4-0.7,1.1-1.2,2-1.2c0.9,0,1.6,0.5,1.6,1.4v0.1
	c0,0.8-0.6,1.4-1.8,1.4H779.3z"/>
<path class="st9" d="M2,252h156c1.1,0,2,0.9,2,2v72c0,1.1-0.9,2-2,2H2c-1.1,0-2-0.9-2-2v-72C0,252.9,0.9,252,2,252z"/>
<path class="st2" d="M1.2,207.2h4.3c0.8,0,1.4,0.2,1.9,0.7c0.5,0.5,0.7,1.1,0.7,1.8c0,0.4-0.1,0.7-0.2,0.9c-0.1,0.3-0.2,0.5-0.4,0.6
	c-0.2,0.2-0.3,0.3-0.5,0.4c-0.2,0.1-0.4,0.1-0.6,0.1v0.1c0.2,0,0.4,0.1,0.6,0.1c0.2,0.1,0.5,0.2,0.7,0.4c0.2,0.2,0.4,0.4,0.5,0.7
	c0.1,0.3,0.2,0.6,0.2,1c0,0.4-0.1,0.8-0.2,1.1c-0.1,0.3-0.3,0.6-0.5,0.9s-0.5,0.5-0.8,0.6c-0.3,0.1-0.6,0.2-1,0.2H1.2V207.2z
	 M2.8,215.6h2.7c0.4,0,0.7-0.1,1-0.3c0.2-0.2,0.3-0.5,0.3-0.9v-0.5c0-0.4-0.1-0.7-0.3-0.9c-0.2-0.2-0.6-0.3-1-0.3H2.8V215.6z
	 M2.8,211.4h2.5c0.4,0,0.7-0.1,0.9-0.3c0.2-0.2,0.3-0.5,0.3-0.9v-0.4c0-0.4-0.1-0.7-0.3-0.9c-0.2-0.2-0.5-0.3-0.9-0.3H2.8V211.4z
	 M15.8,217c-0.4,0-0.7-0.1-0.9-0.3c-0.2-0.2-0.3-0.5-0.4-0.9h-0.1c-0.1,0.5-0.4,0.8-0.8,1c-0.4,0.2-0.8,0.4-1.4,0.4
	c-0.8,0-1.3-0.2-1.8-0.6c-0.4-0.4-0.6-0.9-0.6-1.6c0-0.7,0.3-1.3,0.8-1.6c0.5-0.4,1.3-0.5,2.3-0.5h1.3v-0.6c0-0.4-0.1-0.8-0.4-1
	c-0.2-0.2-0.6-0.4-1.1-0.4c-0.4,0-0.8,0.1-1.1,0.3c-0.3,0.2-0.5,0.4-0.7,0.7l-0.9-0.8c0.2-0.4,0.6-0.7,1-1c0.4-0.3,1-0.4,1.7-0.4
	c0.9,0,1.7,0.2,2.2,0.7c0.5,0.4,0.8,1.1,0.8,1.9v3.7h0.8v1.2H15.8z M12.7,216c0.5,0,0.9-0.1,1.2-0.3c0.3-0.2,0.5-0.5,0.5-0.9v-1H13
	c-1.1,0-1.6,0.3-1.6,1v0.3c0,0.3,0.1,0.6,0.3,0.7C12,215.9,12.3,216,12.7,216z M21,217.2c-0.5,0-1-0.1-1.4-0.3
	c-0.4-0.2-0.8-0.4-1-0.8c-0.3-0.3-0.5-0.7-0.6-1.2c-0.1-0.5-0.2-1-0.2-1.6s0.1-1.1,0.2-1.6c0.1-0.5,0.4-0.9,0.6-1.2
	c0.3-0.3,0.6-0.6,1-0.8c0.4-0.2,0.9-0.3,1.4-0.3c0.7,0,1.3,0.2,1.8,0.5c0.5,0.3,0.8,0.8,1,1.3l-1.3,0.6c-0.1-0.3-0.3-0.6-0.5-0.8
	c-0.3-0.2-0.6-0.3-1-0.3c-0.6,0-1,0.2-1.3,0.5c-0.3,0.3-0.4,0.8-0.4,1.4v1.3c0,0.6,0.1,1,0.4,1.4c0.3,0.3,0.7,0.5,1.3,0.5
	c0.4,0,0.8-0.1,1.1-0.3c0.3-0.2,0.5-0.5,0.6-0.9l1.2,0.6c-0.2,0.6-0.6,1.1-1.1,1.4S21.7,217.2,21,217.2z M25.4,206.6H27v6.4H27
	l1-1.3l1.8-2h1.8l-2.5,2.8l2.9,4.5h-1.8l-2.1-3.5l-1,1.1v2.4h-1.5V206.6z M39.5,217.7c0,0.8-0.3,1.3-0.9,1.7
	c-0.6,0.4-1.5,0.6-2.8,0.6c-0.6,0-1.1,0-1.5-0.1c-0.4-0.1-0.8-0.2-1-0.3c-0.3-0.1-0.5-0.3-0.6-0.5c-0.1-0.2-0.2-0.5-0.2-0.7
	c0-0.4,0.1-0.7,0.3-0.9c0.2-0.2,0.5-0.4,0.9-0.5v-0.2c-0.6-0.2-0.8-0.6-0.8-1.1c0-0.4,0.1-0.7,0.4-0.9c0.3-0.2,0.6-0.4,0.9-0.4v-0.1
	c-0.4-0.2-0.8-0.5-1-0.9c-0.2-0.4-0.3-0.8-0.3-1.3c0-0.7,0.2-1.3,0.7-1.8c0.5-0.5,1.2-0.7,2.2-0.7c0.5,0,1,0.1,1.3,0.2v-0.2
	c0-0.3,0.1-0.6,0.2-0.8c0.2-0.2,0.4-0.3,0.7-0.3h1.1v1.2h-1.5v0.3c0.3,0.2,0.6,0.5,0.8,0.8c0.2,0.3,0.3,0.7,0.3,1.1
	c0,0.7-0.3,1.3-0.8,1.8c-0.5,0.4-1.2,0.7-2.2,0.7c-0.4,0-0.7,0-1-0.1c-0.2,0.1-0.4,0.2-0.5,0.3c-0.1,0.1-0.2,0.3-0.2,0.4
	c0,0.2,0.1,0.3,0.3,0.4c0.2,0.1,0.4,0.1,0.8,0.1H37c0.9,0,1.5,0.2,1.9,0.5C39.3,216.6,39.5,217.1,39.5,217.7z M38.1,217.9
	c0-0.3-0.1-0.5-0.3-0.6c-0.2-0.1-0.5-0.2-1-0.2h-2.5c-0.3,0.2-0.5,0.5-0.5,0.8c0,0.3,0.1,0.5,0.4,0.7c0.2,0.2,0.6,0.3,1.2,0.3h1
	C37.5,218.9,38.1,218.5,38.1,217.9z M35.8,213.4c0.4,0,0.8-0.1,1-0.3c0.3-0.2,0.4-0.5,0.4-0.9v-0.3c0-0.4-0.1-0.7-0.4-0.9
	c-0.2-0.2-0.6-0.3-1-0.3c-0.4,0-0.8,0.1-1.1,0.3c-0.2,0.2-0.4,0.5-0.4,0.9v0.3c0,0.4,0.1,0.7,0.4,0.9
	C35,213.3,35.3,213.4,35.8,213.4z M40.7,217v-7.3h1.5v1.4h0.1c0.1-0.4,0.3-0.7,0.6-1c0.3-0.3,0.8-0.4,1.4-0.4h0.4v1.5h-0.6
	c-0.6,0-1.1,0.1-1.4,0.3c-0.3,0.2-0.5,0.5-0.5,0.9v4.6H40.7z M49,217.2c-0.5,0-1-0.1-1.4-0.3c-0.4-0.2-0.8-0.4-1-0.8
	c-0.3-0.3-0.5-0.7-0.7-1.2c-0.2-0.5-0.2-1-0.2-1.6s0.1-1.1,0.2-1.6c0.2-0.5,0.4-0.9,0.7-1.2c0.3-0.3,0.6-0.6,1-0.8
	c0.4-0.2,0.9-0.3,1.4-0.3c0.5,0,1,0.1,1.4,0.3c0.4,0.2,0.8,0.4,1.1,0.8c0.3,0.3,0.5,0.7,0.7,1.2c0.2,0.5,0.2,1,0.2,1.6
	s-0.1,1.1-0.2,1.6c-0.2,0.5-0.4,0.9-0.7,1.2c-0.3,0.3-0.6,0.6-1.1,0.8C49.9,217.1,49.5,217.2,49,217.2z M49,215.9
	c0.5,0,0.9-0.2,1.3-0.5c0.3-0.3,0.5-0.8,0.5-1.5v-1.2c0-0.6-0.2-1.1-0.5-1.4c-0.3-0.3-0.7-0.5-1.3-0.5c-0.5,0-0.9,0.2-1.3,0.5
	c-0.3,0.3-0.5,0.8-0.5,1.4v1.2c0,0.6,0.2,1.1,0.5,1.5C48,215.7,48.5,215.9,49,215.9z M58.5,215.8L58.5,215.8
	c-0.1,0.2-0.2,0.3-0.3,0.5c-0.1,0.2-0.2,0.3-0.4,0.4c-0.2,0.1-0.4,0.2-0.6,0.3c-0.2,0.1-0.5,0.1-0.8,0.1c-0.8,0-1.3-0.2-1.8-0.7
	c-0.4-0.5-0.6-1.2-0.6-2.1v-4.6h1.5v4.4c0,1.1,0.5,1.7,1.4,1.7c0.2,0,0.4,0,0.6-0.1c0.2-0.1,0.4-0.1,0.5-0.2
	c0.1-0.1,0.3-0.2,0.3-0.4c0.1-0.2,0.1-0.3,0.1-0.6v-4.9h1.5v7.3h-1.5V215.8z M62.3,217v-7.3h1.5v1.2h0.1c0.2-0.4,0.4-0.7,0.7-1
	c0.3-0.3,0.8-0.4,1.3-0.4c0.7,0,1.3,0.2,1.7,0.7c0.4,0.5,0.6,1.2,0.6,2.1v4.6h-1.5v-4.4c0-1.1-0.5-1.7-1.4-1.7c-0.2,0-0.4,0-0.6,0.1
	c-0.2,0-0.4,0.1-0.5,0.2c-0.1,0.1-0.3,0.2-0.4,0.4c-0.1,0.2-0.1,0.3-0.1,0.6v4.9H62.3z M75.1,215.8L75.1,215.8
	c-0.2,0.4-0.5,0.8-0.9,1c-0.4,0.2-0.8,0.4-1.3,0.4c-0.9,0-1.6-0.3-2.1-1c-0.5-0.7-0.8-1.6-0.8-2.8s0.3-2.1,0.8-2.8
	c0.5-0.7,1.2-1,2.1-1c0.5,0,0.9,0.1,1.3,0.4c0.4,0.2,0.6,0.6,0.8,1h0.1v-4.3h1.5V217h-1.5V215.8z M73.5,215.9c0.5,0,0.9-0.1,1.2-0.3
	c0.3-0.2,0.5-0.5,0.5-0.9v-2.5c0-0.4-0.2-0.7-0.5-0.9c-0.3-0.2-0.7-0.4-1.2-0.4c-0.5,0-1,0.2-1.3,0.5c-0.3,0.3-0.5,0.8-0.5,1.3v1.3
	c0,0.6,0.2,1,0.5,1.4C72.5,215.7,73,215.9,73.5,215.9z M82.1,217v-1.3h1.3v-7.2h-1.3v-1.3h4.3v1.3H85v7.2h1.3v1.3H82.1z M88.3,217
	v-7.3h1.5v1.2h0.1c0.2-0.4,0.4-0.7,0.7-1c0.3-0.3,0.8-0.4,1.3-0.4c0.7,0,1.3,0.2,1.7,0.7c0.4,0.5,0.6,1.2,0.6,2.1v4.6h-1.5v-4.4
	c0-1.1-0.5-1.7-1.4-1.7c-0.2,0-0.4,0-0.6,0.1c-0.2,0-0.4,0.1-0.5,0.2c-0.1,0.1-0.3,0.2-0.4,0.4c-0.1,0.2-0.1,0.3-0.1,0.6v4.9H88.3z
	 M96.9,211h-1.1v-1.2h1.1v-1.2c0-0.6,0.2-1,0.5-1.4c0.3-0.3,0.8-0.5,1.4-0.5h1.2v1.2h-1.5v1.8h1.5v1.2h-1.5v6h-1.5V211z
	 M104.2,217.2c-0.5,0-1-0.1-1.4-0.3c-0.4-0.2-0.8-0.4-1-0.8c-0.3-0.3-0.5-0.7-0.7-1.2c-0.2-0.5-0.2-1-0.2-1.6s0.1-1.1,0.2-1.6
	c0.2-0.5,0.4-0.9,0.7-1.2c0.3-0.3,0.6-0.6,1-0.8c0.4-0.2,0.9-0.3,1.4-0.3s1,0.1,1.4,0.3c0.4,0.2,0.8,0.4,1.1,0.8
	c0.3,0.3,0.5,0.7,0.7,1.2c0.2,0.5,0.2,1,0.2,1.6s-0.1,1.1-0.2,1.6c-0.2,0.5-0.4,0.9-0.7,1.2c-0.3,0.3-0.6,0.6-1.1,0.8
	C105.1,217.1,104.7,217.2,104.2,217.2z M104.2,215.9c0.5,0,0.9-0.2,1.3-0.5c0.3-0.3,0.5-0.8,0.5-1.5v-1.2c0-0.6-0.2-1.1-0.5-1.4
	c-0.3-0.3-0.7-0.5-1.3-0.5c-0.5,0-0.9,0.2-1.3,0.5c-0.3,0.3-0.5,0.8-0.5,1.4v1.2c0,0.6,0.2,1.1,0.5,1.5
	C103.2,215.7,103.6,215.9,104.2,215.9z"/>
<path class="st3" d="M56.4,295v-1.9h-4.3v-1.8l3.8-6.1h2.5v6.3h1.2v1.6h-1.2v1.9H56.4z M53.8,291.5h2.6v-4.1h-0.1L53.8,291.5z
	 M66.1,295v-1.9h-4.3v-1.8l3.8-6.1h2.5v6.3h1.2v1.6h-1.2v1.9H66.1z M63.4,291.5h2.6v-4.1h-0.1L63.4,291.5z M75.7,295v-1.9h-4.3v-1.8
	l3.8-6.1h2.5v6.3h1.2v1.6h-1.2v1.9H75.7z M73.1,291.5h2.6v-4.1h-0.1L73.1,291.5z M85.3,295v-1.9H81v-1.8l3.8-6.1h2.5v6.3h1.2v1.6
	h-1.2v1.9H85.3z M82.7,291.5h2.6v-4.1h-0.1L82.7,291.5z M95,295v-1.9h-4.3v-1.8l3.8-6.1H97v6.3h1.2v1.6H97v1.9H95z M92.4,291.5H95
	v-4.1h-0.1L92.4,291.5z M104.6,295v-1.9h-4.3v-1.8l3.8-6.1h2.5v6.3h1.2v1.6h-1.2v1.9H104.6z M102,291.5h2.6v-4.1h-0.1L102,291.5z"/>
<path d="M2,400h156c1.1,0,2,0.9,2,2v75c0,1.1-0.9,2-2,2H2c-1.1,0-2-0.9-2-2v-75C0,400.9,0.9,400,2,400z"/>
<path class="st2" d="M8.2,358.4H5.1v8.6H3.4v-8.6H0.3V357h7.9V358.4z M12.1,367.1c-1.1,0-1.9-0.3-2.6-1c-0.7-0.7-1-1.5-1-2.7v-0.2
	c0-0.7,0.1-1.4,0.4-2c0.3-0.6,0.7-1,1.2-1.4c0.5-0.3,1.1-0.5,1.7-0.5c1,0,1.8,0.3,2.3,1c0.6,0.6,0.8,1.6,0.8,2.7v0.7h-4.8
	c0.1,0.6,0.3,1.1,0.6,1.4c0.4,0.4,0.8,0.5,1.4,0.5c0.8,0,1.4-0.3,1.9-0.9l0.9,0.9c-0.3,0.4-0.7,0.8-1.2,1
	C13.3,367,12.7,367.1,12.1,367.1z M11.9,360.8c-0.5,0-0.8,0.2-1.1,0.5c-0.3,0.3-0.5,0.8-0.5,1.3h3.2v-0.1c0-0.6-0.2-1-0.4-1.3
	C12.7,360.9,12.4,360.8,11.9,360.8z M19.1,362l1.4-2.4h1.8l-2.3,3.6l2.3,3.8h-1.8l-1.5-2.5l-1.5,2.5h-1.8l2.3-3.8l-2.3-3.6h1.8
	L19.1,362z M25.7,357.8v1.8H27v1.2h-1.3v4.1c0,0.3,0.1,0.5,0.2,0.6c0.1,0.1,0.3,0.2,0.6,0.2c0.2,0,0.4,0,0.6-0.1v1.3
	c-0.4,0.1-0.7,0.2-1.1,0.2c-1.3,0-1.9-0.7-1.9-2.1v-4.2h-1.2v-1.2H24v-1.8H25.7z"/>
<path class="st3" d="M59,445.2c-0.6,0-1.1-0.1-1.6-0.3c-0.4-0.2-0.8-0.6-1.1-1c-0.3-0.4-0.5-1-0.6-1.6c-0.1-0.6-0.2-1.3-0.2-2.1
	c0-0.8,0.1-1.5,0.2-2.1c0.1-0.6,0.4-1.2,0.6-1.6c0.3-0.4,0.7-0.8,1.1-1c0.4-0.2,1-0.4,1.6-0.4c1.2,0,2.1,0.4,2.7,1.3
	c0.6,0.9,0.9,2.1,0.9,3.7c0,1.6-0.3,2.8-0.9,3.7C61.1,444.7,60.2,445.2,59,445.2z M59,443.8c0.3,0,0.6-0.1,0.9-0.2
	c0.2-0.1,0.4-0.3,0.6-0.6c0.1-0.3,0.3-0.6,0.3-0.9c0.1-0.4,0.1-0.7,0.1-1.2v-1.7c0-0.4,0-0.8-0.1-1.2c-0.1-0.4-0.2-0.7-0.3-0.9
	c-0.1-0.3-0.3-0.4-0.6-0.6c-0.2-0.1-0.5-0.2-0.9-0.2c-0.3,0-0.6,0.1-0.9,0.2c-0.2,0.1-0.4,0.3-0.6,0.6c-0.1,0.3-0.3,0.6-0.3,0.9
	c-0.1,0.3-0.1,0.7-0.1,1.2v1.7c0,0.4,0,0.8,0.1,1.2c0.1,0.3,0.2,0.6,0.3,0.9c0.1,0.3,0.3,0.4,0.6,0.6
	C58.4,443.8,58.7,443.8,59,443.8z M67.4,445.2c-0.6,0-1.1-0.1-1.6-0.3c-0.4-0.2-0.8-0.6-1.1-1c-0.3-0.4-0.5-1-0.6-1.6
	c-0.1-0.6-0.2-1.3-0.2-2.1c0-0.8,0.1-1.5,0.2-2.1c0.1-0.6,0.4-1.2,0.6-1.6c0.3-0.4,0.7-0.8,1.1-1c0.4-0.2,1-0.4,1.6-0.4
	c1.2,0,2.1,0.4,2.7,1.3c0.6,0.9,0.9,2.1,0.9,3.7c0,1.6-0.3,2.8-0.9,3.7C69.5,444.7,68.6,445.2,67.4,445.2z M67.4,443.8
	c0.3,0,0.6-0.1,0.9-0.2c0.2-0.1,0.4-0.3,0.6-0.6c0.1-0.3,0.3-0.6,0.3-0.9c0.1-0.4,0.1-0.7,0.1-1.2v-1.7c0-0.4,0-0.8-0.1-1.2
	c-0.1-0.4-0.2-0.7-0.3-0.9c-0.1-0.3-0.3-0.4-0.6-0.6c-0.2-0.1-0.5-0.2-0.9-0.2c-0.3,0-0.6,0.1-0.9,0.2c-0.2,0.1-0.4,0.3-0.6,0.6
	c-0.1,0.3-0.3,0.6-0.3,0.9c-0.1,0.3-0.1,0.7-0.1,1.2v1.7c0,0.4,0,0.8,0.1,1.2c0.1,0.3,0.2,0.6,0.3,0.9c0.1,0.3,0.3,0.4,0.6,0.6
	C66.8,443.8,67.1,443.8,67.4,443.8z M75.8,445.2c-0.6,0-1.1-0.1-1.6-0.3c-0.4-0.2-0.8-0.6-1.1-1c-0.3-0.4-0.5-1-0.6-1.6
	s-0.2-1.3-0.2-2.1c0-0.8,0.1-1.5,0.2-2.1c0.1-0.6,0.4-1.2,0.6-1.6c0.3-0.4,0.7-0.8,1.1-1c0.4-0.2,1-0.4,1.6-0.4
	c1.2,0,2.1,0.4,2.7,1.3c0.6,0.9,0.9,2.1,0.9,3.7c0,1.6-0.3,2.8-0.9,3.7C77.9,444.7,77,445.2,75.8,445.2z M75.8,443.8
	c0.3,0,0.6-0.1,0.9-0.2c0.2-0.1,0.4-0.3,0.6-0.6c0.1-0.3,0.3-0.6,0.3-0.9c0.1-0.4,0.1-0.7,0.1-1.2v-1.7c0-0.4,0-0.8-0.1-1.2
	c-0.1-0.4-0.2-0.7-0.3-0.9c-0.1-0.3-0.3-0.4-0.6-0.6c-0.2-0.1-0.5-0.2-0.9-0.2c-0.3,0-0.6,0.1-0.9,0.2c-0.2,0.1-0.4,0.3-0.6,0.6
	c-0.1,0.3-0.3,0.6-0.3,0.9c-0.1,0.3-0.1,0.7-0.1,1.2v1.7c0,0.4,0,0.8,0.1,1.2c0.1,0.3,0.2,0.6,0.3,0.9c0.1,0.3,0.3,0.4,0.6,0.6
	C75.2,443.8,75.5,443.8,75.8,443.8z M84.2,445.2c-0.6,0-1.1-0.1-1.6-0.3c-0.4-0.2-0.8-0.6-1.1-1c-0.3-0.4-0.5-1-0.6-1.6
	c-0.1-0.6-0.2-1.3-0.2-2.1c0-0.8,0.1-1.5,0.2-2.1c0.1-0.6,0.4-1.2,0.6-1.6c0.3-0.4,0.7-0.8,1.1-1c0.4-0.2,1-0.4,1.6-0.4
	c1.2,0,2.1,0.4,2.7,1.3c0.6,0.9,0.9,2.1,0.9,3.7c0,1.6-0.3,2.8-0.9,3.7C86.3,444.7,85.4,445.2,84.2,445.2z M84.2,443.8
	c0.3,0,0.6-0.1,0.9-0.2c0.2-0.1,0.4-0.3,0.6-0.6c0.1-0.3,0.3-0.6,0.3-0.9c0.1-0.4,0.1-0.7,0.1-1.2v-1.7c0-0.4,0-0.8-0.1-1.2
	c-0.1-0.4-0.2-0.7-0.3-0.9c-0.1-0.3-0.3-0.4-0.6-0.6c-0.2-0.1-0.5-0.2-0.9-0.2c-0.3,0-0.6,0.1-0.9,0.2c-0.2,0.1-0.4,0.3-0.6,0.6
	c-0.1,0.3-0.3,0.6-0.3,0.9c-0.1,0.3-0.1,0.7-0.1,1.2v1.7c0,0.4,0,0.8,0.1,1.2c0.1,0.3,0.2,0.6,0.3,0.9c0.1,0.3,0.3,0.4,0.6,0.6
	C83.6,443.8,83.9,443.8,84.2,443.8z M92.6,445.2c-0.6,0-1.1-0.1-1.6-0.3c-0.4-0.2-0.8-0.6-1.1-1c-0.3-0.4-0.5-1-0.6-1.6
	s-0.2-1.3-0.2-2.1c0-0.8,0.1-1.5,0.2-2.1c0.1-0.6,0.4-1.2,0.6-1.6c0.3-0.4,0.7-0.8,1.1-1c0.4-0.2,1-0.4,1.6-0.4
	c1.2,0,2.1,0.4,2.7,1.3c0.6,0.9,0.9,2.1,0.9,3.7c0,1.6-0.3,2.8-0.9,3.7C94.7,444.7,93.8,445.2,92.6,445.2z M92.6,443.8
	c0.3,0,0.6-0.1,0.9-0.2c0.2-0.1,0.4-0.3,0.6-0.6c0.1-0.3,0.3-0.6,0.3-0.9c0.1-0.4,0.1-0.7,0.1-1.2v-1.7c0-0.4,0-0.8-0.1-1.2
	c-0.1-0.4-0.2-0.7-0.3-0.9c-0.1-0.3-0.3-0.4-0.6-0.6c-0.2-0.1-0.5-0.2-0.9-0.2s-0.6,0.1-0.9,0.2c-0.2,0.1-0.4,0.3-0.6,0.6
	c-0.1,0.3-0.3,0.6-0.3,0.9c-0.1,0.3-0.1,0.7-0.1,1.2v1.7c0,0.4,0,0.8,0.1,1.2c0.1,0.3,0.2,0.6,0.3,0.9c0.1,0.3,0.3,0.4,0.6,0.6
	C92,443.8,92.3,443.8,92.6,443.8z M101,445.2c-0.6,0-1.1-0.1-1.6-0.3c-0.4-0.2-0.8-0.6-1.1-1c-0.3-0.4-0.5-1-0.6-1.6
	s-0.2-1.3-0.2-2.1c0-0.8,0.1-1.5,0.2-2.1c0.1-0.6,0.4-1.2,0.6-1.6c0.3-0.4,0.7-0.8,1.1-1c0.4-0.2,1-0.4,1.6-0.4
	c1.2,0,2.1,0.4,2.7,1.3c0.6,0.9,0.9,2.1,0.9,3.7c0,1.6-0.3,2.8-0.9,3.7C103.1,444.7,102.2,445.2,101,445.2z M101,443.8
	c0.3,0,0.6-0.1,0.9-0.2c0.2-0.1,0.4-0.3,0.6-0.6c0.1-0.3,0.3-0.6,0.3-0.9c0.1-0.4,0.1-0.7,0.1-1.2v-1.7c0-0.4,0-0.8-0.1-1.2
	c-0.1-0.4-0.2-0.7-0.3-0.9c-0.1-0.3-0.3-0.4-0.6-0.6c-0.2-0.1-0.5-0.2-0.9-0.2s-0.6,0.1-0.9,0.2c-0.2,0.1-0.4,0.3-0.6,0.6
	c-0.1,0.3-0.3,0.6-0.3,0.9c-0.1,0.3-0.1,0.7-0.1,1.2v1.7c0,0.4,0,0.8,0.1,1.2c0.1,0.3,0.2,0.6,0.3,0.9c0.1,0.3,0.3,0.4,0.6,0.6
	C100.4,443.8,100.7,443.8,101,443.8z"/>
<path class="st3" d="M242,400h156c1.1,0,2,0.9,2,2v75c0,1.1-0.9,2-2,2H242c-1.1,0-2-0.9-2-2v-75C240,400.9,240.9,400,242,400z"/>
<path class="st2" d="M248.2,358.4h-3.1v8.6h-1.7v-8.6h-3.1V357h7.9V358.4z M252.1,367.1c-1.1,0-1.9-0.3-2.6-1c-0.7-0.7-1-1.5-1-2.7
	v-0.2c0-0.7,0.1-1.4,0.4-2c0.3-0.6,0.7-1,1.2-1.4c0.5-0.3,1.1-0.5,1.7-0.5c1,0,1.8,0.3,2.3,1c0.6,0.6,0.8,1.6,0.8,2.7v0.7h-4.8
	c0.1,0.6,0.3,1.1,0.6,1.4c0.4,0.4,0.8,0.5,1.4,0.5c0.8,0,1.4-0.3,1.9-0.9l0.9,0.9c-0.3,0.4-0.7,0.8-1.2,1
	C253.3,367,252.7,367.1,252.1,367.1z M251.9,360.8c-0.5,0-0.8,0.2-1.1,0.5c-0.3,0.3-0.5,0.8-0.5,1.3h3.2v-0.1c0-0.6-0.2-1-0.4-1.3
	C252.7,360.9,252.4,360.8,251.9,360.8z M259.1,362l1.4-2.4h1.8l-2.3,3.6l2.3,3.8h-1.8l-1.5-2.5l-1.5,2.5h-1.8l2.3-3.8l-2.3-3.6h1.8
	L259.1,362z M265.7,357.8v1.8h1.3v1.2h-1.3v4.1c0,0.3,0.1,0.5,0.2,0.6c0.1,0.1,0.3,0.2,0.6,0.2c0.2,0,0.4,0,0.6-0.1v1.3
	c-0.4,0.1-0.7,0.2-1.1,0.2c-1.3,0-1.9-0.7-1.9-2.1v-4.2h-1.2v-1.2h1.2v-1.8H265.7z"/>
<path d="M297.3,445v-9.8h6.1v1.4h-4.5v2.7h4v1.4h-4v4.3H297.3z M305.2,445v-9.8h6.1v1.4h-4.5v2.7h4v1.4h-4v4.3H305.2z M313.2,445
	v-9.8h6.1v1.4h-4.5v2.7h4v1.4h-4v4.3H313.2z M321.2,445v-9.8h6.1v1.4h-4.5v2.7h4v1.4h-4v4.3H321.2z M329.2,445v-9.8h6.1v1.4h-4.5
	v2.7h4v1.4h-4v4.3H329.2z M337.2,445v-9.8h6.1v1.4h-4.5v2.7h4v1.4h-4v4.3H337.2z"/>
<path class="st10" d="M482,400h156c1.1,0,2,0.9,2,2v75c0,1.1-0.9,2-2,2H482c-1.1,0-2-0.9-2-2v-75C480,400.9,480.9,400,482,400z"/>
<path class="st2" d="M481,367v-10h2.9c0.9,0,1.7,0.2,2.3,0.6c0.7,0.4,1.2,0.9,1.6,1.7s0.6,1.5,0.6,2.5v0.5c0,0.9-0.2,1.8-0.6,2.5
	c-0.4,0.7-0.9,1.3-1.6,1.7c-0.7,0.4-1.5,0.6-2.4,0.6H481z M482.7,358.4v7.2h1.1c0.9,0,1.6-0.3,2.1-0.8c0.5-0.6,0.7-1.4,0.7-2.4v-0.6
	c0-1.1-0.2-1.9-0.7-2.5c-0.5-0.6-1.2-0.9-2-0.9H482.7z M491.9,367h-1.7v-7.4h1.7V367z M490.1,357.7c0-0.3,0.1-0.5,0.2-0.6
	c0.2-0.2,0.4-0.3,0.7-0.3c0.3,0,0.5,0.1,0.7,0.3c0.2,0.2,0.2,0.4,0.2,0.6c0,0.2-0.1,0.5-0.2,0.6c-0.2,0.2-0.4,0.2-0.7,0.2
	c-0.3,0-0.5-0.1-0.7-0.2C490.2,358.1,490.1,357.9,490.1,357.7z M497.9,365c0-0.3-0.1-0.5-0.4-0.7c-0.2-0.2-0.6-0.3-1.2-0.4
	c-0.6-0.1-1-0.3-1.4-0.5c-0.8-0.4-1.2-1-1.2-1.7c0-0.6,0.3-1.2,0.8-1.6c0.5-0.4,1.2-0.6,2.1-0.6c0.9,0,1.6,0.2,2.1,0.7
	c0.5,0.4,0.8,1,0.8,1.7h-1.7c0-0.3-0.1-0.6-0.4-0.8c-0.2-0.2-0.6-0.3-0.9-0.3c-0.4,0-0.7,0.1-0.9,0.3c-0.2,0.2-0.3,0.4-0.3,0.7
	c0,0.3,0.1,0.5,0.3,0.6c0.2,0.1,0.6,0.3,1.3,0.4c0.7,0.1,1.2,0.3,1.5,0.5c0.4,0.2,0.6,0.4,0.8,0.7c0.2,0.3,0.3,0.6,0.3,1
	c0,0.7-0.3,1.2-0.8,1.6c-0.6,0.4-1.3,0.6-2.2,0.6c-0.6,0-1.1-0.1-1.6-0.3c-0.5-0.2-0.8-0.5-1.1-0.9c-0.3-0.4-0.4-0.8-0.4-1.2h1.6
	c0,0.4,0.2,0.7,0.4,0.9c0.3,0.2,0.6,0.3,1.1,0.3c0.4,0,0.8-0.1,1-0.2C497.8,365.5,497.9,365.3,497.9,365z M505.5,367
	c-0.1-0.1-0.1-0.4-0.2-0.7c-0.5,0.6-1.2,0.8-1.9,0.8c-0.7,0-1.3-0.2-1.8-0.6c-0.5-0.4-0.7-0.9-0.7-1.6c0-0.8,0.3-1.4,0.9-1.8
	c0.6-0.4,1.4-0.6,2.5-0.6h1V362c0-0.4-0.1-0.7-0.3-0.9c-0.2-0.2-0.5-0.3-1-0.3c-0.4,0-0.7,0.1-0.9,0.3c-0.2,0.2-0.4,0.4-0.4,0.7H501
	c0-0.4,0.1-0.8,0.4-1.1c0.3-0.4,0.6-0.6,1.1-0.8c0.5-0.2,1-0.3,1.6-0.3c0.9,0,1.6,0.2,2.1,0.7c0.5,0.4,0.8,1,0.8,1.8v3.3
	c0,0.7,0.1,1.2,0.3,1.6v0.1H505.5z M503.7,365.8c0.3,0,0.6-0.1,0.9-0.2c0.3-0.2,0.5-0.4,0.7-0.6v-1.4h-0.9c-0.6,0-1.1,0.1-1.4,0.3
	c-0.3,0.2-0.5,0.5-0.5,0.9c0,0.3,0.1,0.6,0.3,0.8C503.1,365.7,503.4,365.8,503.7,365.8z M515.3,363.4c0,1.1-0.3,2.1-0.8,2.7
	c-0.5,0.7-1.2,1-2.1,1c-0.9,0-1.5-0.3-2-0.9l-0.1,0.8h-1.5v-10.5h1.7v3.8c0.5-0.6,1.1-0.8,1.9-0.8c0.9,0,1.6,0.3,2.1,1
	C515,361.1,515.3,362.1,515.3,363.4L515.3,363.4z M513.6,363.2c0-0.8-0.1-1.4-0.4-1.8c-0.3-0.4-0.7-0.6-1.2-0.6
	c-0.7,0-1.2,0.3-1.5,0.9v3c0.3,0.6,0.8,1,1.5,1c0.5,0,0.9-0.2,1.2-0.6c0.3-0.4,0.4-1,0.4-1.8V363.2z M518.5,367h-1.7v-10.5h1.7V367z
	 M523.7,367.1c-1.1,0-1.9-0.3-2.6-1c-0.7-0.7-1-1.5-1-2.7v-0.2c0-0.7,0.1-1.4,0.4-2c0.3-0.6,0.7-1,1.2-1.4c0.5-0.3,1.1-0.5,1.7-0.5
	c1,0,1.8,0.3,2.3,1c0.6,0.6,0.8,1.6,0.8,2.7v0.7h-4.8c0,0.6,0.3,1.1,0.6,1.4c0.4,0.4,0.8,0.5,1.4,0.5c0.8,0,1.4-0.3,1.9-0.9l0.9,0.9
	c-0.3,0.4-0.7,0.8-1.2,1C524.9,367,524.3,367.1,523.7,367.1z M523.5,360.8c-0.5,0-0.8,0.2-1.1,0.5c-0.3,0.3-0.5,0.8-0.5,1.3h3.2
	v-0.1c0-0.6-0.2-1-0.4-1.3C524.3,360.9,524,360.8,523.5,360.8z M527.8,363.2c0-1.1,0.3-2.1,0.8-2.7c0.5-0.7,1.2-1,2.1-1
	c0.8,0,1.4,0.3,1.9,0.8v-3.8h1.7V367h-1.5l-0.1-0.8c-0.5,0.6-1.2,0.9-2,0.9c-0.9,0-1.6-0.3-2.1-1C528,365.4,527.8,364.4,527.8,363.2
	z M529.4,363.4c0,0.8,0.1,1.3,0.4,1.8c0.3,0.4,0.7,0.6,1.2,0.6c0.7,0,1.2-0.3,1.5-0.9v-3.2c-0.3-0.6-0.8-0.9-1.5-0.9
	c-0.5,0-1,0.2-1.2,0.6C529.6,361.9,529.4,362.5,529.4,363.4z"/>
<path class="st3" d="M534.3,445h3.5c2.5,0,4.1-1.6,4.1-4.9c0-3.3-1.6-4.9-4.1-4.9h-3.5V445z M535.9,443.6v-7h1.9
	c1.5,0,2.4,0.9,2.4,2.7v1.6c0,1.8-1,2.7-2.4,2.7H535.9z M546.7,445l3.4-8.4v-1.4h-6.6v3.1h1.4v-1.8h3.7L545,445H546.7z M552.2,445
	h3.5c2.5,0,4.1-1.6,4.1-4.9c0-3.3-1.6-4.9-4.1-4.9h-3.5V445z M553.8,443.6v-7h1.9c1.5,0,2.4,0.9,2.4,2.7v1.6c0,1.8-1,2.7-2.4,2.7
	H553.8z M567.7,435.2h-5.5l-0.4,5.4l1.3,0.2c0.4-0.4,0.8-0.8,1.7-0.8c1.1,0,1.8,0.7,1.8,1.8v0.2c0,1.1-0.7,1.8-1.8,1.8
	c-1.1,0-1.6-0.6-2.1-1.3l-1.1,0.9c0.6,0.9,1.5,1.8,3.2,1.8c2.2,0,3.5-1.4,3.5-3.3c0-1.9-1.3-3.1-3-3.1c-1.1,0-1.6,0.5-2,1.3h-0.1
	l0.3-3.5h4.3V435.2z M570.2,445h3.5c2.5,0,4.1-1.6,4.1-4.9c0-3.3-1.6-4.9-4.1-4.9h-3.5V445z M571.8,443.6v-7h1.9
	c1.5,0,2.4,0.9,2.4,2.7v1.6c0,1.8-1,2.7-2.4,2.7H571.8z M585.6,435.2h-5.5l-0.4,5.4l1.3,0.2c0.3-0.4,0.8-0.8,1.7-0.8
	c1.1,0,1.8,0.7,1.8,1.8v0.2c0,1.1-0.7,1.8-1.8,1.8c-1.1,0-1.6-0.6-2.1-1.3l-1.1,0.9c0.6,0.9,1.5,1.8,3.2,1.8c2.2,0,3.5-1.4,3.5-3.3
	c0-1.9-1.3-3.1-3-3.1c-1.1,0-1.6,0.5-2,1.3h-0.1l0.3-3.5h4.3V435.2z"/>
<path class="st2" d="M722,400h156c1.1,0,2,0.9,2,2v75c0,1.1-0.9,2-2,2H722c-1.1,0-2-0.9-2-2v-75C720,400.9,720.9,400,722,400z"/>
<path class="st2" d="M722.8,367h-1.7v-10h1.7V367z M726.4,359.6l0,0.9c0.5-0.7,1.3-1,2.2-1c1.5,0,2.3,0.9,2.4,2.6v4.9h-1.7v-4.8
	c0-0.5-0.1-0.8-0.3-1c-0.2-0.2-0.5-0.3-1-0.3c-0.7,0-1.2,0.3-1.5,0.9v5.3h-1.7v-7.4H726.4z M737.2,367c-0.1-0.1-0.1-0.4-0.2-0.7
	c-0.5,0.6-1.2,0.8-1.9,0.8c-0.7,0-1.3-0.2-1.8-0.6c-0.5-0.4-0.7-0.9-0.7-1.6c0-0.8,0.3-1.4,0.9-1.8c0.6-0.4,1.4-0.6,2.5-0.6h1V362
	c0-0.4-0.1-0.7-0.3-0.9c-0.2-0.2-0.5-0.3-1-0.3c-0.4,0-0.7,0.1-0.9,0.3c-0.2,0.2-0.4,0.4-0.4,0.7h-1.7c0-0.4,0.1-0.8,0.4-1.1
	c0.3-0.4,0.6-0.6,1.1-0.8c0.5-0.2,1-0.3,1.6-0.3c0.9,0,1.6,0.2,2.1,0.7c0.5,0.4,0.8,1,0.8,1.8v3.3c0,0.7,0.1,1.2,0.3,1.6v0.1H737.2z
	 M735.4,365.8c0.3,0,0.6-0.1,0.9-0.2c0.3-0.2,0.5-0.4,0.7-0.6v-1.4h-0.9c-0.6,0-1.1,0.1-1.4,0.3c-0.3,0.2-0.5,0.5-0.5,0.9
	c0,0.3,0.1,0.6,0.3,0.8C734.7,365.7,735,365.8,735.4,365.8z M743.5,365.8c0.4,0,0.8-0.1,1-0.4c0.3-0.2,0.4-0.5,0.4-0.9h1.6
	c0,0.5-0.2,0.9-0.4,1.3c-0.3,0.4-0.6,0.7-1.1,0.9c-0.5,0.2-1,0.3-1.5,0.3c-1,0-1.9-0.3-2.5-1c-0.6-0.7-0.9-1.6-0.9-2.8v-0.2
	c0-1.1,0.3-2,0.9-2.7c0.6-0.7,1.4-1,2.5-1c0.9,0,1.6,0.3,2.1,0.8c0.6,0.5,0.8,1.2,0.9,2H745c0-0.4-0.2-0.8-0.4-1
	c-0.3-0.3-0.6-0.4-1-0.4c-0.5,0-1,0.2-1.2,0.6c-0.3,0.4-0.4,1-0.4,1.8v0.3c0,0.8,0.1,1.4,0.4,1.8C742.5,365.6,743,365.8,743.5,365.8
	z M750,357.8v1.8h1.3v1.2H750v4.1c0,0.3,0.1,0.5,0.2,0.6c0.1,0.1,0.3,0.2,0.6,0.2c0.2,0,0.4,0,0.6-0.1v1.3c-0.4,0.1-0.7,0.2-1.1,0.2
	c-1.3,0-1.9-0.7-1.9-2.1v-4.2h-1.2v-1.2h1.2v-1.8H750z M754.4,367h-1.7v-7.4h1.7V367z M752.7,357.7c0-0.3,0.1-0.5,0.2-0.6
	c0.2-0.2,0.4-0.3,0.7-0.3c0.3,0,0.5,0.1,0.7,0.3c0.2,0.2,0.2,0.4,0.2,0.6c0,0.2-0.1,0.5-0.2,0.6c-0.2,0.2-0.4,0.2-0.7,0.2
	c-0.3,0-0.5-0.1-0.7-0.2C752.7,358.1,752.7,357.9,752.7,357.7z M759,364.9l1.6-5.3h1.7l-2.6,7.4h-1.4l-2.6-7.4h1.7L759,364.9z
	 M766.5,367.1c-1.1,0-1.9-0.3-2.6-1c-0.7-0.7-1-1.5-1-2.7v-0.2c0-0.7,0.1-1.4,0.4-2c0.3-0.6,0.7-1,1.2-1.4c0.5-0.3,1.1-0.5,1.7-0.5
	c1,0,1.8,0.3,2.3,1c0.6,0.6,0.8,1.6,0.8,2.7v0.7h-4.8c0,0.6,0.3,1.1,0.6,1.4c0.4,0.4,0.8,0.5,1.4,0.5c0.8,0,1.4-0.3,1.9-0.9l0.9,0.9
	c-0.3,0.4-0.7,0.8-1.2,1C767.7,367,767.2,367.1,766.5,367.1z M766.3,360.8c-0.5,0-0.8,0.2-1.1,0.5c-0.3,0.3-0.5,0.8-0.5,1.3h3.2
	v-0.1c0-0.6-0.2-1-0.4-1.3C767.2,360.9,766.8,360.8,766.3,360.8z"/>
<path class="st3" d="M782.6,438.9c0-2.3-1.3-3.8-3.4-3.8c-2.1,0-3.4,1.4-3.4,3.3c0,1.8,1.2,3,2.9,3c1.2,0,1.9-0.7,2.3-1.4l0.1,0
	c-0.5,2.1-1.8,3.4-4,5h2.1C780.7,443.9,782.6,441.7,782.6,438.9z M779.1,440.1c-1.1,0-1.8-0.6-1.8-1.8v-0.2c0-1.2,0.7-1.8,1.8-1.8
	c1.1,0,1.8,0.6,1.8,1.8v0.2C780.9,439.5,780.3,440.1,779.1,440.1z M790.8,445v-1.4h-4.7v-2.9h4.2v-1.4h-4.2v-2.7h4.7v-1.4h-6.3v9.8
	H790.8z M799.3,438.9c0-2.3-1.3-3.8-3.4-3.8c-2.1,0-3.4,1.4-3.4,3.3c0,1.8,1.2,3,2.9,3c1.2,0,1.9-0.7,2.3-1.4l0.1,0
	c-0.5,2.1-1.8,3.4-4,5h2.1C797.4,443.9,799.3,441.7,799.3,438.9z M795.8,440.1c-1.1,0-1.8-0.6-1.8-1.8v-0.2c0-1.2,0.7-1.8,1.8-1.8
	c1.1,0,1.8,0.6,1.8,1.8v0.2C797.6,439.5,797,440.1,795.8,440.1z M807.5,445v-1.4h-4.7v-2.9h4.2v-1.4h-4.2v-2.7h4.7v-1.4h-6.3v9.8
	H807.5z M816,438.9c0-2.3-1.3-3.8-3.4-3.8c-2.1,0-3.4,1.4-3.4,3.3c0,1.8,1.2,3,2.9,3c1.2,0,1.9-0.7,2.3-1.4l0.1,0
	c-0.5,2.1-1.8,3.4-4,5h2.1C814.1,443.9,816,441.7,816,438.9z M812.5,440.1c-1.1,0-1.8-0.6-1.8-1.8v-0.2c0-1.2,0.7-1.8,1.8-1.8
	c1.1,0,1.8,0.6,1.8,1.8v0.2C814.3,439.5,813.7,440.1,812.5,440.1z M824.2,445v-1.4h-4.7v-2.9h4.2v-1.4h-4.2v-2.7h4.7v-1.4h-6.3v9.8
	H824.2z"/>
<path class="st11" d="M2,551h156c1.1,0,2,0.9,2,2v75c0,1.1-0.9,2-2,2H2c-1.1,0-2-0.9-2-2v-75C0,551.9,0.9,551,2,551z"/>
<path class="st2" d="M1,518v-10h3.4c1.1,0,2,0.2,2.6,0.7c0.6,0.5,0.9,1.1,0.9,2c0,0.5-0.1,0.9-0.4,1.2c-0.2,0.4-0.6,0.6-1.1,0.8
	c0.5,0.1,1,0.4,1.2,0.8c0.3,0.4,0.4,0.9,0.4,1.4c0,0.9-0.3,1.7-0.9,2.2c-0.6,0.5-1.5,0.8-2.6,0.8H1z M2.7,513.5v3.1h1.9
	c0.5,0,1-0.1,1.3-0.4c0.3-0.3,0.5-0.6,0.5-1.1c0-1-0.5-1.6-1.6-1.6H2.7z M2.7,512.2h1.7c0.5,0,1-0.1,1.3-0.4c0.3-0.2,0.5-0.6,0.5-1
	c0-0.5-0.1-0.8-0.4-1.1c-0.3-0.2-0.7-0.3-1.3-0.3H2.7V512.2z M14.2,518c-0.1-0.1-0.1-0.4-0.2-0.7c-0.5,0.6-1.2,0.8-1.9,0.8
	c-0.7,0-1.3-0.2-1.8-0.6c-0.5-0.4-0.7-0.9-0.7-1.6c0-0.8,0.3-1.4,0.9-1.8c0.6-0.4,1.4-0.6,2.5-0.6h1V513c0-0.4-0.1-0.7-0.3-0.9
	c-0.2-0.2-0.5-0.3-1-0.3c-0.4,0-0.7,0.1-0.9,0.3c-0.2,0.2-0.4,0.4-0.4,0.7H9.7c0-0.4,0.1-0.8,0.4-1.1c0.3-0.4,0.6-0.6,1.1-0.8
	c0.5-0.2,1-0.3,1.6-0.3c0.9,0,1.6,0.2,2.1,0.7c0.5,0.4,0.8,1,0.8,1.8v3.3c0,0.7,0.1,1.2,0.3,1.6v0.1H14.2z M12.4,516.8
	c0.3,0,0.6-0.1,0.9-0.2c0.3-0.2,0.5-0.4,0.7-0.6v-1.4h-0.9c-0.6,0-1.1,0.1-1.4,0.3c-0.3,0.2-0.5,0.5-0.5,0.9c0,0.3,0.1,0.6,0.3,0.8
	C11.7,516.7,12,516.8,12.4,516.8z M20.5,516.8c0.4,0,0.8-0.1,1-0.4c0.3-0.2,0.4-0.5,0.4-0.9h1.6c0,0.5-0.2,0.9-0.4,1.3
	c-0.3,0.4-0.6,0.7-1.1,0.9c-0.5,0.2-1,0.3-1.5,0.3c-1,0-1.9-0.3-2.5-1c-0.6-0.7-0.9-1.6-0.9-2.8v-0.2c0-1.1,0.3-2,0.9-2.7
	c0.6-0.7,1.4-1,2.5-1c0.9,0,1.6,0.3,2.1,0.8c0.6,0.5,0.8,1.2,0.9,2H22c0-0.4-0.2-0.8-0.4-1c-0.3-0.3-0.6-0.4-1-0.4
	c-0.5,0-1,0.2-1.2,0.6c-0.3,0.4-0.4,1-0.4,1.8v0.3c0,0.8,0.1,1.4,0.4,1.8C19.5,516.6,19.9,516.8,20.5,516.8z M27.3,514.8l-0.7,0.8
	v2.4h-1.7v-10.5h1.7v6.1l0.5-0.7l2-2.3h2l-2.7,3.1l3,4.3h-1.9L27.3,514.8z M31.9,514.2c0-1.1,0.3-2.1,0.8-2.7c0.5-0.7,1.3-1,2.2-1
	c0.8,0,1.5,0.3,2,0.9l0.1-0.7h1.5v7.2c0,1-0.3,1.7-0.9,2.3c-0.6,0.6-1.4,0.8-2.4,0.8c-0.5,0-1.1-0.1-1.6-0.3
	c-0.5-0.2-0.9-0.5-1.2-0.9l0.8-1c0.5,0.6,1.1,0.9,1.9,0.9c0.6,0,1-0.2,1.3-0.5c0.3-0.3,0.5-0.7,0.5-1.3v-0.5
	c-0.5,0.5-1.1,0.8-1.9,0.8c-0.9,0-1.6-0.3-2.1-1C32.1,516.4,31.9,515.5,31.9,514.2z M33.5,514.4c0,0.7,0.2,1.3,0.5,1.8
	c0.3,0.4,0.7,0.6,1.3,0.6c0.7,0,1.2-0.3,1.5-0.9v-3.3c-0.3-0.6-0.8-0.8-1.5-0.8c-0.5,0-1,0.2-1.3,0.6
	C33.7,512.9,33.5,513.5,33.5,514.4z M44.1,512.1c-0.2,0-0.4-0.1-0.7-0.1c-0.8,0-1.3,0.3-1.5,0.9v5.1h-1.7v-7.4h1.6l0,0.8
	c0.4-0.6,1-1,1.7-1c0.2,0,0.4,0,0.6,0.1L44.1,512.1z M44.7,514.2c0-0.7,0.1-1.4,0.4-2c0.3-0.6,0.7-1,1.2-1.3
	c0.5-0.3,1.1-0.5,1.8-0.5c1,0,1.8,0.3,2.4,1c0.6,0.6,1,1.5,1,2.6l0,0.4c0,0.7-0.1,1.4-0.4,2c-0.3,0.6-0.7,1-1.2,1.3
	c-0.5,0.3-1.1,0.5-1.8,0.5c-1,0-1.9-0.3-2.5-1C45,516.4,44.7,515.5,44.7,514.2L44.7,514.2z M46.3,514.4c0,0.8,0.2,1.4,0.5,1.8
	c0.3,0.4,0.8,0.6,1.3,0.6s1-0.2,1.3-0.7c0.3-0.4,0.5-1.1,0.5-1.9c0-0.7-0.2-1.3-0.5-1.8c-0.3-0.4-0.8-0.7-1.3-0.7
	c-0.5,0-1,0.2-1.3,0.6C46.5,512.9,46.3,513.5,46.3,514.4z M57.5,517.3c-0.5,0.6-1.2,0.9-2.1,0.9c-0.8,0-1.4-0.2-1.8-0.7
	c-0.4-0.5-0.6-1.1-0.6-2v-4.8h1.7v4.8c0,0.9,0.4,1.4,1.2,1.4c0.8,0,1.4-0.3,1.6-0.9v-5.3h1.7v7.4h-1.6L57.5,517.3z M62.5,510.6
	l0,0.9c0.5-0.7,1.3-1,2.2-1c1.5,0,2.3,0.9,2.4,2.6v4.9h-1.7v-4.8c0-0.5-0.1-0.8-0.3-1c-0.2-0.2-0.5-0.3-1-0.3
	c-0.7,0-1.2,0.3-1.5,0.9v5.3h-1.7v-7.4H62.5z M68.5,514.2c0-1.1,0.3-2.1,0.8-2.7c0.5-0.7,1.2-1,2.1-1c0.8,0,1.4,0.3,1.9,0.8v-3.8H75
	V518h-1.5l-0.1-0.8c-0.5,0.6-1.2,0.9-2,0.9c-0.9,0-1.6-0.3-2.1-1C68.8,516.4,68.5,515.4,68.5,514.2z M70.2,514.4
	c0,0.8,0.1,1.3,0.4,1.8c0.3,0.4,0.7,0.6,1.2,0.6c0.7,0,1.2-0.3,1.5-0.9v-3.2c-0.3-0.6-0.8-0.9-1.5-0.9c-0.5,0-1,0.2-1.2,0.6
	C70.3,512.9,70.2,513.5,70.2,514.4z M80.1,514.2c0-1.1,0.3-2.1,0.8-2.7c0.5-0.7,1.2-1,2.1-1c0.8,0,1.4,0.3,1.9,0.8v-3.8h1.7V518
	h-1.5l-0.1-0.8c-0.5,0.6-1.2,0.9-2,0.9c-0.9,0-1.6-0.3-2.1-1C80.4,516.4,80.1,515.4,80.1,514.2z M81.8,514.4c0,0.8,0.1,1.3,0.4,1.8
	c0.3,0.4,0.7,0.6,1.2,0.6c0.7,0,1.2-0.3,1.5-0.9v-3.2c-0.3-0.6-0.8-0.9-1.5-0.9c-0.5,0-1,0.2-1.2,0.6
	C81.9,512.9,81.8,513.5,81.8,514.4z M92.8,518c-0.1-0.1-0.1-0.4-0.2-0.7c-0.5,0.6-1.2,0.8-1.9,0.8c-0.7,0-1.3-0.2-1.8-0.6
	c-0.5-0.4-0.7-0.9-0.7-1.6c0-0.8,0.3-1.4,0.9-1.8c0.6-0.4,1.4-0.6,2.5-0.6h1V513c0-0.4-0.1-0.7-0.3-0.9c-0.2-0.2-0.5-0.3-1-0.3
	c-0.4,0-0.7,0.1-0.9,0.3c-0.2,0.2-0.4,0.4-0.4,0.7h-1.7c0-0.4,0.1-0.8,0.4-1.1c0.3-0.4,0.6-0.6,1.1-0.8c0.5-0.2,1-0.3,1.6-0.3
	c0.9,0,1.6,0.2,2.1,0.7c0.5,0.4,0.8,1,0.8,1.8v3.3c0,0.7,0.1,1.2,0.3,1.6v0.1H92.8z M91,516.8c0.3,0,0.6-0.1,0.9-0.2
	c0.3-0.2,0.5-0.4,0.7-0.6v-1.4h-0.9c-0.6,0-1.1,0.1-1.4,0.3c-0.3,0.2-0.5,0.5-0.5,0.9c0,0.3,0.1,0.6,0.3,0.8
	C90.4,516.7,90.7,516.8,91,516.8z M100,512.1c-0.2,0-0.4-0.1-0.7-0.1c-0.8,0-1.3,0.3-1.5,0.9v5.1h-1.7v-7.4h1.6l0,0.8
	c0.4-0.6,1-1,1.7-1c0.2,0,0.4,0,0.6,0.1L100,512.1z M103.5,514.8l-0.7,0.8v2.4h-1.7v-10.5h1.7v6.1l0.5-0.7l2-2.3h2l-2.7,3.1l3,4.3
	h-1.9L103.5,514.8z"/>
<path class="st6" d="M62.4,596v-1.4h-4.7v-2.9H62v-1.4h-4.2v-2.7h4.7v-1.4h-6.3v9.8H62.4z M70.4,586.2h-5.5l-0.4,5.4l1.3,0.2
	c0.3-0.4,0.8-0.8,1.7-0.8c1.1,0,1.8,0.7,1.8,1.8v0.2c0,1.1-0.7,1.8-1.8,1.8c-1.1,0-1.6-0.6-2.1-1.3l-1.1,0.9
	c0.6,0.9,1.5,1.8,3.2,1.8c2.2,0,3.5-1.4,3.5-3.3c0-1.9-1.3-3.1-3-3.1c-1.1,0-1.6,0.5-2,1.3h-0.1l0.3-3.5h4.3V586.2z M79.1,596v-1.4
	h-4.7v-2.9h4.2v-1.4h-4.2v-2.7h4.7v-1.4h-6.3v9.8H79.1z M87.1,586.2h-5.5l-0.4,5.4l1.3,0.2c0.3-0.4,0.8-0.8,1.7-0.8
	c1.1,0,1.8,0.7,1.8,1.8v0.2c0,1.1-0.7,1.8-1.8,1.8c-1.1,0-1.6-0.6-2.1-1.3l-1.1,0.9c0.6,0.9,1.5,1.8,3.2,1.8c2.2,0,3.5-1.4,3.5-3.3
	c0-1.9-1.3-3.1-3-3.1c-1.1,0-1.6,0.5-2,1.3h-0.1l0.3-3.5h4.3V586.2z M95.8,596v-1.4h-4.7v-2.9h4.2v-1.4h-4.2v-2.7h4.7v-1.4h-6.3v9.8
	H95.8z M103.8,586.2h-5.5l-0.4,5.4l1.3,0.2c0.4-0.4,0.8-0.8,1.7-0.8c1.1,0,1.8,0.7,1.8,1.8v0.2c0,1.1-0.7,1.8-1.8,1.8
	c-1.1,0-1.6-0.6-2.1-1.3l-1.1,0.9c0.6,0.9,1.5,1.8,3.2,1.8c2.2,0,3.5-1.4,3.5-3.3c0-1.9-1.3-3.1-3-3.1c-1.1,0-1.6,0.5-2,1.3h-0.1
	l0.3-3.5h4.3V586.2z"/>
<path class="st12" d="M242,551h156c1.1,0,2,0.9,2,2v75c0,1.1-0.9,2-2,2H242c-1.1,0-2-0.9-2-2v-75C240,551.9,240.9,551,242,551z"/>
<path class="st2" d="M241,518v-10h3.4c1.1,0,2,0.2,2.6,0.7c0.6,0.5,0.9,1.1,0.9,2c0,0.5-0.1,0.9-0.4,1.2c-0.2,0.4-0.6,0.6-1.1,0.8
	c0.5,0.1,1,0.4,1.2,0.8c0.3,0.4,0.4,0.9,0.4,1.4c0,0.9-0.3,1.7-0.9,2.2c-0.6,0.5-1.5,0.8-2.6,0.8H241z M242.7,513.5v3.1h1.9
	c0.5,0,1-0.1,1.3-0.4c0.3-0.3,0.5-0.6,0.5-1.1c0-1-0.5-1.6-1.6-1.6H242.7z M242.7,512.2h1.7c0.5,0,1-0.1,1.3-0.4
	c0.3-0.2,0.5-0.6,0.5-1c0-0.5-0.1-0.8-0.4-1.1c-0.3-0.2-0.7-0.3-1.3-0.3h-1.7V512.2z M254.2,518c-0.1-0.1-0.1-0.4-0.2-0.7
	c-0.5,0.6-1.2,0.8-1.9,0.8c-0.7,0-1.3-0.2-1.8-0.6c-0.5-0.4-0.7-0.9-0.7-1.6c0-0.8,0.3-1.4,0.9-1.8c0.6-0.4,1.4-0.6,2.5-0.6h1V513
	c0-0.4-0.1-0.7-0.3-0.9c-0.2-0.2-0.5-0.3-1-0.3c-0.4,0-0.7,0.1-0.9,0.3c-0.2,0.2-0.4,0.4-0.4,0.7h-1.7c0-0.4,0.1-0.8,0.4-1.1
	c0.3-0.4,0.6-0.6,1.1-0.8c0.5-0.2,1-0.3,1.6-0.3c0.9,0,1.6,0.2,2.1,0.7c0.5,0.4,0.8,1,0.8,1.8v3.3c0,0.7,0.1,1.2,0.3,1.6v0.1H254.2z
	 M252.4,516.8c0.3,0,0.6-0.1,0.9-0.2c0.3-0.2,0.5-0.4,0.7-0.6v-1.4h-0.9c-0.6,0-1.1,0.1-1.4,0.3c-0.3,0.2-0.5,0.5-0.5,0.9
	c0,0.3,0.1,0.6,0.3,0.8C251.7,516.7,252,516.8,252.4,516.8z M260.5,516.8c0.4,0,0.8-0.1,1-0.4c0.3-0.2,0.4-0.5,0.4-0.9h1.6
	c0,0.5-0.2,0.9-0.4,1.3c-0.3,0.4-0.6,0.7-1.1,0.9c-0.5,0.2-1,0.3-1.5,0.3c-1,0-1.9-0.3-2.5-1c-0.6-0.7-0.9-1.6-0.9-2.8v-0.2
	c0-1.1,0.3-2,0.9-2.7c0.6-0.7,1.4-1,2.5-1c0.9,0,1.6,0.3,2.1,0.8c0.6,0.5,0.8,1.2,0.9,2H262c0-0.4-0.2-0.8-0.4-1
	c-0.3-0.3-0.6-0.4-1-0.4c-0.5,0-1,0.2-1.2,0.6c-0.3,0.4-0.4,1-0.4,1.8v0.3c0,0.8,0.1,1.4,0.4,1.8
	C259.5,516.6,259.9,516.8,260.5,516.8z M267.3,514.8l-0.7,0.8v2.4h-1.7v-10.5h1.7v6.1l0.5-0.7l2-2.3h2l-2.7,3.1l3,4.3h-1.9
	L267.3,514.8z M271.9,514.2c0-1.1,0.3-2.1,0.8-2.7c0.5-0.7,1.3-1,2.2-1c0.8,0,1.5,0.3,2,0.9l0.1-0.7h1.5v7.2c0,1-0.3,1.7-0.9,2.3
	c-0.6,0.6-1.4,0.8-2.4,0.8c-0.5,0-1.1-0.1-1.6-0.3c-0.5-0.2-0.9-0.5-1.2-0.9l0.8-1c0.5,0.6,1.1,0.9,1.9,0.9c0.6,0,1-0.2,1.3-0.5
	c0.3-0.3,0.5-0.7,0.5-1.3v-0.5c-0.5,0.5-1.1,0.8-1.9,0.8c-0.9,0-1.6-0.3-2.1-1C272.1,516.4,271.9,515.5,271.9,514.2z M273.5,514.4
	c0,0.7,0.1,1.3,0.5,1.8c0.3,0.4,0.7,0.6,1.3,0.6c0.7,0,1.2-0.3,1.5-0.9v-3.3c-0.3-0.6-0.8-0.8-1.5-0.8c-0.5,0-1,0.2-1.3,0.6
	C273.7,512.9,273.5,513.5,273.5,514.4z M284.1,512.1c-0.2,0-0.4-0.1-0.7-0.1c-0.8,0-1.3,0.3-1.5,0.9v5.1h-1.7v-7.4h1.6l0,0.8
	c0.4-0.6,1-1,1.7-1c0.2,0,0.4,0,0.6,0.1L284.1,512.1z M284.7,514.2c0-0.7,0.1-1.4,0.4-2c0.3-0.6,0.7-1,1.2-1.3
	c0.5-0.3,1.1-0.5,1.8-0.5c1,0,1.8,0.3,2.4,1c0.6,0.6,1,1.5,1,2.6l0,0.4c0,0.7-0.1,1.4-0.4,2c-0.3,0.6-0.7,1-1.2,1.3
	c-0.5,0.3-1.1,0.5-1.8,0.5c-1,0-1.9-0.3-2.5-1C285,516.4,284.7,515.5,284.7,514.2L284.7,514.2z M286.3,514.4c0,0.8,0.2,1.4,0.5,1.8
	c0.3,0.4,0.8,0.6,1.3,0.6c0.6,0,1-0.2,1.3-0.7c0.3-0.4,0.5-1.1,0.5-1.9c0-0.7-0.2-1.3-0.5-1.8c-0.3-0.4-0.8-0.7-1.3-0.7
	c-0.5,0-1,0.2-1.3,0.6C286.5,512.9,286.3,513.5,286.3,514.4z M297.5,517.3c-0.5,0.6-1.2,0.9-2.1,0.9c-0.8,0-1.4-0.2-1.8-0.7
	c-0.4-0.5-0.6-1.1-0.6-2v-4.8h1.7v4.8c0,0.9,0.4,1.4,1.2,1.4c0.8,0,1.4-0.3,1.6-0.9v-5.3h1.7v7.4h-1.6L297.5,517.3z M302.5,510.6
	l0,0.9c0.5-0.7,1.3-1,2.2-1c1.5,0,2.3,0.9,2.4,2.6v4.9h-1.7v-4.8c0-0.5-0.1-0.8-0.3-1c-0.2-0.2-0.5-0.3-1-0.3
	c-0.7,0-1.2,0.3-1.5,0.9v5.3h-1.7v-7.4H302.5z M308.5,514.2c0-1.1,0.3-2.1,0.8-2.7c0.5-0.7,1.2-1,2.1-1c0.8,0,1.4,0.3,1.9,0.8v-3.8
	h1.7V518h-1.5l-0.1-0.8c-0.5,0.6-1.2,0.9-2,0.9c-0.9,0-1.6-0.3-2.1-1C308.8,516.4,308.5,515.4,308.5,514.2z M310.2,514.4
	c0,0.8,0.1,1.3,0.4,1.8c0.3,0.4,0.7,0.6,1.2,0.6c0.7,0,1.2-0.3,1.5-0.9v-3.2c-0.3-0.6-0.8-0.9-1.5-0.9c-0.5,0-1,0.2-1.2,0.6
	C310.3,512.9,310.2,513.5,310.2,514.4z M322.2,518h-1.7v-10.5h1.7V518z M325.9,518h-1.7v-7.4h1.7V518z M324.1,508.7
	c0-0.3,0.1-0.5,0.2-0.6c0.2-0.2,0.4-0.3,0.7-0.3c0.3,0,0.5,0.1,0.7,0.3c0.2,0.2,0.2,0.4,0.2,0.6c0,0.2-0.1,0.5-0.2,0.6
	c-0.2,0.2-0.4,0.2-0.7,0.2c-0.3,0-0.5-0.1-0.7-0.2C324.2,509.1,324.1,508.9,324.1,508.7z M327.5,514.2c0-1.1,0.3-2.1,0.8-2.7
	c0.5-0.7,1.3-1,2.2-1c0.8,0,1.5,0.3,2,0.9l0.1-0.7h1.5v7.2c0,1-0.3,1.7-0.9,2.3c-0.6,0.6-1.4,0.8-2.4,0.8c-0.5,0-1.1-0.1-1.6-0.3
	c-0.5-0.2-0.9-0.5-1.2-0.9l0.8-1c0.5,0.6,1.1,0.9,1.9,0.9c0.6,0,1-0.2,1.3-0.5c0.3-0.3,0.5-0.7,0.5-1.3v-0.5
	c-0.5,0.5-1.1,0.8-1.9,0.8c-0.9,0-1.6-0.3-2.1-1C327.8,516.4,327.5,515.5,327.5,514.2z M329.1,514.4c0,0.7,0.1,1.3,0.5,1.8
	c0.3,0.4,0.7,0.6,1.3,0.6c0.7,0,1.2-0.3,1.5-0.9v-3.3c-0.3-0.6-0.8-0.8-1.5-0.8c-0.5,0-1,0.2-1.3,0.6
	C329.3,512.9,329.1,513.5,329.1,514.4z M337.5,511.4c0.5-0.6,1.2-0.9,2.1-0.9c1.6,0,2.4,0.9,2.4,2.7v4.8h-1.7v-4.8
	c0-0.5-0.1-0.9-0.3-1.1c-0.2-0.2-0.5-0.3-1-0.3c-0.7,0-1.2,0.3-1.5,0.9v5.3h-1.7v-10.5h1.7V511.4z M345.8,508.8v1.8h1.3v1.2h-1.3
	v4.1c0,0.3,0.1,0.5,0.2,0.6c0.1,0.1,0.3,0.2,0.6,0.2c0.2,0,0.4,0,0.6-0.1v1.3c-0.4,0.1-0.7,0.2-1.1,0.2c-1.3,0-1.9-0.7-1.9-2.1v-4.2
	h-1.2v-1.2h1.2v-1.8H345.8z"/>
<path class="st6" d="M298.2,596v-4.3h4v-1.4h-4v-2.7h4.5v-1.4h-6.1v9.8H298.2z M311,594.7h-4.9l2.3-2c1.3-1.1,2.3-2.1,2.3-3.7
	c0-1.7-1.1-2.9-3.1-2.9c-2,0-2.9,1.1-3.3,2.4l1.4,0.5c0.2-0.9,0.8-1.5,1.8-1.5c1,0,1.6,0.6,1.6,1.5v0.2c0,0.9-0.6,1.7-1.5,2.6
	l-3.1,2.8v1.5h6.6V594.7z M314.6,596v-4.3h4v-1.4h-4v-2.7h4.5v-1.4H313v9.8H314.6z M327.4,594.7h-4.9l2.3-2c1.3-1.1,2.3-2.1,2.3-3.7
	c0-1.7-1.1-2.9-3.1-2.9c-2,0-2.9,1.1-3.3,2.4l1.4,0.5c0.2-0.9,0.8-1.5,1.8-1.5c1,0,1.6,0.6,1.6,1.5v0.2c0,0.9-0.6,1.7-1.5,2.6
	l-3.1,2.8v1.5h6.6V594.7z M331,596v-4.3h4v-1.4h-4v-2.7h4.5v-1.4h-6.1v9.8H331z M343.7,594.7h-4.9l2.3-2c1.3-1.1,2.3-2.1,2.3-3.7
	c0-1.7-1.1-2.9-3.1-2.9c-2,0-2.9,1.1-3.3,2.4l1.4,0.5c0.2-0.9,0.8-1.5,1.8-1.5c1,0,1.6,0.6,1.6,1.5v0.2c0,0.9-0.6,1.7-1.5,2.6
	l-3.1,2.8v1.5h6.6V594.7z"/>
<path class="st3" d="M482,551h156c1.1,0,2,0.9,2,2v75c0,1.1-0.9,2-2,2H482c-1.1,0-2-0.9-2-2v-75C480,551.9,480.9,551,482,551z"/>
<path class="st2" d="M481,518v-10h3.4c1.1,0,2,0.2,2.6,0.7c0.6,0.5,0.9,1.1,0.9,2c0,0.5-0.1,0.9-0.4,1.2c-0.2,0.4-0.6,0.6-1.1,0.8
	c0.5,0.1,1,0.4,1.2,0.8c0.3,0.4,0.4,0.9,0.4,1.4c0,0.9-0.3,1.7-0.9,2.2c-0.6,0.5-1.5,0.8-2.6,0.8H481z M482.7,513.5v3.1h1.9
	c0.5,0,1-0.1,1.3-0.4c0.3-0.3,0.5-0.6,0.5-1.1c0-1-0.5-1.6-1.6-1.6H482.7z M482.7,512.2h1.7c0.5,0,1-0.1,1.3-0.4
	c0.3-0.2,0.5-0.6,0.5-1c0-0.5-0.1-0.8-0.4-1.1c-0.3-0.2-0.7-0.3-1.3-0.3h-1.7V512.2z M494.2,518c-0.1-0.1-0.1-0.4-0.2-0.7
	c-0.5,0.6-1.2,0.8-1.9,0.8c-0.7,0-1.3-0.2-1.8-0.6c-0.5-0.4-0.7-0.9-0.7-1.6c0-0.8,0.3-1.4,0.9-1.8c0.6-0.4,1.4-0.6,2.5-0.6h1V513
	c0-0.4-0.1-0.7-0.3-0.9c-0.2-0.2-0.5-0.3-1-0.3c-0.4,0-0.7,0.1-0.9,0.3c-0.2,0.2-0.4,0.4-0.4,0.7h-1.7c0-0.4,0.1-0.8,0.4-1.1
	c0.3-0.4,0.6-0.6,1.1-0.8c0.5-0.2,1-0.3,1.6-0.3c0.9,0,1.6,0.2,2.1,0.7c0.5,0.4,0.8,1,0.8,1.8v3.3c0,0.7,0.1,1.2,0.3,1.6v0.1H494.2z
	 M492.4,516.8c0.3,0,0.6-0.1,0.9-0.2c0.3-0.2,0.5-0.4,0.7-0.6v-1.4h-0.9c-0.6,0-1.1,0.1-1.4,0.3c-0.3,0.2-0.5,0.5-0.5,0.9
	c0,0.3,0.1,0.6,0.3,0.8C491.7,516.7,492,516.8,492.4,516.8z M500.5,516.8c0.4,0,0.8-0.1,1-0.4c0.3-0.2,0.4-0.5,0.4-0.9h1.6
	c0,0.5-0.2,0.9-0.4,1.3c-0.3,0.4-0.6,0.7-1.1,0.9c-0.5,0.2-1,0.3-1.5,0.3c-1,0-1.9-0.3-2.5-1c-0.6-0.7-0.9-1.6-0.9-2.8v-0.2
	c0-1.1,0.3-2,0.9-2.7c0.6-0.7,1.4-1,2.5-1c0.9,0,1.6,0.3,2.1,0.8c0.6,0.5,0.8,1.2,0.9,2H502c0-0.4-0.2-0.8-0.4-1
	c-0.3-0.3-0.6-0.4-1-0.4c-0.5,0-1,0.2-1.2,0.6c-0.3,0.4-0.4,1-0.4,1.8v0.3c0,0.8,0.1,1.4,0.4,1.8
	C499.5,516.6,499.9,516.8,500.5,516.8z M507.3,514.8l-0.7,0.8v2.4h-1.7v-10.5h1.7v6.1l0.5-0.7l2-2.3h2l-2.7,3.1l3,4.3h-1.9
	L507.3,514.8z M511.9,514.2c0-1.1,0.3-2.1,0.8-2.7c0.5-0.7,1.3-1,2.2-1c0.8,0,1.5,0.3,2,0.9l0.1-0.7h1.5v7.2c0,1-0.3,1.7-0.9,2.3
	c-0.6,0.6-1.4,0.8-2.4,0.8c-0.5,0-1.1-0.1-1.6-0.3c-0.5-0.2-0.9-0.5-1.2-0.9l0.8-1c0.5,0.6,1.1,0.9,1.9,0.9c0.6,0,1-0.2,1.3-0.5
	c0.3-0.3,0.5-0.7,0.5-1.3v-0.5c-0.5,0.5-1.1,0.8-1.9,0.8c-0.9,0-1.6-0.3-2.1-1C512.1,516.4,511.9,515.5,511.9,514.2z M513.5,514.4
	c0,0.7,0.2,1.3,0.5,1.8c0.3,0.4,0.7,0.6,1.3,0.6c0.7,0,1.2-0.3,1.5-0.9v-3.3c-0.3-0.6-0.8-0.8-1.5-0.8c-0.5,0-1,0.2-1.3,0.6
	C513.7,512.9,513.5,513.5,513.5,514.4z M524.1,512.1c-0.2,0-0.4-0.1-0.7-0.1c-0.8,0-1.3,0.3-1.5,0.9v5.1h-1.7v-7.4h1.6l0,0.8
	c0.4-0.6,1-1,1.7-1c0.2,0,0.4,0,0.6,0.1L524.1,512.1z M524.7,514.2c0-0.7,0.1-1.4,0.4-2c0.3-0.6,0.7-1,1.2-1.3
	c0.5-0.3,1.1-0.5,1.8-0.5c1,0,1.8,0.3,2.4,1c0.6,0.6,1,1.5,1,2.6l0,0.4c0,0.7-0.1,1.4-0.4,2c-0.3,0.6-0.7,1-1.2,1.3
	c-0.5,0.3-1.1,0.5-1.8,0.5c-1,0-1.9-0.3-2.5-1C525,516.4,524.7,515.5,524.7,514.2L524.7,514.2z M526.3,514.4c0,0.8,0.2,1.4,0.5,1.8
	c0.3,0.4,0.8,0.6,1.3,0.6c0.6,0,1-0.2,1.3-0.7c0.3-0.4,0.5-1.1,0.5-1.9c0-0.7-0.2-1.3-0.5-1.8c-0.3-0.4-0.8-0.7-1.3-0.7
	c-0.5,0-1,0.2-1.3,0.6C526.5,512.9,526.3,513.5,526.3,514.4z M537.5,517.3c-0.5,0.6-1.2,0.9-2.1,0.9c-0.8,0-1.4-0.2-1.8-0.7
	c-0.4-0.5-0.6-1.1-0.6-2v-4.8h1.7v4.8c0,0.9,0.4,1.4,1.2,1.4c0.8,0,1.4-0.3,1.6-0.9v-5.3h1.7v7.4h-1.6L537.5,517.3z M542.5,510.6
	l0,0.9c0.5-0.7,1.3-1,2.2-1c1.5,0,2.3,0.9,2.4,2.6v4.9h-1.7v-4.8c0-0.5-0.1-0.8-0.3-1c-0.2-0.2-0.5-0.3-1-0.3
	c-0.7,0-1.2,0.3-1.5,0.9v5.3h-1.7v-7.4H542.5z M548.5,514.2c0-1.1,0.3-2.1,0.8-2.7c0.5-0.7,1.2-1,2.1-1c0.8,0,1.4,0.3,1.9,0.8v-3.8
	h1.7V518h-1.5l-0.1-0.8c-0.5,0.6-1.2,0.9-2,0.9c-0.9,0-1.6-0.3-2.1-1C548.8,516.4,548.5,515.4,548.5,514.2z M550.2,514.4
	c0,0.8,0.1,1.3,0.4,1.8c0.3,0.4,0.7,0.6,1.2,0.6c0.7,0,1.2-0.3,1.5-0.9v-3.2c-0.3-0.6-0.8-0.9-1.5-0.9c-0.5,0-1,0.2-1.2,0.6
	C550.3,512.9,550.2,513.5,550.2,514.4z M566.9,515.7l1.2-5.1h1.6l-2,7.4h-1.4l-1.6-5.1l-1.6,5.1h-1.4l-2-7.4h1.6l1.2,5.1l1.5-5.1
	h1.3L566.9,515.7z M572.6,511.4c0.5-0.6,1.2-0.9,2.1-0.9c1.6,0,2.4,0.9,2.4,2.7v4.8h-1.7v-4.8c0-0.5-0.1-0.9-0.3-1.1
	c-0.2-0.2-0.5-0.3-1-0.3c-0.7,0-1.2,0.3-1.5,0.9v5.3h-1.7v-10.5h1.7V511.4z M580.6,518h-1.7v-7.4h1.7V518z M578.8,508.7
	c0-0.3,0.1-0.5,0.2-0.6c0.2-0.2,0.4-0.3,0.7-0.3c0.3,0,0.5,0.1,0.7,0.3c0.2,0.2,0.2,0.4,0.2,0.6c0,0.2-0.1,0.5-0.2,0.6
	c-0.2,0.2-0.4,0.2-0.7,0.2c-0.3,0-0.5-0.1-0.7-0.2C578.9,509.1,578.8,508.9,578.8,508.7z M584.6,508.8v1.8h1.3v1.2h-1.3v4.1
	c0,0.3,0.1,0.5,0.2,0.6c0.1,0.1,0.3,0.2,0.6,0.2c0.2,0,0.4,0,0.6-0.1v1.3c-0.4,0.1-0.7,0.2-1.1,0.2c-1.3,0-1.9-0.7-1.9-2.1v-4.2
	h-1.2v-1.2h1.2v-1.8H584.6z M590.5,518.1c-1.1,0-1.9-0.3-2.6-1c-0.7-0.7-1-1.5-1-2.7v-0.2c0-0.7,0.1-1.4,0.4-2
	c0.3-0.6,0.7-1,1.2-1.4c0.5-0.3,1.1-0.5,1.7-0.5c1,0,1.8,0.3,2.3,1c0.6,0.6,0.8,1.6,0.8,2.7v0.7h-4.8c0,0.6,0.3,1.1,0.6,1.4
	c0.4,0.4,0.8,0.5,1.4,0.5c0.8,0,1.4-0.3,1.9-0.9l0.9,0.9c-0.3,0.4-0.7,0.8-1.2,1C591.7,518,591.1,518.1,590.5,518.1z M590.3,511.8
	c-0.5,0-0.8,0.2-1.1,0.5c-0.3,0.3-0.5,0.8-0.5,1.3h3.2v-0.1c0-0.6-0.2-1-0.4-1.3C591.1,511.9,590.8,511.8,590.3,511.8z"/>
<path class="st6" d="M537.3,596v-9.8h6.1v1.4h-4.5v2.7h4v1.4h-4v4.3H537.3z M545.2,596v-9.8h6.1v1.4h-4.5v2.7h4v1.4h-4v4.3H545.2z
	 M553.2,596v-9.8h6.1v1.4h-4.5v2.7h4v1.4h-4v4.3H553.2z M561.2,596v-9.8h6.1v1.4h-4.5v2.7h4v1.4h-4v4.3H561.2z M569.2,596v-9.8h6.1
	v1.4h-4.5v2.7h4v1.4h-4v4.3H569.2z M577.2,596v-9.8h6.1v1.4h-4.5v2.7h4v1.4h-4v4.3H577.2z"/>
</svg>
