<svg width="880" height="631" viewBox="0 0 880 631" fill="none" xmlns="http://www.w3.org/2000/svg">
<path d="M7.308 21.252C9.849 21.252 11.613 19.971 12.6 17.85L10.689 16.695C10.164 18.123 9.051 19.131 7.308 19.131C5.061 19.131 3.675 17.493 3.675 14.784V12.558C3.675 9.849 5.061 8.211 7.308 8.211C9.009 8.211 10.038 9.114 10.542 10.5L12.537 9.408C11.55 7.224 9.849 6.09 7.308 6.09C3.486 6.09 1.155 8.757 1.155 13.671C1.155 18.585 3.486 21.252 7.308 21.252ZM19.3816 21.252C22.4266 21.252 24.4006 19.026 24.4006 15.54C24.4006 12.054 22.4266 9.828 19.3816 9.828C16.3366 9.828 14.3626 12.054 14.3626 15.54C14.3626 19.026 16.3366 21.252 19.3816 21.252ZM19.3816 19.362C17.8276 19.362 16.7776 18.396 16.7776 16.464V14.616C16.7776 12.684 17.8276 11.718 19.3816 11.718C20.9356 11.718 21.9856 12.684 21.9856 14.616V16.464C21.9856 18.396 20.9356 19.362 19.3816 19.362ZM30.9021 21V19.131H29.3901V5.46H27.1011V18.732C27.1011 20.139 27.8781 21 29.4321 21H30.9021ZM37.5234 21.252C40.5684 21.252 42.5424 19.026 42.5424 15.54C42.5424 12.054 40.5684 9.828 37.5234 9.828C34.4784 9.828 32.5044 12.054 32.5044 15.54C32.5044 19.026 34.4784 21.252 37.5234 21.252ZM37.5234 19.362C35.9694 19.362 34.9194 18.396 34.9194 16.464V14.616C34.9194 12.684 35.9694 11.718 37.5234 11.718C39.0774 11.718 40.1274 12.684 40.1274 14.616V16.464C40.1274 18.396 39.0774 19.362 37.5234 19.362ZM47.5319 21V14.028C47.5319 12.894 48.5399 12.285 50.3459 12.285H51.2489V10.08H50.6399C48.8969 10.08 47.9519 11.067 47.6369 12.18H47.5319V10.08H45.2429V21H47.5319ZM56.8969 21.252C59.5219 21.252 61.2229 19.845 61.2229 17.745C61.2229 15.981 60.1519 14.931 57.7579 14.574L56.7499 14.448C55.5949 14.259 55.0699 13.881 55.0699 13.041C55.0699 12.222 55.6579 11.676 56.9179 11.676C58.0939 11.676 59.0179 12.243 59.5849 12.915L60.9919 11.571C60.0049 10.479 58.8919 9.828 56.9179 9.828C54.5239 9.828 52.8649 11.067 52.8649 13.188C52.8649 15.204 54.2299 16.17 56.4559 16.443L57.4639 16.569C58.5979 16.716 59.0179 17.241 59.0179 17.934C59.0179 18.858 58.3459 19.404 57.0229 19.404C55.7209 19.404 54.7339 18.816 53.9359 17.85L52.4659 19.194C53.4949 20.475 54.8389 21.252 56.8969 21.252Z" fill="black"/>
<rect y="99" width="78" height="79" rx="2" fill="#007FA3"/>
<rect x="82" y="99" width="78" height="79" rx="2" fill="#E5F2F6"/>
<path d="M2.786 69V65.108H5.404C7.196 65.108 8.246 63.946 8.246 62.168C8.246 60.39 7.196 59.228 5.404 59.228H1.204V69H2.786ZM2.786 60.614H5.306C6.104 60.614 6.58 61.048 6.58 61.832V62.504C6.58 63.288 6.104 63.722 5.306 63.722H2.786V60.614ZM11.3586 69V64.352C11.3586 63.596 12.0306 63.19 13.2346 63.19H13.8366V61.72H13.4306C12.2686 61.72 11.6386 62.378 11.4286 63.12H11.3586V61.72H9.83263V69H11.3586ZM16.062 60.418C16.692 60.418 16.958 60.082 16.958 59.62V59.382C16.958 58.92 16.692 58.584 16.062 58.584C15.432 58.584 15.152 58.92 15.152 59.382V59.62C15.152 60.082 15.432 60.418 16.062 60.418ZM15.292 69H16.818V61.72H15.292V69ZM20.6231 69V64.114C20.6231 63.274 21.3651 62.868 22.1211 62.868C23.0171 62.868 23.4511 63.428 23.4511 64.562V69H24.9771V64.114C24.9771 63.274 25.6911 62.868 26.4611 62.868C27.3851 62.868 27.8051 63.442 27.8051 64.562V69H29.3311V64.38C29.3311 62.588 28.4771 61.552 27.0351 61.552C25.8591 61.552 25.1031 62.224 24.8371 63.036H24.7951C24.4451 62.028 23.6191 61.552 22.6391 61.552C21.5331 61.552 20.9871 62.168 20.6931 62.924H20.6231V61.72H19.0971V69H20.6231ZM37.7308 69V67.754H36.9608V64.1C36.9608 62.476 35.9108 61.552 34.0348 61.552C32.6208 61.552 31.7668 62.154 31.2908 62.966L32.2008 63.792C32.5648 63.218 33.0828 62.798 33.9368 62.798C34.9588 62.798 35.4348 63.316 35.4348 64.198V64.814H34.1188C32.0888 64.814 31.0108 65.556 31.0108 66.998C31.0108 68.314 31.8648 69.168 33.3628 69.168C34.4268 69.168 35.2108 68.692 35.4908 67.782H35.5608C35.6588 68.496 36.0788 69 36.8768 69H37.7308ZM33.7968 68.006C33.0408 68.006 32.5648 67.67 32.5648 67.026V66.774C32.5648 66.144 33.0828 65.794 34.1468 65.794H35.4348V66.844C35.4348 67.558 34.7348 68.006 33.7968 68.006ZM40.8524 69V64.352C40.8524 63.596 41.5244 63.19 42.7284 63.19H43.3304V61.72H42.9244C41.7624 61.72 41.1324 62.378 40.9224 63.12H40.8524V61.72H39.3264V69H40.8524ZM47.9188 66.004L47.4568 67.586H47.3868L46.9668 66.004L45.5108 61.72H43.9848L46.6308 69.322L46.2108 70.554H44.9788V71.8H45.8608C46.9948 71.8 47.4288 71.422 47.7788 70.442L50.8448 61.72H49.3748L47.9188 66.004Z" fill="#9E9E9E"/>
<path d="M17.9646 144.168C20.4006 144.168 21.5066 142.306 21.5066 139.114C21.5066 135.922 20.4006 134.06 17.9646 134.06C15.5286 134.06 14.4226 135.922 14.4226 139.114C14.4226 142.306 15.5286 144.168 17.9646 144.168ZM17.9646 142.824C16.6066 142.824 16.1026 141.676 16.1026 139.968V138.26C16.1026 136.552 16.6066 135.404 17.9646 135.404C19.3226 135.404 19.8266 136.552 19.8266 138.26V139.968C19.8266 141.676 19.3226 142.824 17.9646 142.824ZM26.4592 144.168C28.8952 144.168 30.0012 142.306 30.0012 139.114C30.0012 135.922 28.8952 134.06 26.4592 134.06C24.0232 134.06 22.9172 135.922 22.9172 139.114C22.9172 142.306 24.0232 144.168 26.4592 144.168ZM26.4592 142.824C25.1012 142.824 24.5972 141.676 24.5972 139.968V138.26C24.5972 136.552 25.1012 135.404 26.4592 135.404C27.8172 135.404 28.3212 136.552 28.3212 138.26V139.968C28.3212 141.676 27.8172 142.824 26.4592 142.824ZM34.8137 144L38.2577 135.6V134.228H31.6357V137.336H32.9937V135.53H36.6897L33.1477 144H34.8137ZM42.0342 144V139.744H46.0522V138.344H42.0342V135.628H46.5562V134.228H40.4522V144H42.0342ZM55.4313 144L52.0993 134.228H50.1113L46.7793 144H48.3893L49.2433 141.354H52.8973L53.7793 144H55.4313ZM52.5053 139.996H49.6213L51.0353 135.684H51.1053L52.5053 139.996ZM58.5148 138.246V139.59H59.5508C60.7828 139.59 61.4828 140.136 61.4828 141.13V141.228C61.4828 142.236 60.8248 142.838 59.6348 142.838C58.5008 142.838 57.9268 142.292 57.4508 141.508L56.2888 142.418C56.9048 143.314 57.8148 144.168 59.6348 144.168C61.7208 144.168 63.1208 143.02 63.1208 141.312C63.1208 139.898 62.1828 139.1 61.0768 138.89V138.82C62.0988 138.596 62.9528 137.826 62.9528 136.58C62.9528 134.998 61.6228 134.06 59.7748 134.06C58.1508 134.06 57.2548 134.816 56.6668 135.67L57.7168 136.58C58.1648 135.838 58.8088 135.39 59.7328 135.39C60.6708 135.39 61.2868 135.894 61.2868 136.776V136.874C61.2868 137.672 60.7128 138.246 59.5088 138.246H58.5148Z" fill="white"/>
<path d="M104.486 144V142.6H99.8104V139.744H104.052V138.344H99.8104V135.628H104.486V134.228H98.2284V144H104.486ZM112.535 134.228H106.991L106.627 139.674L107.929 139.856C108.279 139.464 108.741 139.086 109.581 139.086C110.729 139.086 111.387 139.758 111.387 140.878V141.046C111.387 142.166 110.729 142.838 109.581 142.838C108.489 142.838 107.943 142.278 107.467 141.508L106.319 142.418C106.907 143.314 107.817 144.168 109.553 144.168C111.765 144.168 113.039 142.782 113.039 140.836C113.039 138.918 111.765 137.784 110.085 137.784C108.965 137.784 108.475 138.288 108.041 139.058H107.943L108.195 135.6H112.535V134.228ZM116.704 144V139.744H120.722V138.344H116.704V135.628H121.226V134.228H115.122V144H116.704ZM129.576 142.656H124.648L126.944 140.682C128.232 139.576 129.282 138.54 129.282 136.958C129.282 135.264 128.134 134.06 126.146 134.06C124.186 134.06 123.206 135.208 122.8 136.44L124.186 136.972C124.424 136.118 124.942 135.432 126.02 135.432C126.986 135.432 127.602 136.02 127.602 136.958V137.14C127.602 138.036 127.042 138.82 126.062 139.702L122.94 142.488V144H129.576V142.656ZM133.283 144V139.744H137.301V138.344H133.283V135.628H137.805V134.228H131.701V144H133.283ZM142.809 144.168C144.881 144.168 146.239 142.81 146.239 140.85C146.239 139.002 145.021 137.826 143.369 137.826C142.151 137.826 141.507 138.484 141.101 139.254L141.003 139.226C141.479 137.126 142.753 135.838 144.965 134.228H142.865C141.255 135.292 139.365 137.532 139.365 140.36C139.365 142.698 140.653 144.168 142.809 144.168ZM142.809 142.88C141.675 142.88 141.003 142.25 141.003 141.088V140.892C141.003 139.73 141.675 139.1 142.809 139.1C143.943 139.1 144.615 139.73 144.615 140.892V141.088C144.615 142.25 143.943 142.88 142.809 142.88Z" fill="black"/>
<rect x="241" y="102.038" width="78" height="75.9615" rx="2" fill="#C41B36"/>
<rect x="323" y="102.038" width="78" height="75.9615" rx="2" fill="#FDE0E5"/>
<path d="M249.652 67L246.236 57.228H244.738L241.322 67H242.512L243.492 64.116H247.44L248.42 67H249.652ZM247.146 63.08H243.772L245.424 58.32H245.494L247.146 63.08ZM254.097 67.168C255.469 67.168 256.407 66.496 256.869 65.46L256.057 64.914C255.665 65.74 255.007 66.174 254.097 66.174C252.767 66.174 252.081 65.264 252.081 64.004V62.772C252.081 61.512 252.767 60.602 254.097 60.602C254.979 60.602 255.595 61.036 255.861 61.778L256.799 61.302C256.379 60.308 255.525 59.608 254.097 59.608C252.067 59.608 250.877 61.078 250.877 63.388C250.877 65.698 252.067 67.168 254.097 67.168ZM261.306 67.168C262.678 67.168 263.616 66.496 264.078 65.46L263.266 64.914C262.874 65.74 262.216 66.174 261.306 66.174C259.976 66.174 259.29 65.264 259.29 64.004V62.772C259.29 61.512 259.976 60.602 261.306 60.602C262.188 60.602 262.804 61.036 263.07 61.778L264.008 61.302C263.588 60.308 262.734 59.608 261.306 59.608C259.276 59.608 258.086 61.078 258.086 63.388C258.086 65.698 259.276 67.168 261.306 67.168ZM268.543 67.168C269.901 67.168 270.937 66.496 271.399 65.516L270.601 64.942C270.223 65.74 269.523 66.188 268.613 66.188C267.269 66.188 266.471 65.25 266.471 64.004V63.668H271.665V63.136C271.665 61.092 270.475 59.608 268.543 59.608C266.583 59.608 265.295 61.092 265.295 63.388C265.295 65.684 266.583 67.168 268.543 67.168ZM268.543 60.546C269.691 60.546 270.461 61.4 270.461 62.674V62.828H266.471V62.73C266.471 61.47 267.325 60.546 268.543 60.546ZM274.88 67V61.988C274.88 61.064 275.748 60.616 276.644 60.616C277.722 60.616 278.282 61.274 278.282 62.562V67H279.402V62.366C279.402 60.616 278.464 59.608 276.98 59.608C275.902 59.608 275.286 60.14 274.936 60.952H274.88V59.776H273.76V67H274.88ZM284.963 67V66.02H283.493V60.756H285.075V59.776H283.493V57.774H282.485V59.118C282.485 59.608 282.331 59.776 281.855 59.776H281.183V60.756H282.373V65.81C282.373 66.51 282.793 67 283.563 67H284.963Z" fill="#9E9E9E"/>
<path d="M255.883 145.206C257.675 145.206 258.837 144.352 259.565 142.868L257.829 141.86C257.535 142.658 256.933 143.316 255.883 143.316C254.637 143.316 253.811 142.476 253.811 140.936V139.368C253.811 137.828 254.637 136.988 255.883 136.988C256.933 136.988 257.451 137.534 257.703 138.346L259.537 137.394C258.823 135.826 257.675 135.098 255.883 135.098C253.251 135.098 251.557 136.918 251.557 140.222C251.557 143.526 253.251 145.206 255.883 145.206ZM267.947 145.038V143.162H269.179V141.538H267.947V135.266H265.455L261.647 141.37V143.162H265.945V145.038H267.947ZM265.805 137.436H265.945V141.538H263.327L265.805 137.436ZM278.991 145.038V143.344H276.919V135.266H273.699L271.361 138.346L272.705 139.396L274.693 136.792H274.819V143.344H272.187V145.038H278.991ZM281.594 145.038H286.774C288.216 145.038 289.294 143.792 289.294 142.252C289.294 140.572 288.02 139.956 287.096 139.956V139.872C288.09 139.83 288.916 139.27 288.916 137.772C288.916 136.26 287.95 135.266 286.34 135.266H281.594V145.038ZM283.722 141.006H286.172C286.732 141.006 287.082 141.328 287.082 141.888V142.364C287.082 142.924 286.732 143.246 286.172 143.246H283.722V141.006ZM283.722 137.058H285.836C286.396 137.058 286.732 137.394 286.732 137.954V138.374C286.732 138.934 286.396 139.27 285.836 139.27H283.722V137.058ZM293.862 139.13V140.88H294.744C295.808 140.88 296.452 141.286 296.452 142.084V142.168C296.452 142.98 295.892 143.498 294.94 143.498C293.89 143.498 293.302 142.924 292.882 142.126L291.328 143.33C291.958 144.324 292.952 145.206 294.94 145.206C297.152 145.206 298.65 144.072 298.65 142.322C298.65 140.978 297.782 140.18 296.62 139.97V139.886C297.628 139.704 298.482 138.934 298.482 137.688C298.482 136.12 297.124 135.098 295.024 135.098C293.344 135.098 292.392 135.77 291.65 136.736L292.966 137.968C293.456 137.226 294.17 136.806 294.954 136.806C295.78 136.806 296.27 137.282 296.27 137.982V138.08C296.27 138.682 295.808 139.13 294.772 139.13H293.862ZM305.004 145.206C307.23 145.206 308.672 143.778 308.672 141.776C308.672 139.928 307.426 138.738 305.816 138.738C304.57 138.738 303.996 139.466 303.66 140.208L303.534 140.166C303.926 138.304 305.354 136.974 307.734 135.266H304.836C303.17 136.4 301.336 138.584 301.336 141.328C301.336 143.68 302.68 145.206 305.004 145.206ZM305.004 143.568C304.08 143.568 303.52 143.036 303.52 142.084V141.832C303.52 140.88 304.08 140.348 305.004 140.348C305.928 140.348 306.488 140.88 306.488 141.832V142.084C306.488 143.036 305.928 143.568 305.004 143.568Z" fill="white"/>
<path d="M336.207 145.038V141.034H339.917V139.158H336.207V137.156H340.561V135.266H334.079V145.038H336.207ZM343.518 145.038H347.2C349.79 145.038 351.498 143.4 351.498 140.152C351.498 136.904 349.79 135.266 347.2 135.266H343.518V145.038ZM345.646 143.148V137.156H347.2C348.46 137.156 349.244 137.842 349.244 139.396V140.908C349.244 142.462 348.46 143.148 347.2 143.148H345.646ZM361.18 145.038V143.148H356.658V141.034H360.536V139.158H356.658V137.156H361.18V135.266H354.53V145.038H361.18ZM367.406 145.206C369.968 145.206 371.172 143.344 371.172 140.152C371.172 136.96 369.968 135.098 367.406 135.098C364.844 135.098 363.64 136.96 363.64 140.152C363.64 143.344 364.844 145.206 367.406 145.206ZM367.406 143.428C366.286 143.428 365.922 142.56 365.922 141.076V139.228C365.922 137.744 366.286 136.876 367.406 136.876C368.526 136.876 368.89 137.744 368.89 139.228V141.076C368.89 142.56 368.526 143.428 367.406 143.428ZM380.579 145.038V143.148H376.057V141.034H379.935V139.158H376.057V137.156H380.579V135.266H373.929V145.038H380.579ZM389.912 135.266H383.934L383.57 140.796L385.292 141.034C385.544 140.74 386.048 140.348 386.804 140.348C387.714 140.348 388.274 140.908 388.274 141.804V141.916C388.274 142.868 387.756 143.498 386.748 143.498C385.74 143.498 385.194 142.882 384.774 142.126L383.248 143.33C383.836 144.324 384.844 145.206 386.734 145.206C389.142 145.206 390.486 143.736 390.486 141.748C390.486 139.788 389.142 138.64 387.476 138.64C386.23 138.64 385.768 139.27 385.376 140.194H385.264L385.474 137.1H389.912V135.266Z" fill="black"/>
<rect y="253.038" width="78" height="75.9615" rx="2" fill="#CC0000"/>
<rect x="82" y="253.038" width="78" height="75.9615" rx="2" fill="#F9E0E0"/>
<path d="M3.962 218L5.264 213.128L6.188 209.544H6.216L7.112 213.128L8.386 218H9.688L12.194 208.228H10.99L9.884 212.932L9.044 216.572H9.002L8.092 212.932L6.902 208.228H5.558L4.326 212.932L3.416 216.586H3.388L2.576 212.932L1.526 208.228H0.28L2.66 218H3.962ZM19.652 218V217.02H18.826V213.044C18.826 211.518 17.79 210.608 16.054 210.608C14.752 210.608 13.884 211.252 13.492 212.022L14.164 212.652C14.556 211.994 15.13 211.574 15.998 211.574C17.146 211.574 17.706 212.134 17.706 213.156V213.87H16.278C14.178 213.87 13.198 214.626 13.198 215.984C13.198 217.328 14.094 218.168 15.62 218.168C16.628 218.168 17.398 217.706 17.706 216.824H17.776C17.86 217.496 18.196 218 19.022 218H19.652ZM15.802 217.216C14.934 217.216 14.374 216.81 14.374 216.096V215.802C14.374 215.102 14.948 214.71 16.222 214.71H17.706V215.9C17.706 216.642 16.908 217.216 15.802 217.216ZM22.6205 218V213.1C22.6205 212.414 23.3485 211.896 24.5525 211.896H25.2105V210.776H24.7765C23.6005 210.776 22.9425 211.42 22.6905 212.106H22.6205V210.776H21.5005V218H22.6205ZM28.0112 218V212.988C28.0112 212.064 28.8792 211.616 29.7752 211.616C30.8532 211.616 31.4132 212.274 31.4132 213.562V218H32.5332V213.366C32.5332 211.616 31.5952 210.608 30.1112 210.608C29.0332 210.608 28.4172 211.14 28.0672 211.952H28.0112V210.776H26.8912V218H28.0112Z" fill="#9E9E9E"/>
<path d="M15.0817 296.206C16.8737 296.206 18.0357 295.352 18.7637 293.868L17.0277 292.86C16.7337 293.658 16.1317 294.316 15.0817 294.316C13.8357 294.316 13.0097 293.476 13.0097 291.936V290.368C13.0097 288.828 13.8357 287.988 15.0817 287.988C16.1317 287.988 16.6497 288.534 16.9017 289.346L18.7357 288.394C18.0217 286.826 16.8737 286.098 15.0817 286.098C12.4497 286.098 10.7557 287.918 10.7557 291.222C10.7557 294.526 12.4497 296.206 15.0817 296.206ZM25.2731 296.206C27.0651 296.206 28.2271 295.352 28.9551 293.868L27.2191 292.86C26.9251 293.658 26.3231 294.316 25.2731 294.316C24.0271 294.316 23.2011 293.476 23.2011 291.936V290.368C23.2011 288.828 24.0271 287.988 25.2731 287.988C26.3231 287.988 26.8411 288.534 27.0931 289.346L28.9271 288.394C28.2131 286.826 27.0651 286.098 25.2731 286.098C22.6411 286.098 20.9471 287.918 20.9471 291.222C20.9471 294.526 22.6411 296.206 25.2731 296.206ZM34.8162 296.206C37.3782 296.206 38.5822 294.344 38.5822 291.152C38.5822 287.96 37.3782 286.098 34.8162 286.098C32.2542 286.098 31.0502 287.96 31.0502 291.152C31.0502 294.344 32.2542 296.206 34.8162 296.206ZM34.8162 294.428C33.6962 294.428 33.3322 293.56 33.3322 292.076V290.228C33.3322 288.744 33.6962 287.876 34.8162 287.876C35.9362 287.876 36.3002 288.744 36.3002 290.228V292.076C36.3002 293.56 35.9362 294.428 34.8162 294.428ZM44.4607 296.206C47.0227 296.206 48.2267 294.344 48.2267 291.152C48.2267 287.96 47.0227 286.098 44.4607 286.098C41.8987 286.098 40.6947 287.96 40.6947 291.152C40.6947 294.344 41.8987 296.206 44.4607 296.206ZM44.4607 294.428C43.3407 294.428 42.9767 293.56 42.9767 292.076V290.228C42.9767 288.744 43.3407 287.876 44.4607 287.876C45.5807 287.876 45.9447 288.744 45.9447 290.228V292.076C45.9447 293.56 45.5807 294.428 44.4607 294.428ZM54.1053 296.206C56.6673 296.206 57.8713 294.344 57.8713 291.152C57.8713 287.96 56.6673 286.098 54.1053 286.098C51.5433 286.098 50.3393 287.96 50.3393 291.152C50.3393 294.344 51.5433 296.206 54.1053 296.206ZM54.1053 294.428C52.9853 294.428 52.6213 293.56 52.6213 292.076V290.228C52.6213 288.744 52.9853 287.876 54.1053 287.876C55.2253 287.876 55.5893 288.744 55.5893 290.228V292.076C55.5893 293.56 55.2253 294.428 54.1053 294.428ZM63.7498 296.206C66.3118 296.206 67.5158 294.344 67.5158 291.152C67.5158 287.96 66.3118 286.098 63.7498 286.098C61.1878 286.098 59.9838 287.96 59.9838 291.152C59.9838 294.344 61.1878 296.206 63.7498 296.206ZM63.7498 294.428C62.6298 294.428 62.2658 293.56 62.2658 292.076V290.228C62.2658 288.744 62.6298 287.876 63.7498 287.876C64.8698 287.876 65.2338 288.744 65.2338 290.228V292.076C65.2338 293.56 64.8698 294.428 63.7498 294.428Z" fill="white"/>
<path d="M95.8906 296.038V292.034H99.6006V290.158H95.8906V288.156H100.245V286.266H93.7626V296.038H95.8906ZM109.936 289.976C109.936 287.624 108.592 286.098 106.268 286.098C104.042 286.098 102.6 287.526 102.6 289.528C102.6 291.376 103.846 292.566 105.456 292.566C106.702 292.566 107.276 291.838 107.612 291.096L107.738 291.138C107.346 293 105.918 294.33 103.538 296.038H106.436C108.102 294.904 109.936 292.72 109.936 289.976ZM106.268 290.956C105.344 290.956 104.784 290.424 104.784 289.472V289.22C104.784 288.268 105.344 287.736 106.268 287.736C107.192 287.736 107.752 288.268 107.752 289.22V289.472C107.752 290.424 107.192 290.956 106.268 290.956ZM119.497 296.038V294.148H114.975V292.034H118.853V290.158H114.975V288.156H119.497V286.266H112.847V296.038H119.497ZM125.722 296.206C128.284 296.206 129.488 294.344 129.488 291.152C129.488 287.96 128.284 286.098 125.722 286.098C123.16 286.098 121.956 287.96 121.956 291.152C121.956 294.344 123.16 296.206 125.722 296.206ZM125.722 294.428C124.602 294.428 124.238 293.56 124.238 292.076V290.228C124.238 288.744 124.602 287.876 125.722 287.876C126.842 287.876 127.206 288.744 127.206 290.228V292.076C127.206 293.56 126.842 294.428 125.722 294.428ZM138.895 296.038V294.148H134.373V292.034H138.251V290.158H134.373V288.156H138.895V286.266H132.245V296.038H138.895ZM145.121 296.206C147.683 296.206 148.887 294.344 148.887 291.152C148.887 287.96 147.683 286.098 145.121 286.098C142.559 286.098 141.355 287.96 141.355 291.152C141.355 294.344 142.559 296.206 145.121 296.206ZM145.121 294.428C144.001 294.428 143.637 293.56 143.637 292.076V290.228C143.637 288.744 144.001 287.876 145.121 287.876C146.241 287.876 146.605 288.744 146.605 290.228V292.076C146.605 293.56 146.241 294.428 145.121 294.428Z" fill="black"/>
<rect y="401" width="160" height="79" rx="2" fill="#E5E5E5"/>
<path d="M1.204 371H5.964C7.406 371 8.484 369.768 8.484 368.186C8.484 366.548 7.238 365.932 6.44 365.904V365.82C7.238 365.75 8.134 365.218 8.134 363.748C8.134 362.222 7.14 361.228 5.53 361.228H1.204V371ZM2.786 366.674H5.502C6.314 366.674 6.818 367.122 6.818 367.92V368.396C6.818 369.194 6.314 369.642 5.502 369.642H2.786V366.674ZM2.786 362.586H5.236C6.006 362.586 6.468 363.006 6.468 363.748V364.196C6.468 364.938 6.006 365.358 5.236 365.358H2.786V362.586ZM16.6085 371V369.754H15.8385V366.1C15.8385 364.476 14.7885 363.552 12.9125 363.552C11.4985 363.552 10.6445 364.154 10.1685 364.966L11.0785 365.792C11.4425 365.218 11.9605 364.798 12.8145 364.798C13.8365 364.798 14.3125 365.316 14.3125 366.198V366.814H12.9965C10.9665 366.814 9.88852 367.556 9.88852 368.998C9.88852 370.314 10.7425 371.168 12.2405 371.168C13.3045 371.168 14.0885 370.692 14.3685 369.782H14.4385C14.5365 370.496 14.9565 371 15.7545 371H16.6085ZM12.6745 370.006C11.9185 370.006 11.4425 369.67 11.4425 369.026V368.774C11.4425 368.144 11.9605 367.794 13.0245 367.794H14.3125V368.844C14.3125 369.558 13.6125 370.006 12.6745 370.006ZM21.0181 371.168C22.4181 371.168 23.4121 370.51 23.8881 369.32L22.7261 368.704C22.4181 369.432 21.9001 369.908 21.0181 369.908C19.8981 369.908 19.3241 369.138 19.3241 368.018V366.716C19.3241 365.596 19.8981 364.826 21.0181 364.826C21.8441 364.826 22.3621 365.26 22.5721 365.932L23.8321 365.344C23.3981 364.266 22.4741 363.552 21.0181 363.552C18.9181 363.552 17.7141 365.036 17.7141 367.36C17.7141 369.684 18.9181 371.168 21.0181 371.168ZM25.4408 371H26.9668V368.62L27.9748 367.528L30.0608 371H31.8808L29.0248 366.534L31.5728 363.72H29.7948L28.0448 365.694L27.0368 366.996H26.9668V360.64H25.4408V371ZM39.499 371.686C39.499 370.426 38.743 369.67 36.951 369.67H35.159C34.515 369.67 34.137 369.516 34.137 369.124C34.137 368.76 34.473 368.522 34.837 368.396C35.103 368.466 35.439 368.508 35.789 368.508C37.637 368.508 38.701 367.514 38.701 366.044C38.701 365.204 38.337 364.504 37.679 364.07V363.776H39.163V362.544H38.043C37.399 362.544 37.091 362.936 37.091 363.58V363.776C36.713 363.622 36.265 363.552 35.775 363.552C33.927 363.552 32.877 364.56 32.877 366.044C32.877 367.024 33.353 367.794 34.207 368.2V368.256C33.507 368.424 32.919 368.788 32.919 369.544C32.919 370.09 33.213 370.496 33.745 370.664V370.818C32.975 370.986 32.499 371.42 32.499 372.218C32.499 373.324 33.423 373.968 35.803 373.968C38.421 373.968 39.499 373.198 39.499 371.686ZM38.071 371.854C38.071 372.526 37.483 372.862 36.293 372.862H35.341C34.207 372.862 33.773 372.456 33.773 371.868C33.773 371.518 33.941 371.224 34.277 371.028H36.741C37.735 371.028 38.071 371.35 38.071 371.854ZM35.789 367.402C34.893 367.402 34.375 366.996 34.375 366.17V365.89C34.375 365.064 34.893 364.658 35.789 364.658C36.685 364.658 37.203 365.064 37.203 365.89V366.17C37.203 366.996 36.685 367.402 35.789 367.402ZM42.2606 371V366.352C42.2606 365.596 42.9326 365.19 44.1366 365.19H44.7386V363.72H44.3326C43.1706 363.72 42.5406 364.378 42.3306 365.12H42.2606V363.72H40.7346V371H42.2606ZM48.9816 371.168C51.0116 371.168 52.3276 369.684 52.3276 367.36C52.3276 365.036 51.0116 363.552 48.9816 363.552C46.9516 363.552 45.6356 365.036 45.6356 367.36C45.6356 369.684 46.9516 371.168 48.9816 371.168ZM48.9816 369.908C47.9456 369.908 47.2456 369.264 47.2456 367.976V366.744C47.2456 365.456 47.9456 364.812 48.9816 364.812C50.0176 364.812 50.7176 365.456 50.7176 366.744V367.976C50.7176 369.264 50.0176 369.908 48.9816 369.908ZM58.5379 371H60.0639V363.72H58.5379V368.592C58.5379 369.446 57.7679 369.852 56.9839 369.852C56.0459 369.852 55.5839 369.264 55.5839 368.158V363.72H54.0579V368.354C54.0579 370.146 54.9399 371.168 56.4379 371.168C57.6419 371.168 58.2159 370.51 58.4819 369.796H58.5379V371ZM63.875 371V366.128C63.875 365.274 64.659 364.868 65.457 364.868C66.395 364.868 66.829 365.442 66.829 366.576V371H68.355V366.38C68.355 364.588 67.473 363.552 65.989 363.552C64.869 363.552 64.253 364.14 63.945 364.924H63.875V363.72H62.349V371H63.875ZM75.1481 371H76.6741V360.64H75.1481V364.924H75.0781C74.7701 364.056 74.0001 363.552 73.0341 363.552C71.2001 363.552 70.1361 364.966 70.1361 367.36C70.1361 369.754 71.2001 371.168 73.0341 371.168C74.0001 371.168 74.7701 370.65 75.0781 369.796H75.1481V371ZM73.4961 369.852C72.4461 369.852 71.7461 369.11 71.7461 367.99V366.73C71.7461 365.61 72.4461 364.868 73.4961 364.868C74.4201 364.868 75.1481 365.372 75.1481 366.114V368.606C75.1481 369.348 74.4201 369.852 73.4961 369.852ZM86.9419 371H88.4679V360.64H86.9419V364.924H86.8719C86.5639 364.056 85.7939 363.552 84.8279 363.552C82.9939 363.552 81.9299 364.966 81.9299 367.36C81.9299 369.754 82.9939 371.168 84.8279 371.168C85.7939 371.168 86.5639 370.65 86.8719 369.796H86.9419V371ZM85.2899 369.852C84.2399 369.852 83.5399 369.11 83.5399 367.99V366.73C83.5399 365.61 84.2399 364.868 85.2899 364.868C86.2139 364.868 86.9419 365.372 86.9419 366.114V368.606C86.9419 369.348 86.2139 369.852 85.2899 369.852ZM96.937 371V369.754H96.167V366.1C96.167 364.476 95.117 363.552 93.241 363.552C91.827 363.552 90.973 364.154 90.497 364.966L91.407 365.792C91.771 365.218 92.289 364.798 93.143 364.798C94.165 364.798 94.641 365.316 94.641 366.198V366.814H93.325C91.295 366.814 90.217 367.556 90.217 368.998C90.217 370.314 91.071 371.168 92.569 371.168C93.633 371.168 94.417 370.692 94.697 369.782H94.767C94.865 370.496 95.285 371 96.083 371H96.937ZM93.003 370.006C92.247 370.006 91.771 369.67 91.771 369.026V368.774C91.771 368.144 92.289 367.794 93.353 367.794H94.641V368.844C94.641 369.558 93.941 370.006 93.003 370.006ZM100.059 371V366.352C100.059 365.596 100.731 365.19 101.935 365.19H102.537V363.72H102.131C100.969 363.72 100.339 364.378 100.129 365.12H100.059V363.72H98.5326V371H100.059ZM103.992 371H105.518V368.62L106.526 367.528L108.612 371H110.432L107.576 366.534L110.124 363.72H108.346L106.596 365.694L105.588 366.996H105.518V360.64H103.992V371Z" fill="#9E9E9E"/>
<path d="M62.172 446V444.6H57.496V441.744H61.738V440.344H57.496V437.628H62.172V436.228H55.914V446H62.172ZM70.2208 436.228H64.6768L64.3128 441.674L65.6148 441.856C65.9648 441.464 66.4268 441.086 67.2668 441.086C68.4148 441.086 69.0728 441.758 69.0728 442.878V443.046C69.0728 444.166 68.4148 444.838 67.2668 444.838C66.1748 444.838 65.6288 444.278 65.1528 443.508L64.0048 444.418C64.5928 445.314 65.5028 446.168 67.2388 446.168C69.4508 446.168 70.7248 444.782 70.7248 442.836C70.7248 440.918 69.4508 439.784 67.7708 439.784C66.6508 439.784 66.1608 440.288 65.7268 441.058H65.6288L65.8808 437.6H70.2208V436.228ZM79.0653 446V444.6H74.3893V441.744H78.6313V440.344H74.3893V437.628H79.0653V436.228H72.8073V446H79.0653ZM87.1142 436.228H81.5702L81.2062 441.674L82.5082 441.856C82.8582 441.464 83.3202 441.086 84.1602 441.086C85.3082 441.086 85.9662 441.758 85.9662 442.878V443.046C85.9662 444.166 85.3082 444.838 84.1602 444.838C83.0682 444.838 82.5222 444.278 82.0462 443.508L80.8982 444.418C81.4862 445.314 82.3962 446.168 84.1322 446.168C86.3442 446.168 87.6182 444.782 87.6182 442.836C87.6182 440.918 86.3442 439.784 84.6642 439.784C83.5442 439.784 83.0542 440.288 82.6202 441.058H82.5222L82.7742 437.6H87.1142V436.228ZM95.9587 446V444.6H91.2827V441.744H95.5247V440.344H91.2827V437.628H95.9587V436.228H89.7007V446H95.9587ZM104.008 436.228H98.4635L98.0995 441.674L99.4015 441.856C99.7515 441.464 100.214 441.086 101.054 441.086C102.202 441.086 102.86 441.758 102.86 442.878V443.046C102.86 444.166 102.202 444.838 101.054 444.838C99.9615 444.838 99.4155 444.278 98.9395 443.508L97.7915 444.418C98.3795 445.314 99.2895 446.168 101.026 446.168C103.238 446.168 104.512 444.782 104.512 442.836C104.512 440.918 103.238 439.784 101.558 439.784C100.438 439.784 99.9475 440.288 99.5135 441.058H99.4155L99.6675 437.6H104.008V436.228Z" fill="black"/>
<rect x="240" y="401" width="160" height="79" rx="2" fill="#F2F2F2"/>
<path d="M241.204 371H245.964C247.406 371 248.484 369.768 248.484 368.186C248.484 366.548 247.238 365.932 246.44 365.904V365.82C247.238 365.75 248.134 365.218 248.134 363.748C248.134 362.222 247.14 361.228 245.53 361.228H241.204V371ZM242.786 366.674H245.502C246.314 366.674 246.818 367.122 246.818 367.92V368.396C246.818 369.194 246.314 369.642 245.502 369.642H242.786V366.674ZM242.786 362.586H245.236C246.006 362.586 246.468 363.006 246.468 363.748V364.196C246.468 364.938 246.006 365.358 245.236 365.358H242.786V362.586ZM256.609 371V369.754H255.839V366.1C255.839 364.476 254.789 363.552 252.913 363.552C251.499 363.552 250.645 364.154 250.169 364.966L251.079 365.792C251.443 365.218 251.961 364.798 252.815 364.798C253.837 364.798 254.313 365.316 254.313 366.198V366.814H252.997C250.967 366.814 249.889 367.556 249.889 368.998C249.889 370.314 250.743 371.168 252.241 371.168C253.305 371.168 254.089 370.692 254.369 369.782H254.439C254.537 370.496 254.957 371 255.755 371H256.609ZM252.675 370.006C251.919 370.006 251.443 369.67 251.443 369.026V368.774C251.443 368.144 251.961 367.794 253.025 367.794H254.313V368.844C254.313 369.558 253.613 370.006 252.675 370.006ZM261.018 371.168C262.418 371.168 263.412 370.51 263.888 369.32L262.726 368.704C262.418 369.432 261.9 369.908 261.018 369.908C259.898 369.908 259.324 369.138 259.324 368.018V366.716C259.324 365.596 259.898 364.826 261.018 364.826C261.844 364.826 262.362 365.26 262.572 365.932L263.832 365.344C263.398 364.266 262.474 363.552 261.018 363.552C258.918 363.552 257.714 365.036 257.714 367.36C257.714 369.684 258.918 371.168 261.018 371.168ZM265.441 371H266.967V368.62L267.975 367.528L270.061 371H271.881L269.025 366.534L271.573 363.72H269.795L268.045 365.694L267.037 366.996H266.967V360.64H265.441V371ZM279.499 371.686C279.499 370.426 278.743 369.67 276.951 369.67H275.159C274.515 369.67 274.137 369.516 274.137 369.124C274.137 368.76 274.473 368.522 274.837 368.396C275.103 368.466 275.439 368.508 275.789 368.508C277.637 368.508 278.701 367.514 278.701 366.044C278.701 365.204 278.337 364.504 277.679 364.07V363.776H279.163V362.544H278.043C277.399 362.544 277.091 362.936 277.091 363.58V363.776C276.713 363.622 276.265 363.552 275.775 363.552C273.927 363.552 272.877 364.56 272.877 366.044C272.877 367.024 273.353 367.794 274.207 368.2V368.256C273.507 368.424 272.919 368.788 272.919 369.544C272.919 370.09 273.213 370.496 273.745 370.664V370.818C272.975 370.986 272.499 371.42 272.499 372.218C272.499 373.324 273.423 373.968 275.803 373.968C278.421 373.968 279.499 373.198 279.499 371.686ZM278.071 371.854C278.071 372.526 277.483 372.862 276.293 372.862H275.341C274.207 372.862 273.773 372.456 273.773 371.868C273.773 371.518 273.941 371.224 274.277 371.028H276.741C277.735 371.028 278.071 371.35 278.071 371.854ZM275.789 367.402C274.893 367.402 274.375 366.996 274.375 366.17V365.89C274.375 365.064 274.893 364.658 275.789 364.658C276.685 364.658 277.203 365.064 277.203 365.89V366.17C277.203 366.996 276.685 367.402 275.789 367.402ZM282.261 371V366.352C282.261 365.596 282.933 365.19 284.137 365.19H284.739V363.72H284.333C283.171 363.72 282.541 364.378 282.331 365.12H282.261V363.72H280.735V371H282.261ZM288.982 371.168C291.012 371.168 292.328 369.684 292.328 367.36C292.328 365.036 291.012 363.552 288.982 363.552C286.952 363.552 285.636 365.036 285.636 367.36C285.636 369.684 286.952 371.168 288.982 371.168ZM288.982 369.908C287.946 369.908 287.246 369.264 287.246 367.976V366.744C287.246 365.456 287.946 364.812 288.982 364.812C290.018 364.812 290.718 365.456 290.718 366.744V367.976C290.718 369.264 290.018 369.908 288.982 369.908ZM298.538 371H300.064V363.72H298.538V368.592C298.538 369.446 297.768 369.852 296.984 369.852C296.046 369.852 295.584 369.264 295.584 368.158V363.72H294.058V368.354C294.058 370.146 294.94 371.168 296.438 371.168C297.642 371.168 298.216 370.51 298.482 369.796H298.538V371ZM303.875 371V366.128C303.875 365.274 304.659 364.868 305.457 364.868C306.395 364.868 306.829 365.442 306.829 366.576V371H308.355V366.38C308.355 364.588 307.473 363.552 305.989 363.552C304.869 363.552 304.253 364.14 303.945 364.924H303.875V363.72H302.349V371H303.875ZM315.148 371H316.674V360.64H315.148V364.924H315.078C314.77 364.056 314 363.552 313.034 363.552C311.2 363.552 310.136 364.966 310.136 367.36C310.136 369.754 311.2 371.168 313.034 371.168C314 371.168 314.77 370.65 315.078 369.796H315.148V371ZM313.496 369.852C312.446 369.852 311.746 369.11 311.746 367.99V366.73C311.746 365.61 312.446 364.868 313.496 364.868C314.42 364.868 315.148 365.372 315.148 366.114V368.606C315.148 369.348 314.42 369.852 313.496 369.852ZM324.898 371V369.754H323.89V360.64H322.364V369.488C322.364 370.426 322.882 371 323.918 371H324.898ZM327.226 362.418C327.856 362.418 328.122 362.082 328.122 361.62V361.382C328.122 360.92 327.856 360.584 327.226 360.584C326.596 360.584 326.316 360.92 326.316 361.382V361.62C326.316 362.082 326.596 362.418 327.226 362.418ZM326.456 371H327.982V363.72H326.456V371ZM336.645 371.686C336.645 370.426 335.889 369.67 334.097 369.67H332.305C331.661 369.67 331.283 369.516 331.283 369.124C331.283 368.76 331.619 368.522 331.983 368.396C332.249 368.466 332.585 368.508 332.935 368.508C334.783 368.508 335.847 367.514 335.847 366.044C335.847 365.204 335.483 364.504 334.825 364.07V363.776H336.309V362.544H335.189C334.545 362.544 334.237 362.936 334.237 363.58V363.776C333.859 363.622 333.411 363.552 332.921 363.552C331.073 363.552 330.023 364.56 330.023 366.044C330.023 367.024 330.499 367.794 331.353 368.2V368.256C330.653 368.424 330.065 368.788 330.065 369.544C330.065 370.09 330.359 370.496 330.891 370.664V370.818C330.121 370.986 329.645 371.42 329.645 372.218C329.645 373.324 330.569 373.968 332.949 373.968C335.567 373.968 336.645 373.198 336.645 371.686ZM335.217 371.854C335.217 372.526 334.629 372.862 333.439 372.862H332.487C331.353 372.862 330.919 372.456 330.919 371.868C330.919 371.518 331.087 371.224 331.423 371.028H333.887C334.881 371.028 335.217 371.35 335.217 371.854ZM332.935 367.402C332.039 367.402 331.521 366.996 331.521 366.17V365.89C331.521 365.064 332.039 364.658 332.935 364.658C333.831 364.658 334.349 365.064 334.349 365.89V366.17C334.349 366.996 333.831 367.402 332.935 367.402ZM337.881 371H339.407V366.114C339.407 365.274 340.191 364.868 340.989 364.868C341.927 364.868 342.361 365.442 342.361 366.562V371H343.887V366.38C343.887 364.588 343.005 363.552 341.521 363.552C340.401 363.552 339.785 364.14 339.477 364.924H339.407V360.64H337.881V371ZM349.448 371V369.754H348.034V364.966H349.56V363.72H348.034V361.732H346.662V363.006C346.662 363.51 346.494 363.72 345.99 363.72H345.374V364.966H346.508V369.418C346.508 370.412 347.068 371 348.118 371H349.448Z" fill="#9E9E9E"/>
<path d="M297.968 446V441.744H301.986V440.344H297.968V437.628H302.49V436.228H296.386V446H297.968ZM310.84 444.656H305.912L308.208 442.682C309.496 441.576 310.546 440.54 310.546 438.958C310.546 437.264 309.398 436.06 307.41 436.06C305.45 436.06 304.47 437.208 304.064 438.44L305.45 438.972C305.688 438.118 306.206 437.432 307.284 437.432C308.25 437.432 308.866 438.02 308.866 438.958V439.14C308.866 440.036 308.306 440.82 307.326 441.702L304.204 444.488V446H310.84V444.656ZM314.547 446V441.744H318.565V440.344H314.547V437.628H319.069V436.228H312.965V446H314.547ZM327.419 444.656H322.491L324.787 442.682C326.075 441.576 327.125 440.54 327.125 438.958C327.125 437.264 325.977 436.06 323.989 436.06C322.029 436.06 321.049 437.208 320.643 438.44L322.029 438.972C322.267 438.118 322.785 437.432 323.863 437.432C324.829 437.432 325.445 438.02 325.445 438.958V439.14C325.445 440.036 324.885 440.82 323.905 441.702L320.783 444.488V446H327.419V444.656ZM331.125 446V441.744H335.143V440.344H331.125V437.628H335.647V436.228H329.543V446H331.125ZM343.998 444.656H339.07L341.366 442.682C342.654 441.576 343.704 440.54 343.704 438.958C343.704 437.264 342.556 436.06 340.568 436.06C338.608 436.06 337.628 437.208 337.222 438.44L338.608 438.972C338.846 438.118 339.364 437.432 340.442 437.432C341.408 437.432 342.024 438.02 342.024 438.958V439.14C342.024 440.036 341.464 440.82 340.484 441.702L337.362 444.488V446H343.998V444.656Z" fill="black"/>
<rect x="480" y="401" width="160" height="79" rx="2" fill="white"/>
<path d="M481.204 371H485.964C487.406 371 488.484 369.768 488.484 368.186C488.484 366.548 487.238 365.932 486.44 365.904V365.82C487.238 365.75 488.134 365.218 488.134 363.748C488.134 362.222 487.14 361.228 485.53 361.228H481.204V371ZM482.786 366.674H485.502C486.314 366.674 486.818 367.122 486.818 367.92V368.396C486.818 369.194 486.314 369.642 485.502 369.642H482.786V366.674ZM482.786 362.586H485.236C486.006 362.586 486.468 363.006 486.468 363.748V364.196C486.468 364.938 486.006 365.358 485.236 365.358H482.786V362.586ZM496.609 371V369.754H495.839V366.1C495.839 364.476 494.789 363.552 492.913 363.552C491.499 363.552 490.645 364.154 490.169 364.966L491.079 365.792C491.443 365.218 491.961 364.798 492.815 364.798C493.837 364.798 494.313 365.316 494.313 366.198V366.814H492.997C490.967 366.814 489.889 367.556 489.889 368.998C489.889 370.314 490.743 371.168 492.241 371.168C493.305 371.168 494.089 370.692 494.369 369.782H494.439C494.537 370.496 494.957 371 495.755 371H496.609ZM492.675 370.006C491.919 370.006 491.443 369.67 491.443 369.026V368.774C491.443 368.144 491.961 367.794 493.025 367.794H494.313V368.844C494.313 369.558 493.613 370.006 492.675 370.006ZM501.018 371.168C502.418 371.168 503.412 370.51 503.888 369.32L502.726 368.704C502.418 369.432 501.9 369.908 501.018 369.908C499.898 369.908 499.324 369.138 499.324 368.018V366.716C499.324 365.596 499.898 364.826 501.018 364.826C501.844 364.826 502.362 365.26 502.572 365.932L503.832 365.344C503.398 364.266 502.474 363.552 501.018 363.552C498.918 363.552 497.714 365.036 497.714 367.36C497.714 369.684 498.918 371.168 501.018 371.168ZM505.441 371H506.967V368.62L507.975 367.528L510.061 371H511.881L509.025 366.534L511.573 363.72H509.795L508.045 365.694L507.037 366.996H506.967V360.64H505.441V371ZM519.499 371.686C519.499 370.426 518.743 369.67 516.951 369.67H515.159C514.515 369.67 514.137 369.516 514.137 369.124C514.137 368.76 514.473 368.522 514.837 368.396C515.103 368.466 515.439 368.508 515.789 368.508C517.637 368.508 518.701 367.514 518.701 366.044C518.701 365.204 518.337 364.504 517.679 364.07V363.776H519.163V362.544H518.043C517.399 362.544 517.091 362.936 517.091 363.58V363.776C516.713 363.622 516.265 363.552 515.775 363.552C513.927 363.552 512.877 364.56 512.877 366.044C512.877 367.024 513.353 367.794 514.207 368.2V368.256C513.507 368.424 512.919 368.788 512.919 369.544C512.919 370.09 513.213 370.496 513.745 370.664V370.818C512.975 370.986 512.499 371.42 512.499 372.218C512.499 373.324 513.423 373.968 515.803 373.968C518.421 373.968 519.499 373.198 519.499 371.686ZM518.071 371.854C518.071 372.526 517.483 372.862 516.293 372.862H515.341C514.207 372.862 513.773 372.456 513.773 371.868C513.773 371.518 513.941 371.224 514.277 371.028H516.741C517.735 371.028 518.071 371.35 518.071 371.854ZM515.789 367.402C514.893 367.402 514.375 366.996 514.375 366.17V365.89C514.375 365.064 514.893 364.658 515.789 364.658C516.685 364.658 517.203 365.064 517.203 365.89V366.17C517.203 366.996 516.685 367.402 515.789 367.402ZM522.261 371V366.352C522.261 365.596 522.933 365.19 524.137 365.19H524.739V363.72H524.333C523.171 363.72 522.541 364.378 522.331 365.12H522.261V363.72H520.735V371H522.261ZM528.982 371.168C531.012 371.168 532.328 369.684 532.328 367.36C532.328 365.036 531.012 363.552 528.982 363.552C526.952 363.552 525.636 365.036 525.636 367.36C525.636 369.684 526.952 371.168 528.982 371.168ZM528.982 369.908C527.946 369.908 527.246 369.264 527.246 367.976V366.744C527.246 365.456 527.946 364.812 528.982 364.812C530.018 364.812 530.718 365.456 530.718 366.744V367.976C530.718 369.264 530.018 369.908 528.982 369.908ZM538.538 371H540.064V363.72H538.538V368.592C538.538 369.446 537.768 369.852 536.984 369.852C536.046 369.852 535.584 369.264 535.584 368.158V363.72H534.058V368.354C534.058 370.146 534.94 371.168 536.438 371.168C537.642 371.168 538.216 370.51 538.482 369.796H538.538V371ZM543.875 371V366.128C543.875 365.274 544.659 364.868 545.457 364.868C546.395 364.868 546.829 365.442 546.829 366.576V371H548.355V366.38C548.355 364.588 547.473 363.552 545.989 363.552C544.869 363.552 544.253 364.14 543.945 364.924H543.875V363.72H542.349V371H543.875ZM555.148 371H556.674V360.64H555.148V364.924H555.078C554.77 364.056 554 363.552 553.034 363.552C551.2 363.552 550.136 364.966 550.136 367.36C550.136 369.754 551.2 371.168 553.034 371.168C554 371.168 554.77 370.65 555.078 369.796H555.148V371ZM553.496 369.852C552.446 369.852 551.746 369.11 551.746 367.99V366.73C551.746 365.61 552.446 364.868 553.496 364.868C554.42 364.868 555.148 365.372 555.148 366.114V368.606C555.148 369.348 554.42 369.852 553.496 369.852ZM563.624 371H565.304L566.27 367.682L566.844 365.638H566.872L567.46 367.682L568.412 371H570.134L572.094 363.72H570.68L569.924 366.772L569.28 369.53H569.238L568.468 366.772L567.572 363.72H566.2L565.318 366.772L564.562 369.53H564.52L563.862 366.772L563.12 363.72H561.636L563.624 371ZM573.647 371H575.173V366.114C575.173 365.274 575.957 364.868 576.755 364.868C577.693 364.868 578.127 365.442 578.127 366.562V371H579.653V366.38C579.653 364.588 578.771 363.552 577.287 363.552C576.167 363.552 575.551 364.14 575.243 364.924H575.173V360.64H573.647V371ZM582.639 362.418C583.269 362.418 583.535 362.082 583.535 361.62V361.382C583.535 360.92 583.269 360.584 582.639 360.584C582.009 360.584 581.729 360.92 581.729 361.382V361.62C581.729 362.082 582.009 362.418 582.639 362.418ZM581.869 371H583.395V363.72H581.869V371ZM589.02 371V369.754H587.606V364.966H589.132V363.72H587.606V361.732H586.234V363.006C586.234 363.51 586.066 363.72 585.562 363.72H584.946V364.966H586.08V369.418C586.08 370.412 586.64 371 587.69 371H589.02ZM593.688 371.168C595.046 371.168 596.11 370.58 596.656 369.698L595.76 368.816C595.34 369.488 594.738 369.908 593.842 369.908C592.61 369.908 591.924 369.11 591.924 367.99V367.752H596.922V367.178C596.922 365.162 595.83 363.552 593.688 363.552C591.616 363.552 590.342 365.036 590.342 367.36C590.342 369.684 591.616 371.168 593.688 371.168ZM593.688 364.742C594.696 364.742 595.312 365.484 595.312 366.604V366.744H591.924V366.646C591.924 365.526 592.638 364.742 593.688 364.742Z" fill="#9E9E9E"/>
<path d="M538.583 446V441.744H542.601V440.344H538.583V437.628H543.105V436.228H537.001V446H538.583ZM546.667 446V441.744H550.685V440.344H546.667V437.628H551.189V436.228H545.085V446H546.667ZM554.752 446V441.744H558.77V440.344H554.752V437.628H559.274V436.228H553.17V446H554.752ZM562.836 446V441.744H566.854V440.344H562.836V437.628H567.358V436.228H561.254V446H562.836ZM570.92 446V441.744H574.938V440.344H570.92V437.628H575.442V436.228H569.338V446H570.92ZM579.005 446V441.744H583.023V440.344H579.005V437.628H583.527V436.228H577.423V446H579.005Z" fill="black"/>
<rect y="552" width="160" height="79" rx="2" fill="black"/>
<path d="M3.248 522H4.83V513.628H7.742V512.228H0.336V513.628H3.248V522ZM11.2121 522.168C12.5701 522.168 13.6341 521.58 14.1801 520.698L13.2841 519.816C12.8641 520.488 12.2621 520.908 11.3661 520.908C10.1341 520.908 9.44806 520.11 9.44806 518.99V518.752H14.4461V518.178C14.4461 516.162 13.3541 514.552 11.2121 514.552C9.14006 514.552 7.86606 516.036 7.86606 518.36C7.86606 520.684 9.14006 522.168 11.2121 522.168ZM11.2121 515.742C12.2201 515.742 12.8361 516.484 12.8361 517.604V517.744H9.44806V517.646C9.44806 516.526 10.1621 515.742 11.2121 515.742ZM15.232 522H16.856L18.606 519.354H18.648L20.328 522H22.092L19.558 518.304L22.05 514.72H20.426L18.746 517.254H18.704L17.066 514.72H15.302L17.794 518.318L15.232 522ZM26.9138 522V520.754H25.4998V515.966H27.0258V514.72H25.4998V512.732H24.1278V514.006C24.1278 514.51 23.9598 514.72 23.4558 514.72H22.8398V515.966H23.9738V520.418C23.9738 521.412 24.5338 522 25.5838 522H26.9138ZM32.3017 522H37.0617C38.5037 522 39.5817 520.768 39.5817 519.186C39.5817 517.548 38.3357 516.932 37.5377 516.904V516.82C38.3357 516.75 39.2317 516.218 39.2317 514.748C39.2317 513.222 38.2377 512.228 36.6277 512.228H32.3017V522ZM33.8837 517.674H36.5997C37.4117 517.674 37.9157 518.122 37.9157 518.92V519.396C37.9157 520.194 37.4117 520.642 36.5997 520.642H33.8837V517.674ZM33.8837 513.586H36.3337C37.1037 513.586 37.5657 514.006 37.5657 514.748V515.196C37.5657 515.938 37.1037 516.358 36.3337 516.358H33.8837V513.586ZM44.0522 522V520.754H43.0442V511.64H41.5182V520.488C41.5182 521.426 42.0362 522 43.0722 522H44.0522ZM51.7984 522V520.754H51.0284V517.1C51.0284 515.476 49.9784 514.552 48.1024 514.552C46.6884 514.552 45.8344 515.154 45.3584 515.966L46.2684 516.792C46.6324 516.218 47.1504 515.798 48.0044 515.798C49.0264 515.798 49.5024 516.316 49.5024 517.198V517.814H48.1864C46.1564 517.814 45.0784 518.556 45.0784 519.998C45.0784 521.314 45.9324 522.168 47.4304 522.168C48.4944 522.168 49.2784 521.692 49.5584 520.782H49.6284C49.7264 521.496 50.1464 522 50.9444 522H51.7984ZM47.8644 521.006C47.1084 521.006 46.6324 520.67 46.6324 520.026V519.774C46.6324 519.144 47.1504 518.794 48.2144 518.794H49.5024V519.844C49.5024 520.558 48.8024 521.006 47.8644 521.006ZM56.208 522.168C57.608 522.168 58.602 521.51 59.078 520.32L57.916 519.704C57.608 520.432 57.09 520.908 56.208 520.908C55.088 520.908 54.514 520.138 54.514 519.018V517.716C54.514 516.596 55.088 515.826 56.208 515.826C57.034 515.826 57.552 516.26 57.762 516.932L59.022 516.344C58.588 515.266 57.664 514.552 56.208 514.552C54.108 514.552 52.904 516.036 52.904 518.36C52.904 520.684 54.108 522.168 56.208 522.168ZM60.6307 522H62.1567V519.62L63.1647 518.528L65.2507 522H67.0707L64.2147 517.534L66.7627 514.72H64.9847L63.2347 516.694L62.2267 517.996H62.1567V511.64H60.6307V522Z" fill="#9E9E9E"/>
<path d="M58.7664 597.168C61.2024 597.168 62.3084 595.306 62.3084 592.114C62.3084 588.922 61.2024 587.06 58.7664 587.06C56.3304 587.06 55.2244 588.922 55.2244 592.114C55.2244 595.306 56.3304 597.168 58.7664 597.168ZM58.7664 595.824C57.4084 595.824 56.9044 594.676 56.9044 592.968V591.26C56.9044 589.552 57.4084 588.404 58.7664 588.404C60.1244 588.404 60.6284 589.552 60.6284 591.26V592.968C60.6284 594.676 60.1244 595.824 58.7664 595.824ZM67.2609 597.168C69.6969 597.168 70.8029 595.306 70.8029 592.114C70.8029 588.922 69.6969 587.06 67.2609 587.06C64.8249 587.06 63.7189 588.922 63.7189 592.114C63.7189 595.306 64.8249 597.168 67.2609 597.168ZM67.2609 595.824C65.9029 595.824 65.3989 594.676 65.3989 592.968V591.26C65.3989 589.552 65.9029 588.404 67.2609 588.404C68.6189 588.404 69.1229 589.552 69.1229 591.26V592.968C69.1229 594.676 68.6189 595.824 67.2609 595.824ZM75.7555 597.168C78.1915 597.168 79.2975 595.306 79.2975 592.114C79.2975 588.922 78.1915 587.06 75.7555 587.06C73.3195 587.06 72.2135 588.922 72.2135 592.114C72.2135 595.306 73.3195 597.168 75.7555 597.168ZM75.7555 595.824C74.3975 595.824 73.8935 594.676 73.8935 592.968V591.26C73.8935 589.552 74.3975 588.404 75.7555 588.404C77.1135 588.404 77.6175 589.552 77.6175 591.26V592.968C77.6175 594.676 77.1135 595.824 75.7555 595.824ZM84.25 597.168C86.686 597.168 87.792 595.306 87.792 592.114C87.792 588.922 86.686 587.06 84.25 587.06C81.814 587.06 80.708 588.922 80.708 592.114C80.708 595.306 81.814 597.168 84.25 597.168ZM84.25 595.824C82.892 595.824 82.388 594.676 82.388 592.968V591.26C82.388 589.552 82.892 588.404 84.25 588.404C85.608 588.404 86.112 589.552 86.112 591.26V592.968C86.112 594.676 85.608 595.824 84.25 595.824ZM92.7445 597.168C95.1805 597.168 96.2865 595.306 96.2865 592.114C96.2865 588.922 95.1805 587.06 92.7445 587.06C90.3085 587.06 89.2025 588.922 89.2025 592.114C89.2025 595.306 90.3085 597.168 92.7445 597.168ZM92.7445 595.824C91.3865 595.824 90.8825 594.676 90.8825 592.968V591.26C90.8825 589.552 91.3865 588.404 92.7445 588.404C94.1025 588.404 94.6065 589.552 94.6065 591.26V592.968C94.6065 594.676 94.1025 595.824 92.7445 595.824ZM101.239 597.168C103.675 597.168 104.781 595.306 104.781 592.114C104.781 588.922 103.675 587.06 101.239 587.06C98.8031 587.06 97.6971 588.922 97.6971 592.114C97.6971 595.306 98.8031 597.168 101.239 597.168ZM101.239 595.824C99.8811 595.824 99.3771 594.676 99.3771 592.968V591.26C99.3771 589.552 99.8811 588.404 101.239 588.404C102.597 588.404 103.101 589.552 103.101 591.26V592.968C103.101 594.676 102.597 595.824 101.239 595.824Z" fill="white"/>
<rect x="240" y="552" width="160" height="79" rx="2" fill="white"/>
<path d="M243.248 522H244.83V513.628H247.742V512.228H240.336V513.628H243.248V522ZM251.212 522.168C252.57 522.168 253.634 521.58 254.18 520.698L253.284 519.816C252.864 520.488 252.262 520.908 251.366 520.908C250.134 520.908 249.448 520.11 249.448 518.99V518.752H254.446V518.178C254.446 516.162 253.354 514.552 251.212 514.552C249.14 514.552 247.866 516.036 247.866 518.36C247.866 520.684 249.14 522.168 251.212 522.168ZM251.212 515.742C252.22 515.742 252.836 516.484 252.836 517.604V517.744H249.448V517.646C249.448 516.526 250.162 515.742 251.212 515.742ZM255.232 522H256.856L258.606 519.354H258.648L260.328 522H262.092L259.558 518.304L262.05 514.72H260.426L258.746 517.254H258.704L257.066 514.72H255.302L257.794 518.318L255.232 522ZM266.914 522V520.754H265.5V515.966H267.026V514.72H265.5V512.732H264.128V514.006C264.128 514.51 263.96 514.72 263.456 514.72H262.84V515.966H263.974V520.418C263.974 521.412 264.534 522 265.584 522H266.914ZM275.522 522L276.796 516.946L277.538 513.978H277.566L278.294 516.946L279.54 522H281.318L283.726 512.228H282.172L281.15 516.932L280.436 520.166H280.394L279.624 516.932L278.476 512.228H276.712L275.55 516.932L274.766 520.18H274.724L274.038 516.932L273.044 512.228H271.434L273.744 522H275.522ZM285.251 522H286.777V517.114C286.777 516.274 287.561 515.868 288.359 515.868C289.297 515.868 289.731 516.442 289.731 517.562V522H291.257V517.38C291.257 515.588 290.375 514.552 288.891 514.552C287.771 514.552 287.155 515.14 286.847 515.924H286.777V511.64H285.251V522ZM294.242 513.418C294.872 513.418 295.138 513.082 295.138 512.62V512.382C295.138 511.92 294.872 511.584 294.242 511.584C293.612 511.584 293.332 511.92 293.332 512.382V512.62C293.332 513.082 293.612 513.418 294.242 513.418ZM293.472 522H294.998V514.72H293.472V522ZM300.623 522V520.754H299.209V515.966H300.735V514.72H299.209V512.732H297.837V514.006C297.837 514.51 297.669 514.72 297.165 514.72H296.549V515.966H297.683V520.418C297.683 521.412 298.243 522 299.293 522H300.623ZM305.291 522.168C306.649 522.168 307.713 521.58 308.259 520.698L307.363 519.816C306.943 520.488 306.341 520.908 305.445 520.908C304.213 520.908 303.527 520.11 303.527 518.99V518.752H308.525V518.178C308.525 516.162 307.433 514.552 305.291 514.552C303.219 514.552 301.945 516.036 301.945 518.36C301.945 520.684 303.219 522.168 305.291 522.168ZM305.291 515.742C306.299 515.742 306.915 516.484 306.915 517.604V517.744H303.527V517.646C303.527 516.526 304.241 515.742 305.291 515.742Z" fill="#9E9E9E"/>
<path d="M298.583 597V592.744H302.601V591.344H298.583V588.628H303.105V587.228H297.001V597H298.583ZM306.667 597V592.744H310.685V591.344H306.667V588.628H311.189V587.228H305.085V597H306.667ZM314.752 597V592.744H318.77V591.344H314.752V588.628H319.274V587.228H313.17V597H314.752ZM322.836 597V592.744H326.854V591.344H322.836V588.628H327.358V587.228H321.254V597H322.836ZM330.92 597V592.744H334.938V591.344H330.92V588.628H335.442V587.228H329.338V597H330.92ZM339.005 597V592.744H343.023V591.344H339.005V588.628H343.527V587.228H337.423V597H339.005Z" fill="black"/>
<rect x="480" y="552" width="160" height="79" rx="2" fill="#D7D5D5"/>
<path d="M483.248 522H484.83V513.628H487.742V512.228H480.336V513.628H483.248V522ZM491.212 522.168C492.57 522.168 493.634 521.58 494.18 520.698L493.284 519.816C492.864 520.488 492.262 520.908 491.366 520.908C490.134 520.908 489.448 520.11 489.448 518.99V518.752H494.446V518.178C494.446 516.162 493.354 514.552 491.212 514.552C489.14 514.552 487.866 516.036 487.866 518.36C487.866 520.684 489.14 522.168 491.212 522.168ZM491.212 515.742C492.22 515.742 492.836 516.484 492.836 517.604V517.744H489.448V517.646C489.448 516.526 490.162 515.742 491.212 515.742ZM495.232 522H496.856L498.606 519.354H498.648L500.328 522H502.092L499.558 518.304L502.05 514.72H500.426L498.746 517.254H498.704L497.066 514.72H495.302L497.794 518.318L495.232 522ZM506.914 522V520.754H505.5V515.966H507.026V514.72H505.5V512.732H504.128V514.006C504.128 514.51 503.96 514.72 503.456 514.72H502.84V515.966H503.974V520.418C503.974 521.412 504.534 522 505.584 522H506.914ZM512.302 522H515.76C518.252 522 519.89 520.376 519.89 517.114C519.89 513.852 518.252 512.228 515.76 512.228H512.302V522ZM513.884 520.6V513.628H515.76C517.216 513.628 518.196 514.566 518.196 516.33V517.898C518.196 519.662 517.216 520.6 515.76 520.6H513.884ZM522.616 513.418C523.246 513.418 523.512 513.082 523.512 512.62V512.382C523.512 511.92 523.246 511.584 522.616 511.584C521.986 511.584 521.706 511.92 521.706 512.382V512.62C521.706 513.082 521.986 513.418 522.616 513.418ZM521.846 522H523.372V514.72H521.846V522ZM527.961 522.168C529.711 522.168 530.845 521.23 530.845 519.83C530.845 518.654 530.131 517.954 528.535 517.716L527.863 517.632C527.093 517.506 526.743 517.254 526.743 516.694C526.743 516.148 527.135 515.784 527.975 515.784C528.759 515.784 529.375 516.162 529.753 516.61L530.691 515.714C530.033 514.986 529.291 514.552 527.975 514.552C526.379 514.552 525.273 515.378 525.273 516.792C525.273 518.136 526.183 518.78 527.667 518.962L528.339 519.046C529.095 519.144 529.375 519.494 529.375 519.956C529.375 520.572 528.927 520.936 528.045 520.936C527.177 520.936 526.519 520.544 525.987 519.9L525.007 520.796C525.693 521.65 526.589 522.168 527.961 522.168ZM538.857 522V520.754H538.087V517.1C538.087 515.476 537.037 514.552 535.161 514.552C533.747 514.552 532.893 515.154 532.417 515.966L533.327 516.792C533.691 516.218 534.209 515.798 535.063 515.798C536.085 515.798 536.561 516.316 536.561 517.198V517.814H535.245C533.215 517.814 532.137 518.556 532.137 519.998C532.137 521.314 532.991 522.168 534.489 522.168C535.553 522.168 536.337 521.692 536.617 520.782H536.687C536.785 521.496 537.205 522 538.003 522H538.857ZM534.923 521.006C534.167 521.006 533.691 520.67 533.691 520.026V519.774C533.691 519.144 534.209 518.794 535.273 518.794H536.561V519.844C536.561 520.558 535.861 521.006 534.923 521.006ZM540.453 522H541.979V520.796H542.049C542.357 521.65 543.127 522.168 544.093 522.168C545.927 522.168 546.991 520.754 546.991 518.36C546.991 515.966 545.927 514.552 544.093 514.552C543.127 514.552 542.357 515.056 542.049 515.924H541.979V511.64H540.453V522ZM543.631 520.852C542.707 520.852 541.979 520.348 541.979 519.606V517.114C541.979 516.372 542.707 515.868 543.631 515.868C544.681 515.868 545.381 516.61 545.381 517.73V518.99C545.381 520.11 544.681 520.852 543.631 520.852ZM551.372 522V520.754H550.364V511.64H548.838V520.488C548.838 521.426 549.356 522 550.392 522H551.372ZM555.786 522.168C557.144 522.168 558.208 521.58 558.754 520.698L557.858 519.816C557.438 520.488 556.836 520.908 555.94 520.908C554.708 520.908 554.022 520.11 554.022 518.99V518.752H559.02V518.178C559.02 516.162 557.928 514.552 555.786 514.552C553.714 514.552 552.44 516.036 552.44 518.36C552.44 520.684 553.714 522.168 555.786 522.168ZM555.786 515.742C556.794 515.742 557.41 516.484 557.41 517.604V517.744H554.022V517.646C554.022 516.526 554.736 515.742 555.786 515.742ZM565.388 522H566.914V511.64H565.388V515.924H565.318C565.01 515.056 564.24 514.552 563.274 514.552C561.44 514.552 560.376 515.966 560.376 518.36C560.376 520.754 561.44 522.168 563.274 522.168C564.24 522.168 565.01 521.65 565.318 520.796H565.388V522ZM563.736 520.852C562.686 520.852 561.986 520.11 561.986 518.99V517.73C561.986 516.61 562.686 515.868 563.736 515.868C564.66 515.868 565.388 516.372 565.388 517.114V519.606C565.388 520.348 564.66 520.852 563.736 520.852Z" fill="#9E9E9E"/>
<path d="M534.027 597H537.485C539.977 597 541.615 595.376 541.615 592.114C541.615 588.852 539.977 587.228 537.485 587.228H534.027V597ZM535.609 595.6V588.628H537.485C538.941 588.628 539.921 589.566 539.921 591.33V592.898C539.921 594.662 538.941 595.6 537.485 595.6H535.609ZM546.54 597L549.984 588.6V587.228H543.362V590.336H544.72V588.53H548.416L544.874 597H546.54ZM552.178 597H555.636C558.128 597 559.766 595.376 559.766 592.114C559.766 588.852 558.128 587.228 555.636 587.228H552.178V597ZM553.76 595.6V588.628H555.636C557.092 588.628 558.072 589.566 558.072 591.33V592.898C558.072 594.662 557.092 595.6 555.636 595.6H553.76ZM567.743 587.228H562.199L561.835 592.674L563.137 592.856C563.487 592.464 563.949 592.086 564.789 592.086C565.937 592.086 566.595 592.758 566.595 593.878V594.046C566.595 595.166 565.937 595.838 564.789 595.838C563.697 595.838 563.151 595.278 562.675 594.508L561.527 595.418C562.115 596.314 563.025 597.168 564.761 597.168C566.973 597.168 568.247 595.782 568.247 593.836C568.247 591.918 566.973 590.784 565.293 590.784C564.173 590.784 563.683 591.288 563.249 592.058H563.151L563.403 588.6H567.743V587.228ZM570.33 597H573.788C576.28 597 577.918 595.376 577.918 592.114C577.918 588.852 576.28 587.228 573.788 587.228H570.33V597ZM571.912 595.6V588.628H573.788C575.244 588.628 576.224 589.566 576.224 591.33V592.898C576.224 594.662 575.244 595.6 573.788 595.6H571.912ZM585.894 587.228H580.35L579.986 592.674L581.288 592.856C581.638 592.464 582.1 592.086 582.94 592.086C584.088 592.086 584.746 592.758 584.746 593.878V594.046C584.746 595.166 584.088 595.838 582.94 595.838C581.848 595.838 581.302 595.278 580.826 594.508L579.678 595.418C580.266 596.314 581.176 597.168 582.912 597.168C585.124 597.168 586.398 595.782 586.398 593.836C586.398 591.918 585.124 590.784 583.444 590.784C582.324 590.784 581.834 591.288 581.4 592.058H581.302L581.554 588.6H585.894V587.228Z" fill="white"/>
<rect x="720" y="552" width="160" height="79" rx="2" fill="#9E9E9E"/>
<path d="M723.248 522H724.83V513.628H727.742V512.228H720.336V513.628H723.248V522ZM731.212 522.168C732.57 522.168 733.634 521.58 734.18 520.698L733.284 519.816C732.864 520.488 732.262 520.908 731.366 520.908C730.134 520.908 729.448 520.11 729.448 518.99V518.752H734.446V518.178C734.446 516.162 733.354 514.552 731.212 514.552C729.14 514.552 727.866 516.036 727.866 518.36C727.866 520.684 729.14 522.168 731.212 522.168ZM731.212 515.742C732.22 515.742 732.836 516.484 732.836 517.604V517.744H729.448V517.646C729.448 516.526 730.162 515.742 731.212 515.742ZM735.232 522H736.856L738.606 519.354H738.648L740.328 522H742.092L739.558 518.304L742.05 514.72H740.426L738.746 517.254H738.704L737.066 514.72H735.302L737.794 518.318L735.232 522ZM746.914 522V520.754H745.5V515.966H747.026V514.72H745.5V512.732H744.128V514.006C744.128 514.51 743.96 514.72 743.456 514.72H742.84V515.966H743.974V520.418C743.974 521.412 744.534 522 745.584 522H746.914ZM756.138 522V520.712H754.794V513.516H756.138V512.228H751.882V513.516H753.212V520.712H751.882V522H756.138ZM759.64 522V517.128C759.64 516.274 760.424 515.868 761.222 515.868C762.16 515.868 762.594 516.442 762.594 517.576V522H764.12V517.38C764.12 515.588 763.238 514.552 761.754 514.552C760.634 514.552 760.018 515.14 759.71 515.924H759.64V514.72H758.114V522H759.64ZM772.523 522V520.754H771.753V517.1C771.753 515.476 770.703 514.552 768.827 514.552C767.413 514.552 766.559 515.154 766.083 515.966L766.993 516.792C767.357 516.218 767.875 515.798 768.729 515.798C769.751 515.798 770.227 516.316 770.227 517.198V517.814H768.911C766.881 517.814 765.803 518.556 765.803 519.998C765.803 521.314 766.657 522.168 768.155 522.168C769.219 522.168 770.003 521.692 770.283 520.782H770.353C770.451 521.496 770.871 522 771.669 522H772.523ZM768.589 521.006C767.833 521.006 767.357 520.67 767.357 520.026V519.774C767.357 519.144 767.875 518.794 768.939 518.794H770.227V519.844C770.227 520.558 769.527 521.006 768.589 521.006ZM776.933 522.168C778.333 522.168 779.327 521.51 779.803 520.32L778.641 519.704C778.333 520.432 777.815 520.908 776.933 520.908C775.813 520.908 775.239 520.138 775.239 519.018V517.716C775.239 516.596 775.813 515.826 776.933 515.826C777.759 515.826 778.277 516.26 778.487 516.932L779.747 516.344C779.313 515.266 778.389 514.552 776.933 514.552C774.833 514.552 773.629 516.036 773.629 518.36C773.629 520.684 774.833 522.168 776.933 522.168ZM784.701 522V520.754H783.287V515.966H784.813V514.72H783.287V512.732H781.915V514.006C781.915 514.51 781.747 514.72 781.243 514.72H780.627V515.966H781.761V520.418C781.761 521.412 782.321 522 783.371 522H784.701ZM787.339 513.418C787.969 513.418 788.235 513.082 788.235 512.62V512.382C788.235 511.92 787.969 511.584 787.339 511.584C786.709 511.584 786.429 511.92 786.429 512.382V512.62C786.429 513.082 786.709 513.418 787.339 513.418ZM786.569 522H788.095V514.72H786.569V522ZM793.748 522L796.254 514.72H794.798L793.664 518.038L792.922 520.586H792.838L792.096 518.038L790.99 514.72H789.478L791.956 522H793.748ZM800.384 522.168C801.742 522.168 802.806 521.58 803.352 520.698L802.456 519.816C802.036 520.488 801.434 520.908 800.538 520.908C799.306 520.908 798.62 520.11 798.62 518.99V518.752H803.618V518.178C803.618 516.162 802.526 514.552 800.384 514.552C798.312 514.552 797.038 516.036 797.038 518.36C797.038 520.684 798.312 522.168 800.384 522.168ZM800.384 515.742C801.392 515.742 802.008 516.484 802.008 517.604V517.744H798.62V517.646C798.62 516.526 799.334 515.742 800.384 515.742Z" fill="#9E9E9E"/>
<path d="M782.326 590.868C782.326 588.53 781.038 587.06 778.882 587.06C776.81 587.06 775.452 588.418 775.452 590.378C775.452 592.226 776.67 593.402 778.322 593.402C779.54 593.402 780.184 592.744 780.59 591.974L780.688 592.002C780.212 594.102 778.938 595.39 776.726 597H778.826C780.436 595.936 782.326 593.696 782.326 590.868ZM778.882 592.128C777.748 592.128 777.076 591.498 777.076 590.336V590.14C777.076 588.978 777.748 588.348 778.882 588.348C780.016 588.348 780.688 588.978 780.688 590.14V590.336C780.688 591.498 780.016 592.128 778.882 592.128ZM790.666 597V595.6H785.99V592.744H790.232V591.344H785.99V588.628H790.666V587.228H784.408V597H790.666ZM799.219 590.868C799.219 588.53 797.931 587.06 795.775 587.06C793.703 587.06 792.345 588.418 792.345 590.378C792.345 592.226 793.563 593.402 795.215 593.402C796.433 593.402 797.077 592.744 797.483 591.974L797.581 592.002C797.105 594.102 795.831 595.39 793.619 597H795.719C797.329 595.936 799.219 593.696 799.219 590.868ZM795.775 592.128C794.641 592.128 793.969 591.498 793.969 590.336V590.14C793.969 588.978 794.641 588.348 795.775 588.348C796.909 588.348 797.581 588.978 797.581 590.14V590.336C797.581 591.498 796.909 592.128 795.775 592.128ZM807.56 597V595.6H802.884V592.744H807.126V591.344H802.884V588.628H807.56V587.228H801.302V597H807.56ZM816.113 590.868C816.113 588.53 814.825 587.06 812.669 587.06C810.597 587.06 809.239 588.418 809.239 590.378C809.239 592.226 810.457 593.402 812.109 593.402C813.327 593.402 813.971 592.744 814.377 591.974L814.475 592.002C813.999 594.102 812.725 595.39 810.513 597H812.613C814.223 595.936 816.113 593.696 816.113 590.868ZM812.669 592.128C811.535 592.128 810.863 591.498 810.863 590.336V590.14C810.863 588.978 811.535 588.348 812.669 588.348C813.803 588.348 814.475 588.978 814.475 590.14V590.336C814.475 591.498 813.803 592.128 812.669 592.128ZM824.453 597V595.6H819.777V592.744H824.019V591.344H819.777V588.628H824.453V587.228H818.195V597H824.453Z" fill="white"/>
</svg>
