<svg width="966" height="452" viewBox="0 0 966 452" fill="none" xmlns="http://www.w3.org/2000/svg">
<g clip-path="url(#clip0)">
<path fill-rule="evenodd" clip-rule="evenodd" d="M886.903 317.917H696.014C689.379 317.917 684 312.54 684 305.907V13.01C684 6.377 689.378 1 696.014 1L886.903 1C893.539 1 898.917 6.377 898.917 13.01V305.907C898.917 312.54 893.539 317.917 886.903 317.917Z" fill="#FDFDFD" stroke="#7E89A3" stroke-width="2"/>
<path fill-rule="evenodd" clip-rule="evenodd" d="M886.903 317.917H696.014C689.379 317.917 684 312.54 684 305.907V13.01C684 6.377 689.378 1 696.014 1L886.903 1C893.539 1 898.917 6.377 898.917 13.01V305.907C898.917 312.54 893.539 317.917 886.903 317.917Z" fill="#FDFDFD" stroke="#7E89A3" stroke-width="2"/>
<path d="M882.916 32.917H700.917V285.834H882.916V32.917Z" fill="white" stroke="#7E89A3"/>
<path d="M791.938 308.959C796.368 308.959 799.959 305.368 799.959 300.938C799.959 296.508 796.368 292.917 791.938 292.917C787.508 292.917 783.917 296.508 783.917 300.938C783.917 305.368 787.508 308.959 791.938 308.959Z" stroke="#7E89A3"/>
<path d="M790.907 20.897C792.558 20.897 793.897 19.5583 793.897 17.907C793.897 16.2557 792.558 14.917 790.907 14.917C789.256 14.917 787.917 16.2557 787.917 17.907C787.917 19.5583 789.256 20.897 790.907 20.897Z" stroke="#7E89A3"/>
<rect x="705" y="37" width="174" height="18" fill="#C4C4C4"/>
<rect x="767" y="57" width="112" height="73.3333" fill="#7AD1B7"/>
<rect x="767" y="132.333" width="112" height="73.3333" fill="#7AD1B7"/>
<rect x="767" y="207.667" width="112" height="73.3333" fill="#7AD1B7"/>
<rect x="705" y="57" width="60" height="224" fill="#67B2E4"/>
<path fill-rule="evenodd" clip-rule="evenodd" d="M595 1H99C85.5042 1 74 12.0738 74 25.7901V352.028H620V25.7901C620 12.0728 608.537 1 595 1Z" fill="#FEFEFE" stroke="#8492A5" stroke-width="2"/>
<path d="M348 24C350.209 24 352 22.2091 352 20C352 17.7909 350.209 16 348 16C345.791 16 344 17.7909 344 20C344 22.2091 345.791 24 348 24Z" stroke="#8492A5" stroke-width="2"/>
<path fill-rule="evenodd" clip-rule="evenodd" d="M641.812 383.01H52.288C21.641 383.01 1 372.494 1 368.022V354.428C1 353.084 2.335 352 3.995 352H690.104C691.766 352 693.103 353.084 693.103 354.428V368.557C693.096 372.092 677.112 383.01 641.812 383.01Z" fill="#FDFDFD" stroke="#8492A5" stroke-width="2"/>
<path d="M1.5 366.5H691.243" stroke="#8492A5" stroke-linecap="square"/>
<path d="M596 40H96V332H596V40Z" fill="white" stroke="#8492A5"/>
<rect x="100" y="66" width="82" height="262" fill="#67B2E4"/>
<rect x="186" y="66" width="132.667" height="262" fill="#7AD1B7"/>
<rect x="322.667" y="66" width="132.667" height="262" fill="#7AD1B7"/>
<rect x="459.333" y="66" width="132.667" height="262" fill="#7AD1B7"/>
<rect x="100" y="44" width="492" height="18" fill="#C4C4C4"/>
<path fill-rule="evenodd" clip-rule="evenodd" d="M422 353V356.087C422 358.288 417.667 358.953 414.387 358.953H279.815C276.364 358.953 272 358.289 272 356.087V353" fill="white"/>
<path d="M422 353V356.087C422 358.288 417.667 358.953 414.387 358.953H279.815C276.364 358.953 272 358.289 272 356.087V353" stroke="#8492A5"/>
<path fill-rule="evenodd" clip-rule="evenodd" d="M692.999 435.883C692.999 444.716 685.808 451.875 676.937 451.875H579.062C570.191 451.875 563 444.716 563 435.883V193.992C563 185.159 570.191 178 579.062 178H676.937C685.808 178 692.999 185.159 692.999 193.992V435.883Z" fill="#FDFDFD" stroke="#7E89A3" stroke-width="2"/>
<path d="M683.929 213.919H571.999V413.003H683.929V213.919Z" fill="white" stroke="#7E89A3"/>
<path fill-rule="evenodd" clip-rule="evenodd" d="M639.999 203.665C639.999 204.3 639.56 204.812 639.019 204.812H618.917C618.375 204.812 617.937 204.299 617.937 203.665V201.085C617.937 200.45 618.376 199.938 618.917 199.938H639.019C639.56 199.938 639.999 200.451 639.999 201.085V203.665Z" stroke="#7E89A3"/>
<path d="M628.999 192.919C630.656 192.919 631.999 191.576 631.999 189.919C631.999 188.262 630.656 186.919 628.999 186.919C627.342 186.919 625.999 188.262 625.999 189.919C625.999 191.576 627.342 192.919 628.999 192.919Z" stroke="#7E89A3"/>
<path d="M628.039 441.921C633.584 441.921 638.079 437.443 638.079 431.92C638.079 426.397 633.584 421.919 628.039 421.919C622.494 421.919 617.999 426.397 617.999 431.92C617.999 437.443 622.494 441.921 628.039 441.921Z" stroke="#7E89A3"/>
<rect x="573.999" y="215.919" width="108" height="18" fill="#C4C4C4"/>
<rect x="574" y="236" width="108" height="57.6667" fill="#7AD1B7"/>
<rect x="574" y="295.667" width="108" height="57.6667" fill="#7AD1B7"/>
<rect x="574" y="355.333" width="108" height="57.6667" fill="#7AD1B7"/>
</g>
<defs>
<clipPath id="clip0">
<rect width="966" height="452" fill="white"/>
</clipPath>
</defs>
</svg>
