<svg width="966" height="452" viewBox="0 0 966 452" fill="none" xmlns="http://www.w3.org/2000/svg">
<g clip-path="url(#clip0)">
<path fill-rule="evenodd" clip-rule="evenodd" d="M947.917 13.014V203.903C947.917 210.538 942.54 215.917 935.907 215.917H643.01C636.377 215.917 631 210.539 631 203.903V13.014C631 6.37799 636.377 0.999985 643.01 0.999985H935.907C942.54 0.999985 947.917 6.37799 947.917 13.014Z" fill="#FDFDFD" stroke="#7E89A3" stroke-width="2"/>
<path fill-rule="evenodd" clip-rule="evenodd" d="M947.917 13.014V203.903C947.917 210.538 942.54 215.917 935.907 215.917H643.01C636.377 215.917 631 210.539 631 203.903V13.014C631 6.37799 636.377 0.999985 643.01 0.999985H935.907C942.54 0.999985 947.917 6.37799 947.917 13.014Z" fill="#FDFDFD" stroke="#7E89A3" stroke-width="2"/>
<path d="M662.917 17.001V199H915.834V17.001H662.917Z" fill="white" stroke="#7E89A3"/>
<path d="M938.959 107.979C938.959 103.549 935.368 99.958 930.938 99.958C926.508 99.958 922.917 103.549 922.917 107.979C922.917 112.409 926.508 116 930.938 116C935.368 116 938.959 112.409 938.959 107.979Z" stroke="#7E89A3"/>
<path d="M650.897 109.01C650.897 107.359 649.558 106.02 647.907 106.02C646.256 106.02 644.917 107.359 644.917 109.01C644.917 110.661 646.256 112 647.907 112C649.558 112 650.897 110.661 650.897 109.01Z" stroke="#7E89A3"/>
<rect x="665" y="19" width="249" height="18" fill="#C4C4C4"/>
<rect x="727" y="39" width="187" height="51.3333" fill="#7AD1B7"/>
<rect x="727" y="92.3334" width="187" height="51.3333" fill="#7AD1B7"/>
<rect x="727" y="145.667" width="187" height="51.3333" fill="#7AD1B7"/>
<rect x="665" y="39" width="60" height="158" fill="#67B2E4"/>
<path fill-rule="evenodd" clip-rule="evenodd" d="M595 1H99C85.5042 1 74 12.0738 74 25.7901V352.028H620V25.7901C620 12.0728 608.537 1 595 1Z" fill="#FEFEFE" stroke="#8492A5" stroke-width="2"/>
<path d="M348 24C350.209 24 352 22.2091 352 20C352 17.7909 350.209 16 348 16C345.791 16 344 17.7909 344 20C344 22.2091 345.791 24 348 24Z" stroke="#8492A5" stroke-width="2"/>
<path fill-rule="evenodd" clip-rule="evenodd" d="M641.812 383.01H52.288C21.641 383.01 1 372.494 1 368.022V354.428C1 353.084 2.335 352 3.995 352H690.104C691.766 352 693.103 353.084 693.103 354.428V368.557C693.096 372.092 677.112 383.01 641.812 383.01Z" fill="#FDFDFD" stroke="#8492A5" stroke-width="2"/>
<path d="M1.5 366.5H691.243" stroke="#8492A5" stroke-linecap="square"/>
<path d="M596 40H96V332H596V40Z" fill="white" stroke="#8492A5"/>
<rect x="100" y="66" width="82" height="262" fill="#67B2E4"/>
<rect x="186" y="66" width="132.667" height="262" fill="#7AD1B7"/>
<rect x="322.667" y="66" width="132.667" height="262" fill="#7AD1B7"/>
<rect x="459.333" y="66" width="132.667" height="262" fill="#7AD1B7"/>
<rect x="100" y="44" width="492" height="18" fill="#C4C4C4"/>
<path fill-rule="evenodd" clip-rule="evenodd" d="M422 353V356.087C422 358.288 417.667 358.953 414.387 358.953H279.815C276.364 358.953 272 358.289 272 356.087V353" fill="white"/>
<path d="M422 353V356.087C422 358.288 417.667 358.953 414.387 358.953H279.815C276.364 358.953 272 358.289 272 356.087V353" stroke="#8492A5"/>
<path fill-rule="evenodd" clip-rule="evenodd" d="M692.999 435.883C692.999 444.716 685.808 451.875 676.937 451.875H579.062C570.191 451.875 563 444.716 563 435.883V193.992C563 185.159 570.191 178 579.062 178H676.937C685.808 178 692.999 185.159 692.999 193.992V435.883Z" fill="#FDFDFD" stroke="#7E89A3" stroke-width="2"/>
<path d="M683.929 213.919H571.999V413.003H683.929V213.919Z" fill="white" stroke="#7E89A3"/>
<path fill-rule="evenodd" clip-rule="evenodd" d="M639.999 203.665C639.999 204.3 639.56 204.812 639.019 204.812H618.917C618.375 204.812 617.937 204.299 617.937 203.665V201.085C617.937 200.45 618.376 199.938 618.917 199.938H639.019C639.56 199.938 639.999 200.451 639.999 201.085V203.665Z" stroke="#7E89A3"/>
<path d="M628.999 192.919C630.656 192.919 631.999 191.576 631.999 189.919C631.999 188.262 630.656 186.919 628.999 186.919C627.342 186.919 625.999 188.262 625.999 189.919C625.999 191.576 627.342 192.919 628.999 192.919Z" stroke="#7E89A3"/>
<path d="M628.039 441.921C633.584 441.921 638.079 437.443 638.079 431.92C638.079 426.397 633.584 421.919 628.039 421.919C622.494 421.919 617.999 426.397 617.999 431.92C617.999 437.443 622.494 441.921 628.039 441.921Z" stroke="#7E89A3"/>
<rect x="573.999" y="215.919" width="108" height="18" fill="#C4C4C4"/>
<rect x="574" y="236" width="108" height="57.6667" fill="#7AD1B7"/>
<rect x="574" y="295.667" width="108" height="57.6667" fill="#7AD1B7"/>
<rect x="574" y="355.333" width="108" height="57.6667" fill="#7AD1B7"/>
</g>
<defs>
<clipPath id="clip0">
<rect width="966" height="452" fill="white"/>
</clipPath>
</defs>
</svg>
