<?xml version="1.0" encoding="utf-8"?>
<!-- Generator: Adobe Illustrator 24.0.3, SVG Export Plug-In . SVG Version: 6.00 Build 0)  -->
<svg version="1.1" id="Ebene_1" xmlns="http://www.w3.org/2000/svg" xmlns:xlink="http://www.w3.org/1999/xlink" x="0px" y="0px"
	 viewBox="0 0 1645.3 625.5" style="enable-background:new 0 0 1645.3 625.5;" xml:space="preserve">
<style type="text/css">
	.st0{fill:#FFFFFF;}
	.st1{fill:#E40528;}
</style>
<path class="st0" d="M732.7,268.2c-6.3-2.4-11.2-5.7-14.6-10c-3.5-4.3-5.2-9.1-5.2-14.5v-1.9c0-0.6,0.2-1.2,0.7-1.6
	c0.4-0.4,1-0.7,1.6-0.7h21c0.6,0,1.2,0.2,1.6,0.7c0.4,0.4,0.7,1,0.7,1.6v0.2c0,2.8,1.5,5.1,4.6,7.1s7,2.9,11.6,2.9
	c4.3,0,7.7-0.8,10.4-2.5c2.6-1.7,4-3.8,4-6.3c0-2.3-1.1-4-3.4-5.1c-2.3-1.1-6-2.3-11.1-3.6c-5.9-1.5-10.6-3-14-4.3
	c-8.1-2.8-14.5-6.2-19.3-10.2s-7.2-9.8-7.2-17.4c0-9.3,3.6-16.7,10.9-22.2c7.2-5.5,16.8-8.2,28.8-8.2c8.1,0,15.1,1.3,21.2,3.9
	c6,2.6,10.7,6.2,14.1,10.9c3.3,4.7,5,9.9,5,15.9c0,0.6-0.2,1.2-0.7,1.6c-0.4,0.4-1,0.7-1.6,0.7h-20.2c-0.6,0-1.2-0.2-1.6-0.7
	c-0.4-0.4-0.7-1-0.7-1.6c0-2.8-1.4-5.1-4.2-7s-6.6-2.8-11.2-2.8c-4.2,0-7.6,0.8-10.2,2.3c-2.6,1.5-4,3.6-4,6.2
	c0,2.5,1.3,4.4,3.9,5.7c2.6,1.3,6.9,2.6,12.9,4c1.4,0.4,3,0.8,4.7,1.2c1.8,0.4,3.7,1,5.7,1.6c8.9,2.6,16,6,21.2,10.2
	s7.7,10.2,7.7,18.1c0,9.3-3.7,16.6-11,21.8c-7.4,5.2-17.3,7.8-29.7,7.8C746.4,271.8,739,270.6,732.7,268.2z"/>
<path class="st0" d="M944.4,180.8c5.5,5.9,8.3,14.2,8.3,24.9v62.5c0,0.6-0.2,1.2-0.7,1.6c-0.4,0.4-1,0.7-1.6,0.7h-22.1
	c-0.6,0-1.2-0.2-1.6-0.7c-0.4-0.4-0.7-1-0.7-1.6v-56.7c0-5.2-1.3-9.3-4-12.3c-2.6-3-6.2-4.5-10.6-4.5c-4.4,0-8,1.5-10.8,4.5
	s-4.2,7.1-4.2,12.1v56.8c0,0.6-0.2,1.2-0.7,1.6c-0.4,0.4-1,0.7-1.6,0.7h-21.9c-0.6,0-1.2-0.2-1.6-0.7c-0.4-0.4-0.7-1-0.7-1.6v-56.7
	c0-5-1.4-9.1-4.2-12.2c-2.8-3.1-6.4-4.6-10.8-4.6c-4,0-7.4,1.2-10.1,3.6c-2.7,2.4-4.3,5.7-4.8,10v59.9c0,0.6-0.2,1.2-0.7,1.6
	c-0.4,0.4-1,0.7-1.6,0.7h-22.1c-0.6,0-1.2-0.2-1.6-0.7c-0.4-0.4-0.7-1-0.7-1.6v-92.5c0-0.6,0.2-1.2,0.7-1.6c0.4-0.4,1-0.7,1.6-0.7
	H838c0.6,0,1.2,0.2,1.6,0.7c0.4,0.4,0.7,1,0.7,1.6v7.4c0,0.4,0.1,0.6,0.4,0.8c0.2,0.1,0.5,0,0.8-0.4c5.2-7.7,13.2-11.5,24-11.5
	c6.3,0,11.8,1.3,16.5,4c4.7,2.6,8.3,6.4,10.9,11.3c0.4,0.8,0.8,0.8,1.3,0c2.8-5.2,6.5-9,11.2-11.5s10-3.8,16-3.8
	C931.1,171.9,938.8,174.9,944.4,180.8z"/>
<path class="st0" d="M1035,176.2c6.4,2.8,11.4,6.7,15,11.6c3.6,4.9,5.4,10.4,5.4,16.4v64c0,0.6-0.2,1.2-0.7,1.6
	c-0.4,0.4-1,0.7-1.6,0.7H1031c-0.6,0-1.2-0.2-1.6-0.7c-0.4-0.4-0.7-1-0.7-1.6V262c0-0.4-0.1-0.6-0.4-0.8c-0.2-0.1-0.5,0-0.8,0.4
	c-5.3,6.9-13.8,10.4-25.5,10.4c-9.8,0-17.8-2.4-23.8-7.2c-6-4.8-9.1-11.8-9.1-21.2c0-9.7,3.4-17.2,10.2-22.6c6.8-5.3,16.5-8,29.1-8
	h19.3c0.6,0,0.9-0.3,0.9-0.9V208c0-4.2-1.3-7.4-3.8-9.7s-6.3-3.5-11.3-3.5c-3.9,0-7.1,0.7-9.7,2.1c-2.6,1.4-4.2,3.3-5,5.9
	c-0.4,1.4-1.2,2-2.5,1.9l-22.9-3c-1.5-0.3-2.2-0.8-2.1-1.7c0.5-5.3,2.6-10.1,6.3-14.4c3.7-4.3,8.6-7.6,14.7-10
	c6.1-2.4,12.9-3.6,20.5-3.6C1021.3,171.9,1028.6,173.3,1035,176.2z M1023.1,247.8c3.8-2.9,5.7-6.6,5.7-11.1v-6.8
	c0-0.6-0.3-0.9-0.9-0.9h-13.6c-5.7,0-10.1,1.1-13.3,3.2c-3.2,2.1-4.8,5.2-4.8,9.1c0,3.4,1.2,6.1,3.6,8c2.4,2,5.6,2.9,9.6,2.9
	C1014.7,252.2,1019.3,250.7,1023.1,247.8z"/>
<path class="st0" d="M1209.1,195.9c-0.4,0.4-1,0.7-1.6,0.7h-18.1c-0.6,0-0.9,0.3-0.9,0.9v38.2c0,4.2,0.8,7.2,2.5,9.3
	c1.7,2,4.4,3,8.2,3h6.2c0.6,0,1.2,0.2,1.6,0.7c0.4,0.4,0.7,1,0.7,1.6v17.9c0,1.4-0.8,2.2-2.3,2.5c-5.3,0.2-9.1,0.4-11.3,0.4
	c-10.5,0-18.3-1.7-23.4-5.2c-5.2-3.5-7.8-10-7.9-19.5v-48.8c0-0.6-0.3-0.9-0.9-0.9H1151c-0.6,0-1.2-0.2-1.6-0.7
	c-0.4-0.4-0.7-1-0.7-1.6v-18.6c0-0.6,0.2-1.2,0.7-1.6c0.4-0.4,1-0.7,1.6-0.7h10.8c0.6,0,0.9-0.3,0.9-0.9V150c0-0.6,0.2-1.2,0.7-1.6
	c0.4-0.4,1-0.7,1.6-0.7h21.2c0.6,0,1.2,0.2,1.6,0.7c0.4,0.4,0.7,1,0.7,1.6v22.5c0,0.6,0.3,0.9,0.9,0.9h18.1c0.6,0,1.2,0.2,1.6,0.7
	c0.4,0.4,0.7,1,0.7,1.6v18.6C1209.7,194.9,1209.5,195.5,1209.1,195.9z"/>
<path class="st0" d="M719.8,331.6c-2.8-2.8-4.2-6.4-4.2-10.7c0-4.4,1.4-8,4.2-10.8s6.4-4.2,10.8-4.2c4.4,0,8,1.4,10.8,4.2
	c2.8,2.8,4.2,6.4,4.2,10.8c0,4.3-1.4,7.8-4.2,10.7c-2.8,2.8-6.4,4.2-10.7,4.2C726.2,335.8,722.6,334.4,719.8,331.6z M717.5,443.2
	c-0.4-0.4-0.7-1-0.7-1.6v-92.7c0-0.6,0.2-1.2,0.7-1.6c0.4-0.4,1-0.7,1.6-0.7h22.1c0.6,0,1.2,0.2,1.6,0.7c0.4,0.4,0.7,1,0.7,1.6v92.7
	c0,0.6-0.2,1.2-0.7,1.6c-0.4,0.4-1,0.7-1.6,0.7h-22.1C718.5,443.8,718,443.6,717.5,443.2z"/>
<path class="st0" d="M841.4,354.5c6.2,6.2,9.3,14.5,9.3,25.1v61.9c0,0.6-0.2,1.2-0.7,1.6c-0.4,0.4-1,0.7-1.6,0.7h-22.1
	c-0.6,0-1.2-0.2-1.6-0.7c-0.4-0.4-0.7-1-0.7-1.6V385c0-5-1.4-9.1-4.2-12.3c-2.8-3.1-6.6-4.7-11.2-4.7c-4.7,0-8.4,1.6-11.2,4.7
	c-2.8,3.2-4.2,7.2-4.2,12.3v56.5c0,0.6-0.2,1.2-0.7,1.6c-0.4,0.4-1,0.7-1.6,0.7h-22.1c-0.6,0-1.2-0.2-1.6-0.7
	c-0.4-0.4-0.7-1-0.7-1.6V349c0-0.6,0.2-1.2,0.7-1.6c0.4-0.4,1-0.7,1.6-0.7h22.1c0.6,0,1.2,0.2,1.6,0.7c0.4,0.4,0.7,1,0.7,1.6v6.6
	c0,0.4,0.1,0.6,0.4,0.8c0.2,0.1,0.4,0.1,0.6-0.2c5.2-7.3,12.8-11,23-11C827.1,345.3,835.2,348.3,841.4,354.5z"/>
<path class="st0" d="M888.5,441.6c-6.3-2.4-11.2-5.7-14.6-10c-3.5-4.3-5.2-9.1-5.2-14.5v-1.9c0-0.6,0.2-1.2,0.7-1.6
	c0.4-0.4,1-0.7,1.6-0.7h21c0.6,0,1.2,0.2,1.6,0.7c0.4,0.4,0.7,1,0.7,1.6v0.2c0,2.8,1.5,5.1,4.6,7.1s7,2.9,11.6,2.9
	c4.3,0,7.7-0.8,10.4-2.5c2.6-1.7,4-3.8,4-6.3c0-2.3-1.1-4-3.4-5.1c-2.3-1.1-6-2.3-11.1-3.6c-5.9-1.5-10.6-3-14-4.3
	c-8.1-2.8-14.5-6.2-19.3-10.2s-7.2-9.8-7.2-17.4c0-9.3,3.6-16.7,10.9-22.2c7.2-5.5,16.8-8.2,28.8-8.2c8.1,0,15.1,1.3,21.2,3.9
	c6,2.6,10.7,6.2,14.1,10.9c3.3,4.7,5,10,5,15.9c0,0.6-0.2,1.2-0.7,1.6c-0.4,0.4-1,0.7-1.6,0.7h-20.2c-0.6,0-1.2-0.2-1.6-0.7
	c-0.4-0.4-0.7-1-0.7-1.6c0-2.8-1.4-5.1-4.2-7s-6.6-2.8-11.2-2.8c-4.2,0-7.6,0.8-10.2,2.3c-2.6,1.5-4,3.6-4,6.2
	c0,2.5,1.3,4.4,3.9,5.7c2.6,1.3,6.9,2.6,12.9,4c1.4,0.4,3,0.8,4.7,1.2c1.8,0.4,3.7,1,5.7,1.6c8.9,2.6,16,6,21.2,10.2
	s7.7,10.2,7.7,18.1c0,9.3-3.7,16.6-11,21.8c-7.4,5.2-17.3,7.8-29.7,7.8C902.1,445.2,894.7,444,888.5,441.6z"/>
<path class="st0" d="M1026.5,347.4c0.4-0.4,1-0.7,1.6-0.7h22.1c0.6,0,1.2,0.2,1.6,0.7c0.4,0.4,0.7,1,0.7,1.6v92.5
	c0,0.6-0.2,1.2-0.7,1.6c-0.4,0.4-1,0.7-1.6,0.7h-22.1c-0.6,0-1.2-0.2-1.6-0.7c-0.4-0.4-0.7-1-0.7-1.6v-6.4c0-0.4-0.1-0.6-0.4-0.7
	s-0.5,0.1-0.8,0.5c-5,6.8-12.8,10.2-23.4,10.2c-9.6,0-17.4-2.9-23.6-8.7c-6.2-5.8-9.3-13.9-9.3-24.4v-63c0-0.6,0.2-1.2,0.7-1.6
	c0.4-0.4,1-0.7,1.6-0.7h21.9c0.6,0,1.2,0.2,1.6,0.7c0.4,0.4,0.7,1,0.7,1.6v56.5c0,5,1.4,9.1,4.1,12.3c2.7,3.1,6.5,4.7,11.2,4.7
	c4.3,0,7.8-1.3,10.6-3.9s4.5-6,5.1-10.1V349C1025.8,348.4,1026,347.9,1026.5,347.4z"/>
<path class="st0" d="M1206.8,369.2c-0.4,0.4-1,0.7-1.6,0.7h-18.1c-0.6,0-0.9,0.3-0.9,0.9V409c0,4.2,0.8,7.2,2.5,9.3
	c1.7,2,4.4,3,8.2,3h6.2c0.6,0,1.2,0.2,1.6,0.7c0.4,0.4,0.7,1,0.7,1.6v17.9c0,1.4-0.8,2.2-2.3,2.5c-5.3,0.2-9.1,0.4-11.3,0.4
	c-10.5,0-18.3-1.7-23.4-5.2c-5.2-3.5-7.8-10-7.9-19.5v-48.8c0-0.6-0.3-0.9-0.9-0.9h-10.8c-0.6,0-1.2-0.2-1.6-0.7
	c-0.4-0.4-0.7-1-0.7-1.6V349c0-0.6,0.2-1.2,0.7-1.6c0.4-0.4,1-0.7,1.6-0.7h10.8c0.6,0,0.9-0.3,0.9-0.9v-22.5c0-0.6,0.2-1.2,0.7-1.6
	c0.4-0.4,1-0.7,1.6-0.7h21.2c0.6,0,1.2,0.2,1.6,0.7c0.4,0.4,0.7,1,0.7,1.6v22.5c0,0.6,0.3,0.9,0.9,0.9h18.1c0.6,0,1.2,0.2,1.6,0.7
	c0.4,0.4,0.7,1,0.7,1.6v18.6C1207.5,368.3,1207.3,368.8,1206.8,369.2z"/>
<path class="st0" d="M1308.8,401.3c-0.1,1.5-0.9,2.3-2.5,2.3h-58.4c-0.8,0-1,0.3-0.8,0.9c0.4,2.5,1.1,5,2.1,7.6
	c3.3,7.1,9.9,10.6,20,10.6c8.1-0.1,14.4-3.4,19.1-9.8c0.5-0.8,1.1-1.1,1.7-1.1c0.4,0,0.8,0.3,1.3,0.8l13.6,13.4
	c0.6,0.6,0.9,1.2,0.9,1.7c0,0.2-0.2,0.8-0.8,1.5c-4.2,5.2-9.5,9.2-16.1,12c-6.5,2.8-13.7,4.2-21.5,4.2c-10.8,0-20-2.5-27.5-7.4
	s-12.9-11.8-16.1-20.6c-2.6-6.3-4-14.5-4-24.7c0-6.9,0.9-13,2.8-18.3c2.9-8.9,8-16,15.2-21.3s15.8-7.9,25.8-7.9
	c12.6,0,22.7,3.7,30.3,11c7.6,7.3,12.2,17.1,13.9,29.3C1308.8,390.1,1309,395.4,1308.8,401.3z M1248.3,379.2c-0.5,1.6-0.9,3.7-1.3,6
	c0,0.6,0.3,0.9,0.9,0.9h32.7c0.8,0,1-0.3,0.8-0.9c-0.6-3.7-0.9-5.4-0.9-5.3c-1.1-3.8-3.1-6.7-6-8.8c-2.8-2.1-6.3-3.1-10.5-3.1
	C1256.1,368.1,1250.8,371.8,1248.3,379.2z"/>
<path class="st0" d="M1342.6,437.8c-7.4-5-12.6-12-15.8-20.8c-2.1-6.3-3.2-13.7-3.2-22.3c0-8.4,1.1-15.7,3.2-21.9
	c3-8.6,8.2-15.3,15.7-20.2c7.4-4.9,16.2-7.4,26.3-7.4c10.1,0,18.9,2.5,26.5,7.6c7.6,5,12.7,11.4,15.2,19.1c1,3,1.5,5.3,1.5,6.8v0.4
	c0,1.1-0.6,1.8-1.9,2.1l-21.7,3.2h-0.4c-1.1,0-1.9-0.6-2.3-1.9l-0.6-3c-0.9-3.3-2.8-6-5.9-8.1s-6.6-3.2-10.8-3.2c-4,0-7.4,1-10.2,3
	c-2.8,2-4.7,4.8-5.9,8.3c-1.4,3.8-2.1,8.9-2.1,15.5s0.6,11.7,1.9,15.5c1.1,3.8,3.1,6.7,6,8.9c2.8,2.1,6.3,3.2,10.3,3.2
	c3.9,0,7.3-1,10.3-3.1s5-4.9,6.1-8.6c0.1-0.2,0.2-0.6,0.2-1.1c0.1-0.1,0.2-0.3,0.2-0.6c0.1-1.5,1-2.1,2.6-1.9l21.7,3.4
	c1.3,0.2,1.9,0.9,1.9,2.1c0,1-0.4,2.9-1.1,5.7c-2.6,8.4-7.8,15-15.4,19.8s-16.4,7.2-26.3,7.2C1358.7,445.3,1350,442.8,1342.6,437.8z
	"/>
<path class="st0" d="M1504.5,354.5c6.2,6.2,9.3,14.5,9.3,25.1v61.9c0,0.6-0.2,1.2-0.7,1.6c-0.4,0.4-1,0.7-1.6,0.7h-22.1
	c-0.6,0-1.2-0.2-1.6-0.7c-0.4-0.4-0.7-1-0.7-1.6V385c0-5-1.4-9.1-4.2-12.3c-2.8-3.1-6.6-4.7-11.2-4.7c-4.7,0-8.4,1.6-11.2,4.7
	c-2.8,3.2-4.2,7.2-4.2,12.3v56.5c0,0.6-0.2,1.2-0.7,1.6c-0.4,0.4-1,0.7-1.6,0.7h-22.1c-0.6,0-1.2-0.2-1.6-0.7
	c-0.4-0.4-0.7-1-0.7-1.6V313.9c0-0.6,0.2-1.2,0.7-1.6c0.4-0.4,1-0.7,1.6-0.7h22.1c0.6,0,1.2,0.2,1.6,0.7c0.4,0.4,0.7,1,0.7,1.6v41.7
	c0,0.4,0.1,0.6,0.4,0.8c0.2,0.1,0.4,0.1,0.6-0.2c5.2-7.3,12.8-11,23-11C1490.2,345.3,1498.4,348.3,1504.5,354.5z"/>
<path class="st1" d="M232,160.6c-14.4,0-26.1,11.8-26.1,26.1v350c-40.8-3-73.1-37.1-73.1-78.7V166.4c0-43.5,35.4-78.9,78.9-78.9
	h277.7c0,40.2-32.9,73.1-73.1,73.1L232,160.6L232,160.6z M509.2,87.7v350c0,14.4-11.8,26.1-26.1,26.1H298.8
	c-40.2,0-73.1,32.9-73.1,73.1l0,0h277.7c43.5,0,78.9-35.4,78.9-78.9V166.4C582.3,124.9,550,90.7,509.2,87.7z"/>
<path class="st0" d="M1133.4,172.1h-8.7h-0.1c-8.3,0.2-15,4-20,11.3c-0.1,0.3-0.3,0.3-0.6,0.2c-0.3-0.1-0.4-0.4-0.4-0.8v-7.2
	c0-0.6-0.2-1.2-0.7-1.6c-0.4-0.4-1-0.7-1.6-0.7h-22.1c-0.6,0-1.2,0.2-1.6,0.7c-0.4,0.4-0.7,1-0.7,1.6v92.5c0,0.6,0.2,1.2,0.7,1.6
	c0.4,0.4,1,0.7,1.6,0.7h22.1c0.6,0,1.2-0.2,1.6-0.7c0.4-0.4,0.7-1,0.7-1.6V216c0-4.9,1.6-8.8,4.7-11.8s7-4.6,11.5-5
	c1.8-0.2,4.9-0.4,4.9-0.4h8.6c1.2,0,2.2-1,2.2-2.2v-22.5C1135.6,173.1,1134.6,172.1,1133.4,172.1z"/>
<path class="st0" d="M1130.9,345.5h-8.7h-0.1c-8.3,0.2-15,4-20,11.3c-0.1,0.3-0.3,0.3-0.6,0.2c-0.3-0.1-0.4-0.4-0.4-0.8V349
	c0-0.6-0.2-1.2-0.7-1.6c-0.4-0.4-1-0.7-1.6-0.7h-22.1c-0.6,0-1.2,0.2-1.6,0.7c-0.4,0.4-0.7,1-0.7,1.6v92.5c0,0.6,0.2,1.2,0.7,1.6
	c0.4,0.4,1,0.7,1.6,0.7h22.1c0.6,0,1.2-0.2,1.6-0.7c0.4-0.4,0.7-1,0.7-1.6v-52.1c0-4.9,1.6-8.8,4.7-11.8s7-4.6,11.5-5
	c1.8-0.2,4.9-0.4,4.9-0.4h8.6c1.2,0,2.2-1,2.2-2.2v-22.5C1133.1,346.4,1132.1,345.5,1130.9,345.5z"/>
</svg>
